  0
SECTION
  2
HEADER
  9
$ACADVER
  1
AC1014
  9
$HANDSEED
  5
FFFF
  9
$MEASUREMENT
 70
     1
  0
ENDSEC
  0
SECTION
  2
TABLES
  0
TABLE
  2
VPORT
  5
8
330
0
100
AcDbSymbolTable
 70
     4
  0
VPORT
  5
2E
330
8
100
AcDbSymbolTableRecord
100
AcDbViewportTableRecord
  2
*ACTIVE
 70
     0
 10
0.0
 20
0.0
 11
1.0
 21
1.0
 12
210.0
 22
148.5
 13
0.0
 23
0.0
 14
10.0
 24
10.0
 15
10.0
 25
10.0
 16
0.0
 26
0.0
 36
1.0
 17
0.0
 27
0.0
 37
0.0
 40
341.0
 41
1.24
 42
50.0
 43
0.0
 44
0.0
 50
0.0
 51
0.0
 71
     0
 72
   100
 73
     1
 74
     3
 75
     0
 76
     0
 77
     0
 78
     0
  0
ENDTAB
  0
TABLE
  2
LTYPE
  5
5
330
0
100
AcDbSymbolTable
 70
     1
  0
LTYPE
  5
14
330
5
100
AcDbSymbolTableRecord
100
AcDbLinetypeTableRecord
  2
BYBLOCK
 70
     0
  3

 72
    65
 73
     0
 40
0.0
  0
LTYPE
  5
15
330
5
100
AcDbSymbolTableRecord
100
AcDbLinetypeTableRecord
  2
BYLAYER
 70
     0
  3

 72
    65
 73
     0
 40
0.0
  0
LTYPE
  5
16
330
5
100
AcDbSymbolTableRecord
100
AcDbLinetypeTableRecord
  2
CONTINUOUS
 70
     0
  3
Solid line
 72
    65
 73
     0
 40
0.0
  0
ENDTAB
  0
TABLE
  2
LAYER
  5
2
100
AcDbSymbolTable
 70
1
  0
LAYER
  5
50
100
AcDbSymbolTableRecord
100
AcDbLayerTableRecord
  2
0
 70
0
  6
CONTINUOUS
  0
ENDTAB
  0
TABLE
  2
STYLE
  5
3
330
0
100
AcDbSymbolTable
 70
     1
  0
STYLE
  5
11
330
3
100
AcDbSymbolTableRecord
100
AcDbTextStyleTableRecord
  2
STANDARD
 70
     0
 40
0.0
 41
1.0
 50
0.0
 71
     0
 42
2.5
  3
txt
  4

  0
ENDTAB
  0
TABLE
  2
VIEW
  5
6
330
0
100
AcDbSymbolTable
 70
     0
  0
ENDTAB
  0
TABLE
  2
UCS
  5
7
330
0
100
AcDbSymbolTable
 70
     0
  0
ENDTAB
  0
TABLE
  2
APPID
  5
9
330
0
100
AcDbSymbolTable
 70
     2
  0
APPID
  5
12
330
9
100
AcDbSymbolTableRecord
100
AcDbRegAppTableRecord
  2
ACAD
 70
     0
  0
ENDTAB
  0
TABLE
  2
DIMSTYLE
  5
A
330
0
100
AcDbSymbolTable
 70
     1
  0
DIMSTYLE
105
27
330
A
100
AcDbSymbolTableRecord
100
AcDbDimStyleTableRecord
  2
ISO-25
 70
     0
  3

  4

  5

  6

  7

 40
1.0
 41
2.5
 42
0.625
 43
3.75
 44
1.25
 45
0.0
 46
0.0
 47
0.0
 48
0.0
140
2.5
141
2.5
142
0.0
143
0.03937007874016
144
1.0
145
0.0
146
1.0
147
0.625
 71
     0
 72
     0
 73
     0
 74
     0
 75
     0
 76
     0
 77
     1
 78
     8
170
     0
171
     3
172
     1
173
     0
174
     0
175
     0
176
     0
177
     0
178
     0
270
     2
271
     2
272
     2
273
     2
274
     3
340
11
275
     0
280
     0
281
     0
282
     0
283
     0
284
     8
285
     0
286
     0
287
     3
288
     0
  0
ENDTAB
  0
TABLE
  2
BLOCK_RECORD
  5
1
330
0
100
AcDbSymbolTable
 70
     1
  0
BLOCK_RECORD
  5
1F
330
1
100
AcDbSymbolTableRecord
100
AcDbBlockTableRecord
  2
*MODEL_SPACE
  0
BLOCK_RECORD
  5
1B
330
1
100
AcDbSymbolTableRecord
100
AcDbBlockTableRecord
  2
*PAPER_SPACE
  0
ENDTAB
  0
ENDSEC
  0
SECTION
  2
BLOCKS
  0
BLOCK
  5
20
330
1F
100
AcDbEntity
  8
0
100
AcDbBlockBegin
  2
*MODEL_SPACE
 70
     0
 10
0.0
 20
0.0
 30
0.0
  3
*MODEL_SPACE
  1

  0
ENDBLK
  5
21
330
1F
100
AcDbEntity
  8
0
100
AcDbBlockEnd
  0
BLOCK
  5
1C
330
1B
100
AcDbEntity
 67
     1
  8
0
100
AcDbBlockBegin
  2
*PAPER_SPACE
  1

  0
ENDBLK
  5
1D
330
1B
100
AcDbEntity
 67
     1
  8
0
100
AcDbBlockEnd
  0
ENDSEC
  0
SECTION
  2
ENTITIES
  0
LINE
  5
100
100
AcDbEntity
  8
0
 62
7
100
AcDbLine
 10
-76.389000
 20
124.098000
 30
0.0
 11
-87.450996
 21
146.221001
 31
0.0
  0
LINE
  5
101
100
AcDbEntity
  8
0
 62
7
100
AcDbLine
 10
-87.450996
 20
146.221001
 30
0.0
 11
-94.553001
 21
174.098000
 31
0.0
  0
LINE
  5
102
100
AcDbEntity
  8
0
 62
7
100
AcDbLine
 10
-94.553001
 20
174.098000
 30
0.0
 11
-96.762444
 21
202.000000
 31
0.0
  0
LINE
  5
103
100
AcDbEntity
  8
0
 62
7
100
AcDbLine
 10
-96.762444
 20
202.000000
 30
0.0
 11
-97.000000
 21
205.000000
 31
0.0
  0
LINE
  5
104
100
AcDbEntity
  8
0
 62
7
100
AcDbLine
 10
-97.000000
 20
205.000000
 30
0.0
 11
-95.257675
 21
227.003000
 31
0.0
  0
LINE
  5
105
100
AcDbEntity
  8
0
 62
7
100
AcDbLine
 10
-95.257675
 20
227.003000
 30
0.0
 11
-94.553001
 21
235.902000
 31
0.0
  0
LINE
  5
106
100
AcDbEntity
  8
0
 62
7
100
AcDbLine
 10
-94.553001
 20
235.902000
 30
0.0
 11
-87.450996
 21
263.778999
 31
0.0
  0
LINE
  5
107
100
AcDbEntity
  8
0
 62
7
100
AcDbLine
 10
-87.450996
 20
263.778999
 30
0.0
 11
-83.002998
 21
272.674599
 31
0.0
  0
LINE
  5
108
100
AcDbEntity
  8
0
 62
7
100
AcDbLine
 10
-83.002998
 20
272.674599
 30
0.0
 11
-80.002998
 21
278.674324
 31
0.0
  0
LINE
  5
109
100
AcDbEntity
  8
0
 62
7
100
AcDbLine
 10
-80.002998
 20
278.674324
 30
0.0
 11
-76.389000
 21
285.902000
 31
0.0
  0
LINE
  5
10a
100
AcDbEntity
  8
0
 62
7
100
AcDbLine
 10
-76.389000
 20
285.902000
 30
0.0
 11
-69.297997
 21
293.128326
 31
0.0
  0
LINE
  5
10b
100
AcDbEntity
  8
0
 62
7
100
AcDbLine
 10
-69.297997
 20
293.128326
 30
0.0
 11
-62.451000
 21
300.106003
 31
0.0
  0
LINE
  5
10c
100
AcDbEntity
  8
0
 62
7
100
AcDbLine
 10
-62.451000
 20
300.106003
 30
0.0
 11
-52.002998
 21
303.415337
 31
0.0
  0
LINE
  5
10d
100
AcDbEntity
  8
0
 62
7
100
AcDbLine
 10
-52.002998
 20
303.415337
 30
0.0
 11
-47.000000
 21
305.000000
 31
0.0
  0
LINE
  5
10e
100
AcDbEntity
  8
0
 62
7
100
AcDbLine
 10
-47.000000
 20
305.000000
 30
0.0
 11
-42.998001
 21
303.732391
 31
0.0
  0
LINE
  5
10f
100
AcDbEntity
  8
0
 62
7
100
AcDbLine
 10
-42.998001
 20
303.732391
 30
0.0
 11
-31.549000
 21
300.106003
 31
0.0
  0
LINE
  5
110
100
AcDbEntity
  8
0
 62
7
100
AcDbLine
 10
-31.549000
 20
300.106003
 30
0.0
 11
-17.611000
 21
285.902000
 31
0.0
  0
LINE
  5
111
100
AcDbEntity
  8
0
 62
7
100
AcDbLine
 10
-17.611000
 20
285.902000
 30
0.0
 11
-14.998000
 21
280.676239
 31
0.0
  0
LINE
  5
112
100
AcDbEntity
  8
0
 62
7
100
AcDbLine
 10
-14.998000
 20
280.676239
 30
0.0
 11
-6.658505
 21
263.998001
 31
0.0
  0
LINE
  5
113
100
AcDbEntity
  8
0
 62
7
100
AcDbLine
 10
-6.658505
 20
263.998001
 30
0.0
 11
-6.549000
 21
263.778999
 31
0.0
  0
LINE
  5
114
100
AcDbEntity
  8
0
 62
7
100
AcDbLine
 10
-6.549000
 20
263.778999
 30
0.0
 11
0.553000
 21
235.902000
 31
0.0
  0
LINE
  5
115
100
AcDbEntity
  8
0
 62
7
100
AcDbLine
 10
0.553000
 20
235.902000
 30
0.0
 11
1.002000
 21
230.231792
 31
0.0
  0
LINE
  5
116
100
AcDbEntity
  8
0
 62
7
100
AcDbLine
 10
1.002000
 20
230.231792
 30
0.0
 11
2.311321
 21
213.697000
 31
0.0
  0
LINE
  5
117
100
AcDbEntity
  8
0
 62
7
100
AcDbLine
 10
2.311321
 20
213.697000
 30
0.0
 11
3.000000
 21
205.000000
 31
0.0
  0
LINE
  5
118
100
AcDbEntity
  8
0
 62
7
100
AcDbLine
 10
3.000000
 20
205.000000
 30
0.0
 11
2.762443
 21
202.000000
 31
0.0
  0
LINE
  5
119
100
AcDbEntity
  8
0
 62
7
100
AcDbLine
 10
2.762443
 20
202.000000
 30
0.0
 11
1.257675
 21
182.997000
 31
0.0
  0
LINE
  5
11a
100
AcDbEntity
  8
0
 62
7
100
AcDbLine
 10
1.257675
 20
182.997000
 30
0.0
 11
0.553000
 21
174.098000
 31
0.0
  0
LINE
  5
11b
100
AcDbEntity
  8
0
 62
7
100
AcDbLine
 10
0.553000
 20
174.098000
 30
0.0
 11
-6.549000
 21
146.221001
 31
0.0
  0
LINE
  5
11c
100
AcDbEntity
  8
0
 62
7
100
AcDbLine
 10
-6.549000
 20
146.221001
 30
0.0
 11
-17.611000
 21
124.098000
 31
0.0
  0
LINE
  5
11d
100
AcDbEntity
  8
0
 62
7
100
AcDbLine
 10
-17.611000
 20
124.098000
 30
0.0
 11
-30.466656
 21
110.997002
 31
0.0
  0
LINE
  5
11e
100
AcDbEntity
  8
0
 62
7
100
AcDbLine
 10
-30.466656
 20
110.997002
 30
0.0
 11
-31.549000
 21
109.893997
 31
0.0
  0
LINE
  5
11f
100
AcDbEntity
  8
0
 62
7
100
AcDbLine
 10
-31.549000
 20
109.893997
 30
0.0
 11
-47.000000
 21
105.000000
 31
0.0
  0
LINE
  5
120
100
AcDbEntity
  8
0
 62
7
100
AcDbLine
 10
-47.000000
 20
105.000000
 30
0.0
 11
-61.502998
 21
109.593727
 31
0.0
  0
LINE
  5
121
100
AcDbEntity
  8
0
 62
7
100
AcDbLine
 10
-61.502998
 20
109.593727
 30
0.0
 11
-62.451000
 21
109.893997
 31
0.0
  0
LINE
  5
122
100
AcDbEntity
  8
0
 62
7
100
AcDbLine
 10
-62.451000
 20
109.893997
 30
0.0
 11
-73.502998
 21
121.156921
 31
0.0
  0
LINE
  5
123
100
AcDbEntity
  8
0
 62
7
100
AcDbLine
 10
-73.502998
 20
121.156921
 30
0.0
 11
-76.389000
 21
124.098000
 31
0.0
  0
LINE
  5
124
100
AcDbEntity
  8
0
 62
7
100
AcDbLine
 10
-44.898998
 20
227.452000
 30
0.0
 11
-44.898998
 21
228.002001
 31
0.0
  0
LINE
  5
125
100
AcDbEntity
  8
0
 62
7
100
AcDbLine
 10
-44.898998
 20
228.002001
 30
0.0
 11
-50.101002
 21
228.002001
 31
0.0
  0
LINE
  5
126
100
AcDbEntity
  8
0
 62
7
100
AcDbLine
 10
-50.101002
 20
228.002001
 30
0.0
 11
-50.101002
 21
227.452000
 31
0.0
  0
LINE
  5
127
100
AcDbEntity
  8
0
 62
7
100
AcDbLine
 10
-50.101002
 20
227.452000
 30
0.0
 11
-52.002998
 21
227.452000
 31
0.0
  0
LINE
  5
128
100
AcDbEntity
  8
0
 62
7
100
AcDbLine
 10
-52.002998
 20
227.452000
 30
0.0
 11
-52.002998
 21
214.248000
 31
0.0
  0
LINE
  5
129
100
AcDbEntity
  8
0
 62
7
100
AcDbLine
 10
-52.002998
 20
214.248000
 30
0.0
 11
-50.101002
 21
214.248000
 31
0.0
  0
LINE
  5
12a
100
AcDbEntity
  8
0
 62
7
100
AcDbLine
 10
-50.101002
 20
214.248000
 30
0.0
 11
-50.101002
 21
213.697000
 31
0.0
  0
LINE
  5
12b
100
AcDbEntity
  8
0
 62
7
100
AcDbLine
 10
-50.101002
 20
213.697000
 30
0.0
 11
-44.898998
 21
213.697000
 31
0.0
  0
LINE
  5
12c
100
AcDbEntity
  8
0
 62
7
100
AcDbLine
 10
-44.898998
 20
213.697000
 30
0.0
 11
-44.898998
 21
214.248000
 31
0.0
  0
LINE
  5
12d
100
AcDbEntity
  8
0
 62
7
100
AcDbLine
 10
-44.898998
 20
214.248000
 30
0.0
 11
-42.998001
 21
214.248000
 31
0.0
  0
LINE
  5
12e
100
AcDbEntity
  8
0
 62
7
100
AcDbLine
 10
-42.998001
 20
214.248000
 30
0.0
 11
-42.998001
 21
227.452000
 31
0.0
  0
LINE
  5
12f
100
AcDbEntity
  8
0
 62
7
100
AcDbLine
 10
-42.998001
 20
227.452000
 30
0.0
 11
-44.898998
 21
227.452000
 31
0.0
  0
LINE
  5
130
100
AcDbEntity
  8
0
 62
7
100
AcDbLine
 10
-34.332001
 20
113.777000
 30
0.0
 11
-34.719002
 21
114.164001
 31
0.0
  0
LINE
  5
131
100
AcDbEntity
  8
0
 62
7
100
AcDbLine
 10
-34.719002
 20
114.164001
 30
0.0
 11
-35.207001
 21
114.412003
 31
0.0
  0
LINE
  5
132
100
AcDbEntity
  8
0
 62
7
100
AcDbLine
 10
-35.207001
 20
114.412003
 30
0.0
 11
-35.748001
 21
114.498001
 31
0.0
  0
LINE
  5
133
100
AcDbEntity
  8
0
 62
7
100
AcDbLine
 10
-35.748001
 20
114.498001
 30
0.0
 11
-36.289001
 21
114.412003
 31
0.0
  0
LINE
  5
134
100
AcDbEntity
  8
0
 62
7
100
AcDbLine
 10
-36.289001
 20
114.412003
 30
0.0
 11
-36.777000
 21
114.164001
 31
0.0
  0
LINE
  5
135
100
AcDbEntity
  8
0
 62
7
100
AcDbLine
 10
-36.777000
 20
114.164001
 30
0.0
 11
-37.164001
 21
113.777000
 31
0.0
  0
LINE
  5
136
100
AcDbEntity
  8
0
 62
7
100
AcDbLine
 10
-37.164001
 20
113.777000
 30
0.0
 11
-37.411999
 21
113.289001
 31
0.0
  0
LINE
  5
137
100
AcDbEntity
  8
0
 62
7
100
AcDbLine
 10
-37.411999
 20
113.289001
 30
0.0
 11
-37.498001
 21
112.748001
 31
0.0
  0
LINE
  5
138
100
AcDbEntity
  8
0
 62
7
100
AcDbLine
 10
-37.498001
 20
112.748001
 30
0.0
 11
-37.411999
 21
112.207001
 31
0.0
  0
LINE
  5
139
100
AcDbEntity
  8
0
 62
7
100
AcDbLine
 10
-37.411999
 20
112.207001
 30
0.0
 11
-37.249886
 21
111.888000
 31
0.0
  0
LINE
  5
13a
100
AcDbEntity
  8
0
 62
7
100
AcDbLine
 10
-37.249886
 20
111.888000
 30
0.0
 11
-37.164001
 21
111.719002
 31
0.0
  0
LINE
  5
13b
100
AcDbEntity
  8
0
 62
7
100
AcDbLine
 10
-37.164001
 20
111.719002
 30
0.0
 11
-36.777000
 21
111.332001
 31
0.0
  0
LINE
  5
13c
100
AcDbEntity
  8
0
 62
7
100
AcDbLine
 10
-36.777000
 20
111.332001
 30
0.0
 11
-36.289001
 21
111.084000
 31
0.0
  0
LINE
  5
13d
100
AcDbEntity
  8
0
 62
7
100
AcDbLine
 10
-36.289001
 20
111.084000
 30
0.0
 11
-35.748001
 21
110.997002
 31
0.0
  0
LINE
  5
13e
100
AcDbEntity
  8
0
 62
7
100
AcDbLine
 10
-35.748001
 20
110.997002
 30
0.0
 11
-35.207001
 21
111.084000
 31
0.0
  0
LINE
  5
13f
100
AcDbEntity
  8
0
 62
7
100
AcDbLine
 10
-35.207001
 20
111.084000
 30
0.0
 11
-34.719002
 21
111.332001
 31
0.0
  0
LINE
  5
140
100
AcDbEntity
  8
0
 62
7
100
AcDbLine
 10
-34.719002
 20
111.332001
 30
0.0
 11
-34.332001
 21
111.719002
 31
0.0
  0
LINE
  5
141
100
AcDbEntity
  8
0
 62
7
100
AcDbLine
 10
-34.332001
 20
111.719002
 30
0.0
 11
-34.246117
 21
111.888000
 31
0.0
  0
LINE
  5
142
100
AcDbEntity
  8
0
 62
7
100
AcDbLine
 10
-34.246117
 20
111.888000
 30
0.0
 11
-34.084000
 21
112.207001
 31
0.0
  0
LINE
  5
143
100
AcDbEntity
  8
0
 62
7
100
AcDbLine
 10
-34.084000
 20
112.207001
 30
0.0
 11
-33.998001
 21
112.748001
 31
0.0
  0
LINE
  5
144
100
AcDbEntity
  8
0
 62
7
100
AcDbLine
 10
-33.998001
 20
112.748001
 30
0.0
 11
-34.084000
 21
113.289001
 31
0.0
  0
LINE
  5
145
100
AcDbEntity
  8
0
 62
7
100
AcDbLine
 10
-34.084000
 20
113.289001
 30
0.0
 11
-34.332001
 21
113.777000
 31
0.0
  0
LINE
  5
146
100
AcDbEntity
  8
0
 62
7
100
AcDbLine
 10
-59.751999
 20
114.498001
 30
0.0
 11
-60.292999
 21
114.412003
 31
0.0
  0
LINE
  5
147
100
AcDbEntity
  8
0
 62
7
100
AcDbLine
 10
-60.292999
 20
114.412003
 30
0.0
 11
-60.780998
 21
114.164001
 31
0.0
  0
LINE
  5
148
100
AcDbEntity
  8
0
 62
7
100
AcDbLine
 10
-60.780998
 20
114.164001
 30
0.0
 11
-61.167999
 21
113.777000
 31
0.0
  0
LINE
  5
149
100
AcDbEntity
  8
0
 62
7
100
AcDbLine
 10
-61.167999
 20
113.777000
 30
0.0
 11
-61.416000
 21
113.289001
 31
0.0
  0
LINE
  5
14a
100
AcDbEntity
  8
0
 62
7
100
AcDbLine
 10
-61.416000
 20
113.289001
 30
0.0
 11
-61.502998
 21
112.748001
 31
0.0
  0
LINE
  5
14b
100
AcDbEntity
  8
0
 62
7
100
AcDbLine
 10
-61.502998
 20
112.748001
 30
0.0
 11
-61.416000
 21
112.207001
 31
0.0
  0
LINE
  5
14c
100
AcDbEntity
  8
0
 62
7
100
AcDbLine
 10
-61.416000
 20
112.207001
 30
0.0
 11
-61.253883
 21
111.888000
 31
0.0
  0
LINE
  5
14d
100
AcDbEntity
  8
0
 62
7
100
AcDbLine
 10
-61.253883
 20
111.888000
 30
0.0
 11
-61.167999
 21
111.719002
 31
0.0
  0
LINE
  5
14e
100
AcDbEntity
  8
0
 62
7
100
AcDbLine
 10
-61.167999
 20
111.719002
 30
0.0
 11
-60.780998
 21
111.332001
 31
0.0
  0
LINE
  5
14f
100
AcDbEntity
  8
0
 62
7
100
AcDbLine
 10
-60.780998
 20
111.332001
 30
0.0
 11
-60.292999
 21
111.084000
 31
0.0
  0
LINE
  5
150
100
AcDbEntity
  8
0
 62
7
100
AcDbLine
 10
-60.292999
 20
111.084000
 30
0.0
 11
-59.751999
 21
110.997002
 31
0.0
  0
LINE
  5
151
100
AcDbEntity
  8
0
 62
7
100
AcDbLine
 10
-59.751999
 20
110.997002
 30
0.0
 11
-59.210999
 21
111.084000
 31
0.0
  0
LINE
  5
152
100
AcDbEntity
  8
0
 62
7
100
AcDbLine
 10
-59.210999
 20
111.084000
 30
0.0
 11
-58.723000
 21
111.332001
 31
0.0
  0
LINE
  5
153
100
AcDbEntity
  8
0
 62
7
100
AcDbLine
 10
-58.723000
 20
111.332001
 30
0.0
 11
-58.335999
 21
111.719002
 31
0.0
  0
LINE
  5
154
100
AcDbEntity
  8
0
 62
7
100
AcDbLine
 10
-58.335999
 20
111.719002
 30
0.0
 11
-58.250114
 21
111.888000
 31
0.0
  0
LINE
  5
155
100
AcDbEntity
  8
0
 62
7
100
AcDbLine
 10
-58.250114
 20
111.888000
 30
0.0
 11
-58.088001
 21
112.207001
 31
0.0
  0
LINE
  5
156
100
AcDbEntity
  8
0
 62
7
100
AcDbLine
 10
-58.088001
 20
112.207001
 30
0.0
 11
-58.001999
 21
112.748001
 31
0.0
  0
LINE
  5
157
100
AcDbEntity
  8
0
 62
7
100
AcDbLine
 10
-58.001999
 20
112.748001
 30
0.0
 11
-58.088001
 21
113.289001
 31
0.0
  0
LINE
  5
158
100
AcDbEntity
  8
0
 62
7
100
AcDbLine
 10
-58.088001
 20
113.289001
 30
0.0
 11
-58.335999
 21
113.777000
 31
0.0
  0
LINE
  5
159
100
AcDbEntity
  8
0
 62
7
100
AcDbLine
 10
-58.335999
 20
113.777000
 30
0.0
 11
-58.723000
 21
114.164001
 31
0.0
  0
LINE
  5
15a
100
AcDbEntity
  8
0
 62
7
100
AcDbLine
 10
-58.723000
 20
114.164001
 30
0.0
 11
-59.210999
 21
114.412003
 31
0.0
  0
LINE
  5
15b
100
AcDbEntity
  8
0
 62
7
100
AcDbLine
 10
-59.210999
 20
114.412003
 30
0.0
 11
-59.751999
 21
114.498001
 31
0.0
  0
LINE
  5
15c
100
AcDbEntity
  8
0
 62
7
100
AcDbLine
 10
-58.088001
 20
144.292999
 30
0.0
 11
-58.272476
 21
144.655998
 31
0.0
  0
LINE
  5
15d
100
AcDbEntity
  8
0
 62
7
100
AcDbLine
 10
-58.272476
 20
144.655998
 30
0.0
 11
-58.335999
 21
144.780998
 31
0.0
  0
LINE
  5
15e
100
AcDbEntity
  8
0
 62
7
100
AcDbLine
 10
-58.335999
 20
144.780998
 30
0.0
 11
-58.723000
 21
145.167999
 31
0.0
  0
LINE
  5
15f
100
AcDbEntity
  8
0
 62
7
100
AcDbLine
 10
-58.723000
 20
145.167999
 30
0.0
 11
-59.210999
 21
145.416000
 31
0.0
  0
LINE
  5
160
100
AcDbEntity
  8
0
 62
7
100
AcDbLine
 10
-59.210999
 20
145.416000
 30
0.0
 11
-59.751999
 21
145.502998
 31
0.0
  0
LINE
  5
161
100
AcDbEntity
  8
0
 62
7
100
AcDbLine
 10
-59.751999
 20
145.502998
 30
0.0
 11
-60.292999
 21
145.416000
 31
0.0
  0
LINE
  5
162
100
AcDbEntity
  8
0
 62
7
100
AcDbLine
 10
-60.292999
 20
145.416000
 30
0.0
 11
-60.780998
 21
145.167999
 31
0.0
  0
LINE
  5
163
100
AcDbEntity
  8
0
 62
7
100
AcDbLine
 10
-60.780998
 20
145.167999
 30
0.0
 11
-61.167999
 21
144.780998
 31
0.0
  0
LINE
  5
164
100
AcDbEntity
  8
0
 62
7
100
AcDbLine
 10
-61.167999
 20
144.780998
 30
0.0
 11
-61.231525
 21
144.655998
 31
0.0
  0
LINE
  5
165
100
AcDbEntity
  8
0
 62
7
100
AcDbLine
 10
-61.231525
 20
144.655998
 30
0.0
 11
-61.416000
 21
144.292999
 31
0.0
  0
LINE
  5
166
100
AcDbEntity
  8
0
 62
7
100
AcDbLine
 10
-61.416000
 20
144.292999
 30
0.0
 11
-61.502998
 21
143.751999
 31
0.0
  0
LINE
  5
167
100
AcDbEntity
  8
0
 62
7
100
AcDbLine
 10
-61.502998
 20
143.751999
 30
0.0
 11
-61.416000
 21
143.210999
 31
0.0
  0
LINE
  5
168
100
AcDbEntity
  8
0
 62
7
100
AcDbLine
 10
-61.416000
 20
143.210999
 30
0.0
 11
-61.167999
 21
142.723000
 31
0.0
  0
LINE
  5
169
100
AcDbEntity
  8
0
 62
7
100
AcDbLine
 10
-61.167999
 20
142.723000
 30
0.0
 11
-60.780998
 21
142.335999
 31
0.0
  0
LINE
  5
16a
100
AcDbEntity
  8
0
 62
7
100
AcDbLine
 10
-60.780998
 20
142.335999
 30
0.0
 11
-60.292999
 21
142.088001
 31
0.0
  0
LINE
  5
16b
100
AcDbEntity
  8
0
 62
7
100
AcDbLine
 10
-60.292999
 20
142.088001
 30
0.0
 11
-59.751999
 21
142.001999
 31
0.0
  0
LINE
  5
16c
100
AcDbEntity
  8
0
 62
7
100
AcDbLine
 10
-59.751999
 20
142.001999
 30
0.0
 11
-59.210999
 21
142.088001
 31
0.0
  0
LINE
  5
16d
100
AcDbEntity
  8
0
 62
7
100
AcDbLine
 10
-59.210999
 20
142.088001
 30
0.0
 11
-58.723000
 21
142.335999
 31
0.0
  0
LINE
  5
16e
100
AcDbEntity
  8
0
 62
7
100
AcDbLine
 10
-58.723000
 20
142.335999
 30
0.0
 11
-58.335999
 21
142.723000
 31
0.0
  0
LINE
  5
16f
100
AcDbEntity
  8
0
 62
7
100
AcDbLine
 10
-58.335999
 20
142.723000
 30
0.0
 11
-58.088001
 21
143.210999
 31
0.0
  0
LINE
  5
170
100
AcDbEntity
  8
0
 62
7
100
AcDbLine
 10
-58.088001
 20
143.210999
 30
0.0
 11
-58.001999
 21
143.751999
 31
0.0
  0
LINE
  5
171
100
AcDbEntity
  8
0
 62
7
100
AcDbLine
 10
-58.001999
 20
143.751999
 30
0.0
 11
-58.088001
 21
144.292999
 31
0.0
  0
LINE
  5
172
100
AcDbEntity
  8
0
 62
7
100
AcDbLine
 10
-79.930000
 20
265.965000
 30
0.0
 11
-80.002998
 21
265.500000
 31
0.0
  0
LINE
  5
173
100
AcDbEntity
  8
0
 62
7
100
AcDbLine
 10
-80.002998
 20
265.500000
 30
0.0
 11
-79.930000
 21
265.035000
 31
0.0
  0
LINE
  5
174
100
AcDbEntity
  8
0
 62
7
100
AcDbLine
 10
-79.930000
 20
265.035000
 30
0.0
 11
-79.716003
 21
264.617001
 31
0.0
  0
LINE
  5
175
100
AcDbEntity
  8
0
 62
7
100
AcDbLine
 10
-79.716003
 20
264.617001
 30
0.0
 11
-79.384003
 21
264.284000
 31
0.0
  0
LINE
  5
176
100
AcDbEntity
  8
0
 62
7
100
AcDbLine
 10
-79.384003
 20
264.284000
 30
0.0
 11
-78.966003
 21
264.070999
 31
0.0
  0
LINE
  5
177
100
AcDbEntity
  8
0
 62
7
100
AcDbLine
 10
-78.966003
 20
264.070999
 30
0.0
 11
-78.501999
 21
263.998001
 31
0.0
  0
LINE
  5
178
100
AcDbEntity
  8
0
 62
7
100
AcDbLine
 10
-78.501999
 20
263.998001
 30
0.0
 11
-69.297997
 21
263.998001
 31
0.0
  0
LINE
  5
179
100
AcDbEntity
  8
0
 62
7
100
AcDbLine
 10
-69.297997
 20
263.998001
 30
0.0
 11
-52.002998
 21
263.998001
 31
0.0
  0
LINE
  5
17a
100
AcDbEntity
  8
0
 62
7
100
AcDbLine
 10
-52.002998
 20
263.998001
 30
0.0
 11
-42.998001
 21
263.998001
 31
0.0
  0
LINE
  5
17b
100
AcDbEntity
  8
0
 62
7
100
AcDbLine
 10
-42.998001
 20
263.998001
 30
0.0
 11
-16.997999
 21
263.998001
 31
0.0
  0
LINE
  5
17c
100
AcDbEntity
  8
0
 62
7
100
AcDbLine
 10
-16.997999
 20
263.998001
 30
0.0
 11
-16.497999
 21
263.998001
 31
0.0
  0
LINE
  5
17d
100
AcDbEntity
  8
0
 62
7
100
AcDbLine
 10
-16.497999
 20
263.998001
 30
0.0
 11
-16.034000
 21
264.070999
 31
0.0
  0
LINE
  5
17e
100
AcDbEntity
  8
0
 62
7
100
AcDbLine
 10
-16.034000
 20
264.070999
 30
0.0
 11
-15.616000
 21
264.284000
 31
0.0
  0
LINE
  5
17f
100
AcDbEntity
  8
0
 62
7
100
AcDbLine
 10
-15.616000
 20
264.284000
 30
0.0
 11
-15.284000
 21
264.617001
 31
0.0
  0
LINE
  5
180
100
AcDbEntity
  8
0
 62
7
100
AcDbLine
 10
-15.284000
 20
264.617001
 30
0.0
 11
-15.071000
 21
265.035000
 31
0.0
  0
LINE
  5
181
100
AcDbEntity
  8
0
 62
7
100
AcDbLine
 10
-15.071000
 20
265.035000
 30
0.0
 11
-14.998000
 21
265.500000
 31
0.0
  0
LINE
  5
182
100
AcDbEntity
  8
0
 62
7
100
AcDbLine
 10
-14.998000
 20
265.500000
 30
0.0
 11
-15.071000
 21
265.965000
 31
0.0
  0
LINE
  5
183
100
AcDbEntity
  8
0
 62
7
100
AcDbLine
 10
-15.071000
 20
265.965000
 30
0.0
 11
-15.284000
 21
266.383003
 31
0.0
  0
LINE
  5
184
100
AcDbEntity
  8
0
 62
7
100
AcDbLine
 10
-15.284000
 20
266.383003
 30
0.0
 11
-15.616000
 21
266.716003
 31
0.0
  0
LINE
  5
185
100
AcDbEntity
  8
0
 62
7
100
AcDbLine
 10
-15.616000
 20
266.716003
 30
0.0
 11
-16.034000
 21
266.929001
 31
0.0
  0
LINE
  5
186
100
AcDbEntity
  8
0
 62
7
100
AcDbLine
 10
-16.034000
 20
266.929001
 30
0.0
 11
-16.497999
 21
267.002998
 31
0.0
  0
LINE
  5
187
100
AcDbEntity
  8
0
 62
7
100
AcDbLine
 10
-16.497999
 20
267.002998
 30
0.0
 11
-42.998001
 21
267.002998
 31
0.0
  0
LINE
  5
188
100
AcDbEntity
  8
0
 62
7
100
AcDbLine
 10
-42.998001
 20
267.002998
 30
0.0
 11
-52.002998
 21
267.002998
 31
0.0
  0
LINE
  5
189
100
AcDbEntity
  8
0
 62
7
100
AcDbLine
 10
-52.002998
 20
267.002998
 30
0.0
 11
-69.297997
 21
267.002998
 31
0.0
  0
LINE
  5
18a
100
AcDbEntity
  8
0
 62
7
100
AcDbLine
 10
-69.297997
 20
267.002998
 30
0.0
 11
-78.501999
 21
267.002998
 31
0.0
  0
LINE
  5
18b
100
AcDbEntity
  8
0
 62
7
100
AcDbLine
 10
-78.501999
 20
267.002998
 30
0.0
 11
-78.966003
 21
266.929001
 31
0.0
  0
LINE
  5
18c
100
AcDbEntity
  8
0
 62
7
100
AcDbLine
 10
-78.966003
 20
266.929001
 30
0.0
 11
-79.384003
 21
266.716003
 31
0.0
  0
LINE
  5
18d
100
AcDbEntity
  8
0
 62
7
100
AcDbLine
 10
-79.384003
 20
266.716003
 30
0.0
 11
-79.716003
 21
266.383003
 31
0.0
  0
LINE
  5
18e
100
AcDbEntity
  8
0
 62
7
100
AcDbLine
 10
-79.716003
 20
266.383003
 30
0.0
 11
-79.930000
 21
265.965000
 31
0.0
  0
LINE
  5
18f
100
AcDbEntity
  8
0
 62
7
100
AcDbLine
 10
-36.777000
 20
145.167999
 30
0.0
 11
-37.164001
 21
144.780998
 31
0.0
  0
LINE
  5
190
100
AcDbEntity
  8
0
 62
7
100
AcDbLine
 10
-37.164001
 20
144.780998
 30
0.0
 11
-37.227524
 21
144.655998
 31
0.0
  0
LINE
  5
191
100
AcDbEntity
  8
0
 62
7
100
AcDbLine
 10
-37.227524
 20
144.655998
 30
0.0
 11
-37.411999
 21
144.292999
 31
0.0
  0
LINE
  5
192
100
AcDbEntity
  8
0
 62
7
100
AcDbLine
 10
-37.411999
 20
144.292999
 30
0.0
 11
-37.498001
 21
143.751999
 31
0.0
  0
LINE
  5
193
100
AcDbEntity
  8
0
 62
7
100
AcDbLine
 10
-37.498001
 20
143.751999
 30
0.0
 11
-37.411999
 21
143.210999
 31
0.0
  0
LINE
  5
194
100
AcDbEntity
  8
0
 62
7
100
AcDbLine
 10
-37.411999
 20
143.210999
 30
0.0
 11
-37.164001
 21
142.723000
 31
0.0
  0
LINE
  5
195
100
AcDbEntity
  8
0
 62
7
100
AcDbLine
 10
-37.164001
 20
142.723000
 30
0.0
 11
-36.777000
 21
142.335999
 31
0.0
  0
LINE
  5
196
100
AcDbEntity
  8
0
 62
7
100
AcDbLine
 10
-36.777000
 20
142.335999
 30
0.0
 11
-36.289001
 21
142.088001
 31
0.0
  0
LINE
  5
197
100
AcDbEntity
  8
0
 62
7
100
AcDbLine
 10
-36.289001
 20
142.088001
 30
0.0
 11
-35.748001
 21
142.001999
 31
0.0
  0
LINE
  5
198
100
AcDbEntity
  8
0
 62
7
100
AcDbLine
 10
-35.748001
 20
142.001999
 30
0.0
 11
-35.207001
 21
142.088001
 31
0.0
  0
LINE
  5
199
100
AcDbEntity
  8
0
 62
7
100
AcDbLine
 10
-35.207001
 20
142.088001
 30
0.0
 11
-34.719002
 21
142.335999
 31
0.0
  0
LINE
  5
19a
100
AcDbEntity
  8
0
 62
7
100
AcDbLine
 10
-34.719002
 20
142.335999
 30
0.0
 11
-34.332001
 21
142.723000
 31
0.0
  0
LINE
  5
19b
100
AcDbEntity
  8
0
 62
7
100
AcDbLine
 10
-34.332001
 20
142.723000
 30
0.0
 11
-34.084000
 21
143.210999
 31
0.0
  0
LINE
  5
19c
100
AcDbEntity
  8
0
 62
7
100
AcDbLine
 10
-34.084000
 20
143.210999
 30
0.0
 11
-33.998001
 21
143.751999
 31
0.0
  0
LINE
  5
19d
100
AcDbEntity
  8
0
 62
7
100
AcDbLine
 10
-33.998001
 20
143.751999
 30
0.0
 11
-34.084000
 21
144.292999
 31
0.0
  0
LINE
  5
19e
100
AcDbEntity
  8
0
 62
7
100
AcDbLine
 10
-34.084000
 20
144.292999
 30
0.0
 11
-34.268475
 21
144.655998
 31
0.0
  0
LINE
  5
19f
100
AcDbEntity
  8
0
 62
7
100
AcDbLine
 10
-34.268475
 20
144.655998
 30
0.0
 11
-34.332001
 21
144.780998
 31
0.0
  0
LINE
  5
1a0
100
AcDbEntity
  8
0
 62
7
100
AcDbLine
 10
-34.332001
 20
144.780998
 30
0.0
 11
-34.719002
 21
145.167999
 31
0.0
  0
LINE
  5
1a1
100
AcDbEntity
  8
0
 62
7
100
AcDbLine
 10
-34.719002
 20
145.167999
 30
0.0
 11
-35.207001
 21
145.416000
 31
0.0
  0
LINE
  5
1a2
100
AcDbEntity
  8
0
 62
7
100
AcDbLine
 10
-35.207001
 20
145.416000
 30
0.0
 11
-35.748001
 21
145.502998
 31
0.0
  0
LINE
  5
1a3
100
AcDbEntity
  8
0
 62
7
100
AcDbLine
 10
-35.748001
 20
145.502998
 30
0.0
 11
-36.289001
 21
145.416000
 31
0.0
  0
LINE
  5
1a4
100
AcDbEntity
  8
0
 62
7
100
AcDbLine
 10
-36.289001
 20
145.416000
 30
0.0
 11
-36.777000
 21
145.167999
 31
0.0
  0
LINE
  5
1a5
100
AcDbEntity
  8
0
 62
7
100
AcDbLine
 10
-60.556000
 20
187.392000
 30
0.0
 11
-61.250999
 21
187.503000
 31
0.0
  0
LINE
  5
1a6
100
AcDbEntity
  8
0
 62
7
100
AcDbLine
 10
-61.250999
 20
187.503000
 30
0.0
 11
-61.502998
 21
187.503000
 31
0.0
  0
LINE
  5
1a7
100
AcDbEntity
  8
0
 62
7
100
AcDbLine
 10
-61.502998
 20
187.503000
 30
0.0
 11
-65.536003
 21
187.503000
 31
0.0
  0
LINE
  5
1a8
100
AcDbEntity
  8
0
 62
7
100
AcDbLine
 10
-65.536003
 20
187.503000
 30
0.0
 11
-71.251999
 21
187.503000
 31
0.0
  0
LINE
  5
1a9
100
AcDbEntity
  8
0
 62
7
100
AcDbLine
 10
-71.251999
 20
187.503000
 30
0.0
 11
-71.946999
 21
187.392000
 31
0.0
  0
LINE
  5
1aa
100
AcDbEntity
  8
0
 62
7
100
AcDbLine
 10
-71.946999
 20
187.392000
 30
0.0
 11
-72.574997
 21
187.072000
 31
0.0
  0
LINE
  5
1ab
100
AcDbEntity
  8
0
 62
7
100
AcDbLine
 10
-72.574997
 20
187.072000
 30
0.0
 11
-73.071999
 21
186.574000
 31
0.0
  0
LINE
  5
1ac
100
AcDbEntity
  8
0
 62
7
100
AcDbLine
 10
-73.071999
 20
186.574000
 30
0.0
 11
-73.391998
 21
185.945999
 31
0.0
  0
LINE
  5
1ad
100
AcDbEntity
  8
0
 62
7
100
AcDbLine
 10
-73.391998
 20
185.945999
 30
0.0
 11
-73.502998
 21
185.250000
 31
0.0
  0
LINE
  5
1ae
100
AcDbEntity
  8
0
 62
7
100
AcDbLine
 10
-73.502998
 20
185.250000
 30
0.0
 11
-73.391998
 21
184.554001
 31
0.0
  0
LINE
  5
1af
100
AcDbEntity
  8
0
 62
7
100
AcDbLine
 10
-73.391998
 20
184.554001
 30
0.0
 11
-73.071999
 21
183.926001
 31
0.0
  0
LINE
  5
1b0
100
AcDbEntity
  8
0
 62
7
100
AcDbLine
 10
-73.071999
 20
183.926001
 30
0.0
 11
-72.574997
 21
183.428000
 31
0.0
  0
LINE
  5
1b1
100
AcDbEntity
  8
0
 62
7
100
AcDbLine
 10
-72.574997
 20
183.428000
 30
0.0
 11
-71.946999
 21
183.108000
 31
0.0
  0
LINE
  5
1b2
100
AcDbEntity
  8
0
 62
7
100
AcDbLine
 10
-71.946999
 20
183.108000
 30
0.0
 11
-71.251999
 21
182.997000
 31
0.0
  0
LINE
  5
1b3
100
AcDbEntity
  8
0
 62
7
100
AcDbLine
 10
-71.251999
 20
182.997000
 30
0.0
 11
-65.536003
 21
182.997000
 31
0.0
  0
LINE
  5
1b4
100
AcDbEntity
  8
0
 62
7
100
AcDbLine
 10
-65.536003
 20
182.997000
 30
0.0
 11
-61.502998
 21
182.997000
 31
0.0
  0
LINE
  5
1b5
100
AcDbEntity
  8
0
 62
7
100
AcDbLine
 10
-61.502998
 20
182.997000
 30
0.0
 11
-61.250999
 21
182.997000
 31
0.0
  0
LINE
  5
1b6
100
AcDbEntity
  8
0
 62
7
100
AcDbLine
 10
-61.250999
 20
182.997000
 30
0.0
 11
-60.556000
 21
183.108000
 31
0.0
  0
LINE
  5
1b7
100
AcDbEntity
  8
0
 62
7
100
AcDbLine
 10
-60.556000
 20
183.108000
 30
0.0
 11
-59.928001
 21
183.428000
 31
0.0
  0
LINE
  5
1b8
100
AcDbEntity
  8
0
 62
7
100
AcDbLine
 10
-59.928001
 20
183.428000
 30
0.0
 11
-59.431000
 21
183.926001
 31
0.0
  0
LINE
  5
1b9
100
AcDbEntity
  8
0
 62
7
100
AcDbLine
 10
-59.431000
 20
183.926001
 30
0.0
 11
-59.111000
 21
184.554001
 31
0.0
  0
LINE
  5
1ba
100
AcDbEntity
  8
0
 62
7
100
AcDbLine
 10
-59.111000
 20
184.554001
 30
0.0
 11
-59.000999
 21
185.250000
 31
0.0
  0
LINE
  5
1bb
100
AcDbEntity
  8
0
 62
7
100
AcDbLine
 10
-59.000999
 20
185.250000
 30
0.0
 11
-59.111000
 21
185.945999
 31
0.0
  0
LINE
  5
1bc
100
AcDbEntity
  8
0
 62
7
100
AcDbLine
 10
-59.111000
 20
185.945999
 30
0.0
 11
-59.431000
 21
186.574000
 31
0.0
  0
LINE
  5
1bd
100
AcDbEntity
  8
0
 62
7
100
AcDbLine
 10
-59.431000
 20
186.574000
 30
0.0
 11
-59.928001
 21
187.072000
 31
0.0
  0
LINE
  5
1be
100
AcDbEntity
  8
0
 62
7
100
AcDbLine
 10
-59.928001
 20
187.072000
 30
0.0
 11
-60.556000
 21
187.392000
 31
0.0
  0
LINE
  5
1bf
100
AcDbEntity
  8
0
 62
7
100
AcDbLine
 10
-20.108000
 20
184.554001
 30
0.0
 11
-19.997999
 21
185.250000
 31
0.0
  0
LINE
  5
1c0
100
AcDbEntity
  8
0
 62
7
100
AcDbLine
 10
-19.997999
 20
185.250000
 30
0.0
 11
-20.108000
 21
185.945999
 31
0.0
  0
LINE
  5
1c1
100
AcDbEntity
  8
0
 62
7
100
AcDbLine
 10
-20.108000
 20
185.945999
 30
0.0
 11
-20.427999
 21
186.574000
 31
0.0
  0
LINE
  5
1c2
100
AcDbEntity
  8
0
 62
7
100
AcDbLine
 10
-20.427999
 20
186.574000
 30
0.0
 11
-20.924999
 21
187.072000
 31
0.0
  0
LINE
  5
1c3
100
AcDbEntity
  8
0
 62
7
100
AcDbLine
 10
-20.924999
 20
187.072000
 30
0.0
 11
-21.552999
 21
187.392000
 31
0.0
  0
LINE
  5
1c4
100
AcDbEntity
  8
0
 62
7
100
AcDbLine
 10
-21.552999
 20
187.392000
 30
0.0
 11
-22.247999
 21
187.503000
 31
0.0
  0
LINE
  5
1c5
100
AcDbEntity
  8
0
 62
7
100
AcDbLine
 10
-22.247999
 20
187.503000
 30
0.0
 11
-32.249001
 21
187.503000
 31
0.0
  0
LINE
  5
1c6
100
AcDbEntity
  8
0
 62
7
100
AcDbLine
 10
-32.249001
 20
187.503000
 30
0.0
 11
-32.768002
 21
187.420110
 31
0.0
  0
LINE
  5
1c7
100
AcDbEntity
  8
0
 62
7
100
AcDbLine
 10
-32.768002
 20
187.420110
 30
0.0
 11
-32.944000
 21
187.392000
 31
0.0
  0
LINE
  5
1c8
100
AcDbEntity
  8
0
 62
7
100
AcDbLine
 10
-32.944000
 20
187.392000
 30
0.0
 11
-33.571999
 21
187.072000
 31
0.0
  0
LINE
  5
1c9
100
AcDbEntity
  8
0
 62
7
100
AcDbLine
 10
-33.571999
 20
187.072000
 30
0.0
 11
-33.998001
 21
186.645143
 31
0.0
  0
LINE
  5
1ca
100
AcDbEntity
  8
0
 62
7
100
AcDbLine
 10
-33.998001
 20
186.645143
 30
0.0
 11
-34.069000
 21
186.574000
 31
0.0
  0
LINE
  5
1cb
100
AcDbEntity
  8
0
 62
7
100
AcDbLine
 10
-34.069000
 20
186.574000
 30
0.0
 11
-34.389000
 21
185.945999
 31
0.0
  0
LINE
  5
1cc
100
AcDbEntity
  8
0
 62
7
100
AcDbLine
 10
-34.389000
 20
185.945999
 30
0.0
 11
-34.499001
 21
185.250000
 31
0.0
  0
LINE
  5
1cd
100
AcDbEntity
  8
0
 62
7
100
AcDbLine
 10
-34.499001
 20
185.250000
 30
0.0
 11
-34.389000
 21
184.554001
 31
0.0
  0
LINE
  5
1ce
100
AcDbEntity
  8
0
 62
7
100
AcDbLine
 10
-34.389000
 20
184.554001
 30
0.0
 11
-34.069000
 21
183.926001
 31
0.0
  0
LINE
  5
1cf
100
AcDbEntity
  8
0
 62
7
100
AcDbLine
 10
-34.069000
 20
183.926001
 30
0.0
 11
-33.998001
 21
183.854856
 31
0.0
  0
LINE
  5
1d0
100
AcDbEntity
  8
0
 62
7
100
AcDbLine
 10
-33.998001
 20
183.854856
 30
0.0
 11
-33.571999
 21
183.428000
 31
0.0
  0
LINE
  5
1d1
100
AcDbEntity
  8
0
 62
7
100
AcDbLine
 10
-33.571999
 20
183.428000
 30
0.0
 11
-32.944000
 21
183.108000
 31
0.0
  0
LINE
  5
1d2
100
AcDbEntity
  8
0
 62
7
100
AcDbLine
 10
-32.944000
 20
183.108000
 30
0.0
 11
-32.768002
 21
183.079891
 31
0.0
  0
LINE
  5
1d3
100
AcDbEntity
  8
0
 62
7
100
AcDbLine
 10
-32.768002
 20
183.079891
 30
0.0
 11
-32.249001
 21
182.997000
 31
0.0
  0
LINE
  5
1d4
100
AcDbEntity
  8
0
 62
7
100
AcDbLine
 10
-32.249001
 20
182.997000
 30
0.0
 11
-22.247999
 21
182.997000
 31
0.0
  0
LINE
  5
1d5
100
AcDbEntity
  8
0
 62
7
100
AcDbLine
 10
-22.247999
 20
182.997000
 30
0.0
 11
-21.552999
 21
183.108000
 31
0.0
  0
LINE
  5
1d6
100
AcDbEntity
  8
0
 62
7
100
AcDbLine
 10
-21.552999
 20
183.108000
 30
0.0
 11
-20.924999
 21
183.428000
 31
0.0
  0
LINE
  5
1d7
100
AcDbEntity
  8
0
 62
7
100
AcDbLine
 10
-20.924999
 20
183.428000
 30
0.0
 11
-20.427999
 21
183.926001
 31
0.0
  0
LINE
  5
1d8
100
AcDbEntity
  8
0
 62
7
100
AcDbLine
 10
-20.427999
 20
183.926001
 30
0.0
 11
-20.108000
 21
184.554001
 31
0.0
  0
LINE
  5
1d9
100
AcDbEntity
  8
0
 62
7
100
AcDbLine
 10
-91.601997
 20
214.398000
 30
0.0
 11
-91.601997
 21
227.003000
 31
0.0
  0
LINE
  5
1da
100
AcDbEntity
  8
0
 62
7
100
AcDbLine
 10
-91.601997
 20
227.003000
 30
0.0
 11
-95.002998
 21
227.003000
 31
0.0
  0
LINE
  5
1db
100
AcDbEntity
  8
0
 62
7
100
AcDbLine
 10
-95.002998
 20
227.003000
 30
0.0
 11
-95.002998
 21
214.398000
 31
0.0
  0
LINE
  5
1dc
100
AcDbEntity
  8
0
 62
7
100
AcDbLine
 10
-95.002998
 20
214.398000
 30
0.0
 11
-91.601997
 21
214.398000
 31
0.0
  0
LINE
  5
1dd
100
AcDbEntity
  8
0
 62
7
100
AcDbLine
 10
1.002000
 20
227.603001
 30
0.0
 11
-2.398000
 21
227.603001
 31
0.0
  0
LINE
  5
1de
100
AcDbEntity
  8
0
 62
7
100
AcDbLine
 10
-2.398000
 20
227.603001
 30
0.0
 11
-2.398000
 21
214.998000
 31
0.0
  0
LINE
  5
1df
100
AcDbEntity
  8
0
 62
7
100
AcDbLine
 10
-2.398000
 20
214.998000
 30
0.0
 11
1.002000
 21
214.998000
 31
0.0
  0
LINE
  5
1e0
100
AcDbEntity
  8
0
 62
7
100
AcDbLine
 10
1.002000
 20
214.998000
 30
0.0
 11
1.002000
 21
227.603001
 31
0.0
  0
LINE
  5
1e1
100
AcDbEntity
  8
0
 62
7
100
AcDbLine
 10
-21.302000
 20
227.603001
 30
0.0
 11
-24.702999
 21
227.603001
 31
0.0
  0
LINE
  5
1e2
100
AcDbEntity
  8
0
 62
7
100
AcDbLine
 10
-24.702999
 20
227.603001
 30
0.0
 11
-24.702999
 21
214.998000
 31
0.0
  0
LINE
  5
1e3
100
AcDbEntity
  8
0
 62
7
100
AcDbLine
 10
-24.702999
 20
214.998000
 30
0.0
 11
-21.302000
 21
214.998000
 31
0.0
  0
LINE
  5
1e4
100
AcDbEntity
  8
0
 62
7
100
AcDbLine
 10
-21.302000
 20
214.998000
 30
0.0
 11
-21.302000
 21
227.603001
 31
0.0
  0
LINE
  5
1e5
100
AcDbEntity
  8
0
 62
7
100
AcDbLine
 10
-83.002998
 20
245.998001
 30
0.0
 11
-80.002998
 21
245.998001
 31
0.0
  0
LINE
  5
1e6
100
AcDbEntity
  8
0
 62
7
100
AcDbLine
 10
-80.002998
 20
245.998001
 30
0.0
 11
-79.001999
 21
245.998001
 31
0.0
  0
LINE
  5
1e7
100
AcDbEntity
  8
0
 62
7
100
AcDbLine
 10
-79.001999
 20
245.998001
 30
0.0
 11
-79.001999
 21
254.002998
 31
0.0
  0
LINE
  5
1e8
100
AcDbEntity
  8
0
 62
7
100
AcDbLine
 10
-79.001999
 20
254.002998
 30
0.0
 11
-80.002998
 21
254.002998
 31
0.0
  0
LINE
  5
1e9
100
AcDbEntity
  8
0
 62
7
100
AcDbLine
 10
-80.002998
 20
254.002998
 30
0.0
 11
-83.002998
 21
254.002998
 31
0.0
  0
LINE
  5
1ea
100
AcDbEntity
  8
0
 62
7
100
AcDbLine
 10
-83.002998
 20
254.002998
 30
0.0
 11
-83.002998
 21
245.998001
 31
0.0
  0
LINE
  5
1eb
100
AcDbEntity
  8
0
 62
7
100
AcDbLine
 10
-12.998000
 20
254.002998
 30
0.0
 11
-16.997999
 21
254.002998
 31
0.0
  0
LINE
  5
1ec
100
AcDbEntity
  8
0
 62
7
100
AcDbLine
 10
-16.997999
 20
254.002998
 30
0.0
 11
-16.997999
 21
245.998001
 31
0.0
  0
LINE
  5
1ed
100
AcDbEntity
  8
0
 62
7
100
AcDbLine
 10
-16.997999
 20
245.998001
 30
0.0
 11
-12.998000
 21
245.998001
 31
0.0
  0
LINE
  5
1ee
100
AcDbEntity
  8
0
 62
7
100
AcDbLine
 10
-12.998000
 20
245.998001
 30
0.0
 11
-12.998000
 21
254.002998
 31
0.0
  0
LINE
  5
1ef
100
AcDbEntity
  8
0
 62
7
100
AcDbLine
 10
-69.297997
 20
214.398000
 30
0.0
 11
-69.297997
 21
227.003000
 31
0.0
  0
LINE
  5
1f0
100
AcDbEntity
  8
0
 62
7
100
AcDbLine
 10
-69.297997
 20
227.003000
 30
0.0
 11
-72.697998
 21
227.003000
 31
0.0
  0
LINE
  5
1f1
100
AcDbEntity
  8
0
 62
7
100
AcDbLine
 10
-72.697998
 20
227.003000
 30
0.0
 11
-72.697998
 21
214.398000
 31
0.0
  0
LINE
  5
1f2
100
AcDbEntity
  8
0
 62
7
100
AcDbLine
 10
-72.697998
 20
214.398000
 30
0.0
 11
-69.297997
 21
214.398000
 31
0.0
  0
LINE
  5
1f3
100
AcDbEntity
  8
0
 62
7
100
AcDbLine
 10
-69.297997
 20
214.398000
 30
0.0
 11
-69.297997
 21
214.398000
 31
0.0
  0
ENDSEC
  0
SECTION
  2
OBJECTS
  0
DICTIONARY
  5
C
330
0
100
AcDbDictionary
  3
ACAD_GROUP
350
D
  3
ACAD_MLINESTYLE
350
17
  0
DICTIONARY
  5
D
330
C
100
AcDbDictionary
  0
DICTIONARY
  5
1A
330
C
100
AcDbDictionary
  0
DICTIONARY
  5
17
330
C
100
AcDbDictionary
  3
STANDARD
350
18
  0
DICTIONARY
  5
19
330
C
100
AcDbDictionary
  0
ENDSEC
  0
EOF
