<?xml version="1.0" standalone="no"?>
<!DOCTYPE svg PUBLIC "-//W3C//DTD SVG 1.1//EN"
  "http://www.w3.org/Graphics/SVG/1.1/DTD/svg11.dtd">
<svg width="102mm" height="202mm" viewBox="-98 -104 102 202" xmlns="http://www.w3.org/2000/svg" version="1.1">
	<title>svgOutput</title>
	<desc>made with tinkercad</desc>
<path d="M -76.38899993896484 77.9020004272461 L -87.45099639892578 55.77899932861328 L -94.5530014038086 27.902000427246094 L -96.76244354248047 1.1102230246251565e-16 L -97 -3 L -95.25767517089844 -25.003000259399414 L -94.5530014038086 -33.902000427246094 L -87.45099639892578 -61.77899932861328 L -83.00299835205078 -70.67459869384766 L -80.00299835205078 -76.67432403564453 L -76.38899993896484 -83.9020004272461 L -69.2979965209961 -91.12832641601562 L -62.45100021362305 -98.10600280761719 L -52.00299835205078 -101.41533660888672 L -47 -103 L -42.99800109863281 -101.73239135742188 L -31.548999786376953 -98.10600280761719 L -17.611000061035156 -83.9020004272461 L -14.998000144958496 -78.67623901367188 L -6.658504962921143 -61.99800109863281 L -6.548999786376953 -61.77899932861328 L 0.5529999732971191 -33.902000427246094 L 1.0019999742507935 -28.231792449951172 L 2.3113210201263428 -11.696999549865723 L 3 -3 L 2.7624425888061523 1.1102230246251565e-16 L 1.2576745748519897 19.003000259399414 L 0.5529999732971191 27.902000427246094 L -6.548999786376953 55.77899932861328 L -17.611000061035156 77.9020004272461 L -30.466655731201172 91.00299835205078 L -31.548999786376953 92.10600280761719 L -47 97 L -61.50299835205078 92.4062728881836 L -62.45100021362305 92.10600280761719 L -73.50299835205078 80.84307861328125 L -76.38899993896484 77.9020004272461 M -44.89899826049805 -25.45199966430664 L -44.89899826049805 -26.00200080871582 L -50.10100173950195 -26.00200080871582 L -50.10100173950195 -25.45199966430664 L -52.00299835205078 -25.45199966430664 L -52.00299835205078 -12.248000144958496 L -50.10100173950195 -12.248000144958496 L -50.10100173950195 -11.696999549865723 L -44.89899826049805 -11.696999549865723 L -44.89899826049805 -12.248000144958496 L -42.99800109863281 -12.248000144958496 L -42.99800109863281 -25.45199966430664 L -44.89899826049805 -25.45199966430664 M -34.332000732421875 88.2229995727539 L -34.71900177001953 87.83599853515625 L -35.207000732421875 87.58799743652344 L -35.74800109863281 87.50199890136719 L -36.28900146484375 87.58799743652344 L -36.777000427246094 87.83599853515625 L -37.16400146484375 88.2229995727539 L -37.4119987487793 88.71099853515625 L -37.49800109863281 89.25199890136719 L -37.4119987487793 89.79299926757812 L -37.24988555908203 90.11199951171875 L -37.16400146484375 90.28099822998047 L -36.777000427246094 90.66799926757812 L -36.28900146484375 90.91600036621094 L -35.74800109863281 91.00299835205078 L -35.207000732421875 90.91600036621094 L -34.71900177001953 90.66799926757812 L -34.332000732421875 90.28099822998047 L -34.246116638183594 90.11199951171875 L -34.08399963378906 89.79299926757812 L -33.99800109863281 89.25199890136719 L -34.08399963378906 88.71099853515625 L -34.332000732421875 88.2229995727539 M -59.75199890136719 87.50199890136719 L -60.292999267578125 87.58799743652344 L -60.78099822998047 87.83599853515625 L -61.167999267578125 88.2229995727539 L -61.41600036621094 88.71099853515625 L -61.50299835205078 89.25199890136719 L -61.41600036621094 89.79299926757812 L -61.253883361816406 90.11199951171875 L -61.167999267578125 90.28099822998047 L -60.78099822998047 90.66799926757812 L -60.292999267578125 90.91600036621094 L -59.75199890136719 91.00299835205078 L -59.21099853515625 90.91600036621094 L -58.722999572753906 90.66799926757812 L -58.33599853515625 90.28099822998047 L -58.25011444091797 90.11199951171875 L -58.0880012512207 89.79299926757812 L -58.00199890136719 89.25199890136719 L -58.0880012512207 88.71099853515625 L -58.33599853515625 88.2229995727539 L -58.722999572753906 87.83599853515625 L -59.21099853515625 87.58799743652344 L -59.75199890136719 87.50199890136719 M -58.0880012512207 57.707000732421875 L -58.27247619628906 57.34400177001953 L -58.33599853515625 57.21900177001953 L -58.722999572753906 56.832000732421875 L -59.21099853515625 56.58399963378906 L -59.75199890136719 56.49700164794922 L -60.292999267578125 56.58399963378906 L -60.78099822998047 56.832000732421875 L -61.167999267578125 57.21900177001953 L -61.23152542114258 57.34400177001953 L -61.41600036621094 57.707000732421875 L -61.50299835205078 58.24800109863281 L -61.41600036621094 58.78900146484375 L -61.167999267578125 59.277000427246094 L -60.78099822998047 59.66400146484375 L -60.292999267578125 59.9119987487793 L -59.75199890136719 59.99800109863281 L -59.21099853515625 59.9119987487793 L -58.722999572753906 59.66400146484375 L -58.33599853515625 59.277000427246094 L -58.0880012512207 58.78900146484375 L -58.00199890136719 58.24800109863281 L -58.0880012512207 57.707000732421875 M -79.93000030517578 -63.96500015258789 L -80.00299835205078 -63.5 L -79.93000030517578 -63.03499984741211 L -79.71600341796875 -62.617000579833984 L -79.38400268554688 -62.284000396728516 L -78.96600341796875 -62.07099914550781 L -78.50199890136719 -61.99800109863281 L -69.2979965209961 -61.99800109863281 L -52.00299835205078 -61.99800109863281 L -42.99800109863281 -61.99800109863281 L -16.99799919128418 -61.99800109863281 L -16.49799919128418 -61.99800109863281 L -16.034000396728516 -62.07099914550781 L -15.616000175476074 -62.284000396728516 L -15.284000396728516 -62.617000579833984 L -15.071000099182129 -63.03499984741211 L -14.998000144958496 -63.5 L -15.071000099182129 -63.96500015258789 L -15.284000396728516 -64.38300323486328 L -15.616000175476074 -64.71600341796875 L -16.034000396728516 -64.92900085449219 L -16.49799919128418 -65.00299835205078 L -42.99800109863281 -65.00299835205078 L -52.00299835205078 -65.00299835205078 L -69.2979965209961 -65.00299835205078 L -78.50199890136719 -65.00299835205078 L -78.96600341796875 -64.92900085449219 L -79.38400268554688 -64.71600341796875 L -79.71600341796875 -64.38300323486328 L -79.93000030517578 -63.96500015258789 M -36.777000427246094 56.832000732421875 L -37.16400146484375 57.21900177001953 L -37.22752380371094 57.34400177001953 L -37.4119987487793 57.707000732421875 L -37.49800109863281 58.24800109863281 L -37.4119987487793 58.78900146484375 L -37.16400146484375 59.277000427246094 L -36.777000427246094 59.66400146484375 L -36.28900146484375 59.9119987487793 L -35.74800109863281 59.99800109863281 L -35.207000732421875 59.9119987487793 L -34.71900177001953 59.66400146484375 L -34.332000732421875 59.277000427246094 L -34.08399963378906 58.78900146484375 L -33.99800109863281 58.24800109863281 L -34.08399963378906 57.707000732421875 L -34.26847457885742 57.34400177001953 L -34.332000732421875 57.21900177001953 L -34.71900177001953 56.832000732421875 L -35.207000732421875 56.58399963378906 L -35.74800109863281 56.49700164794922 L -36.28900146484375 56.58399963378906 L -36.777000427246094 56.832000732421875 M -60.555999755859375 14.607999801635742 L -61.250999450683594 14.496999740600586 L -61.50299835205078 14.496999740600586 L -65.53600311279297 14.496999740600586 L -71.25199890136719 14.496999740600586 L -71.9469985961914 14.607999801635742 L -72.57499694824219 14.928000450134277 L -73.0719985961914 15.425999641418457 L -73.39199829101562 16.054000854492188 L -73.50299835205078 16.75 L -73.39199829101562 17.445999145507812 L -73.0719985961914 18.073999404907227 L -72.57499694824219 18.57200050354004 L -71.9469985961914 18.892000198364258 L -71.25199890136719 19.003000259399414 L -65.53600311279297 19.003000259399414 L -61.50299835205078 19.003000259399414 L -61.250999450683594 19.003000259399414 L -60.555999755859375 18.892000198364258 L -59.928001403808594 18.57200050354004 L -59.430999755859375 18.073999404907227 L -59.111000061035156 17.445999145507812 L -59.000999450683594 16.75 L -59.111000061035156 16.054000854492188 L -59.430999755859375 15.425999641418457 L -59.928001403808594 14.928000450134277 L -60.555999755859375 14.607999801635742 M -20.107999801635742 17.445999145507812 L -19.99799919128418 16.75 L -20.107999801635742 16.054000854492188 L -20.42799949645996 15.425999641418457 L -20.924999237060547 14.928000450134277 L -21.55299949645996 14.607999801635742 L -22.24799919128418 14.496999740600586 L -32.249000549316406 14.496999740600586 L -32.768001556396484 14.579890251159668 L -32.944000244140625 14.607999801635742 L -33.571998596191406 14.928000450134277 L -33.99800109863281 15.354857444763184 L -34.069000244140625 15.425999641418457 L -34.388999938964844 16.054000854492188 L -34.499000549316406 16.75 L -34.388999938964844 17.445999145507812 L -34.069000244140625 18.073999404907227 L -33.99800109863281 18.145143508911133 L -33.571998596191406 18.57200050354004 L -32.944000244140625 18.892000198364258 L -32.768001556396484 18.920108795166016 L -32.249000549316406 19.003000259399414 L -22.24799919128418 19.003000259399414 L -21.55299949645996 18.892000198364258 L -20.924999237060547 18.57200050354004 L -20.42799949645996 18.073999404907227 L -20.107999801635742 17.445999145507812 M -91.60199737548828 -12.39799976348877 L -91.60199737548828 -25.003000259399414 L -95.00299835205078 -25.003000259399414 L -95.00299835205078 -12.39799976348877 L -91.60199737548828 -12.39799976348877 M 1.0019999742507935 -25.60300064086914 L -2.3980000019073486 -25.60300064086914 L -2.3980000019073486 -12.998000144958496 L 1.0019999742507935 -12.998000144958496 L 1.0019999742507935 -25.60300064086914 M -21.302000045776367 -25.60300064086914 L -24.702999114990234 -25.60300064086914 L -24.702999114990234 -12.998000144958496 L -21.302000045776367 -12.998000144958496 L -21.302000045776367 -25.60300064086914 M -83.00299835205078 -43.99800109863281 L -80.00299835205078 -43.99800109863281 L -79.00199890136719 -43.99800109863281 L -79.00199890136719 -52.00299835205078 L -80.00299835205078 -52.00299835205078 L -83.00299835205078 -52.00299835205078 L -83.00299835205078 -43.99800109863281 M -12.998000144958496 -52.00299835205078 L -16.99799919128418 -52.00299835205078 L -16.99799919128418 -43.99800109863281 L -12.998000144958496 -43.99800109863281 L -12.998000144958496 -52.00299835205078 M -69.2979965209961 -12.39799976348877 L -69.2979965209961 -25.003000259399414 L -72.697998046875 -25.003000259399414 L -72.697998046875 -12.39799976348877 L -69.2979965209961 -12.39799976348877 z" fill="none" stroke="rgb(0,0,255)" stroke-width="0.01mm" />
</svg>