  0
SECTION
  2
HEADER
  9
$ACADVER
  1
AC1014
  9
$HANDSEED
  5
FFFF
  9
$MEASUREMENT
 70
     1
  0
ENDSEC
  0
SECTION
  2
TABLES
  0
TABLE
  2
VPORT
  5
8
330
0
100
AcDbSymbolTable
 70
     4
  0
VPORT
  5
2E
330
8
100
AcDbSymbolTableRecord
100
AcDbViewportTableRecord
  2
*ACTIVE
 70
     0
 10
0.0
 20
0.0
 11
1.0
 21
1.0
 12
210.0
 22
148.5
 13
0.0
 23
0.0
 14
10.0
 24
10.0
 15
10.0
 25
10.0
 16
0.0
 26
0.0
 36
1.0
 17
0.0
 27
0.0
 37
0.0
 40
341.0
 41
1.24
 42
50.0
 43
0.0
 44
0.0
 50
0.0
 51
0.0
 71
     0
 72
   100
 73
     1
 74
     3
 75
     0
 76
     0
 77
     0
 78
     0
  0
ENDTAB
  0
TABLE
  2
LTYPE
  5
5
330
0
100
AcDbSymbolTable
 70
     1
  0
LTYPE
  5
14
330
5
100
AcDbSymbolTableRecord
100
AcDbLinetypeTableRecord
  2
BYBLOCK
 70
     0
  3

 72
    65
 73
     0
 40
0.0
  0
LTYPE
  5
15
330
5
100
AcDbSymbolTableRecord
100
AcDbLinetypeTableRecord
  2
BYLAYER
 70
     0
  3

 72
    65
 73
     0
 40
0.0
  0
LTYPE
  5
16
330
5
100
AcDbSymbolTableRecord
100
AcDbLinetypeTableRecord
  2
CONTINUOUS
 70
     0
  3
Solid line
 72
    65
 73
     0
 40
0.0
  0
ENDTAB
  0
TABLE
  2
LAYER
  5
2
100
AcDbSymbolTable
 70
1
  0
LAYER
  5
50
100
AcDbSymbolTableRecord
100
AcDbLayerTableRecord
  2
0
 70
0
  6
CONTINUOUS
  0
ENDTAB
  0
TABLE
  2
STYLE
  5
3
330
0
100
AcDbSymbolTable
 70
     1
  0
STYLE
  5
11
330
3
100
AcDbSymbolTableRecord
100
AcDbTextStyleTableRecord
  2
STANDARD
 70
     0
 40
0.0
 41
1.0
 50
0.0
 71
     0
 42
2.5
  3
txt
  4

  0
ENDTAB
  0
TABLE
  2
VIEW
  5
6
330
0
100
AcDbSymbolTable
 70
     0
  0
ENDTAB
  0
TABLE
  2
UCS
  5
7
330
0
100
AcDbSymbolTable
 70
     0
  0
ENDTAB
  0
TABLE
  2
APPID
  5
9
330
0
100
AcDbSymbolTable
 70
     2
  0
APPID
  5
12
330
9
100
AcDbSymbolTableRecord
100
AcDbRegAppTableRecord
  2
ACAD
 70
     0
  0
ENDTAB
  0
TABLE
  2
DIMSTYLE
  5
A
330
0
100
AcDbSymbolTable
 70
     1
  0
DIMSTYLE
105
27
330
A
100
AcDbSymbolTableRecord
100
AcDbDimStyleTableRecord
  2
ISO-25
 70
     0
  3

  4

  5

  6

  7

 40
1.0
 41
2.5
 42
0.625
 43
3.75
 44
1.25
 45
0.0
 46
0.0
 47
0.0
 48
0.0
140
2.5
141
2.5
142
0.0
143
0.03937007874016
144
1.0
145
0.0
146
1.0
147
0.625
 71
     0
 72
     0
 73
     0
 74
     0
 75
     0
 76
     0
 77
     1
 78
     8
170
     0
171
     3
172
     1
173
     0
174
     0
175
     0
176
     0
177
     0
178
     0
270
     2
271
     2
272
     2
273
     2
274
     3
340
11
275
     0
280
     0
281
     0
282
     0
283
     0
284
     8
285
     0
286
     0
287
     3
288
     0
  0
ENDTAB
  0
TABLE
  2
BLOCK_RECORD
  5
1
330
0
100
AcDbSymbolTable
 70
     1
  0
BLOCK_RECORD
  5
1F
330
1
100
AcDbSymbolTableRecord
100
AcDbBlockTableRecord
  2
*MODEL_SPACE
  0
BLOCK_RECORD
  5
1B
330
1
100
AcDbSymbolTableRecord
100
AcDbBlockTableRecord
  2
*PAPER_SPACE
  0
ENDTAB
  0
ENDSEC
  0
SECTION
  2
BLOCKS
  0
BLOCK
  5
20
330
1F
100
AcDbEntity
  8
0
100
AcDbBlockBegin
  2
*MODEL_SPACE
 70
     0
 10
0.0
 20
0.0
 30
0.0
  3
*MODEL_SPACE
  1

  0
ENDBLK
  5
21
330
1F
100
AcDbEntity
  8
0
100
AcDbBlockEnd
  0
BLOCK
  5
1C
330
1B
100
AcDbEntity
 67
     1
  8
0
100
AcDbBlockBegin
  2
*PAPER_SPACE
  1

  0
ENDBLK
  5
1D
330
1B
100
AcDbEntity
 67
     1
  8
0
100
AcDbBlockEnd
  0
ENDSEC
  0
SECTION
  2
ENTITIES
  0
LINE
  5
100
100
AcDbEntity
  8
0
 62
7
100
AcDbLine
 10
14.922877
 20
50.310859
 30
0.0
 11
14.918280
 21
50.305679
 31
0.0
  0
LINE
  5
101
100
AcDbEntity
  8
0
 62
7
100
AcDbLine
 10
14.918280
 20
50.305679
 30
0.0
 11
14.860980
 21
50.237999
 31
0.0
  0
LINE
  5
102
100
AcDbEntity
  8
0
 62
7
100
AcDbLine
 10
14.860980
 20
50.237999
 30
0.0
 11
14.785800
 21
50.149199
 31
0.0
  0
LINE
  5
103
100
AcDbEntity
  8
0
 62
7
100
AcDbLine
 10
14.785800
 20
50.149199
 30
0.0
 11
14.707080
 21
50.036879
 31
0.0
  0
LINE
  5
104
100
AcDbEntity
  8
0
 62
7
100
AcDbLine
 10
14.707080
 20
50.036879
 30
0.0
 11
14.702000
 21
50.029999
 31
0.0
  0
LINE
  5
105
100
AcDbEntity
  8
0
 62
7
100
AcDbLine
 10
14.702000
 20
50.029999
 30
0.0
 11
14.701364
 21
50.028722
 31
0.0
  0
LINE
  5
106
100
AcDbEntity
  8
0
 62
7
100
AcDbLine
 10
14.701364
 20
50.028722
 30
0.0
 11
14.511000
 21
49.646999
 31
0.0
  0
LINE
  5
107
100
AcDbEntity
  8
0
 62
7
100
AcDbLine
 10
14.511000
 20
49.646999
 30
0.0
 11
14.466000
 21
49.511999
 31
0.0
  0
LINE
  5
108
100
AcDbEntity
  8
0
 62
7
100
AcDbLine
 10
14.466000
 20
49.511999
 30
0.0
 11
14.390000
 21
49.090999
 31
0.0
  0
LINE
  5
109
100
AcDbEntity
  8
0
 62
7
100
AcDbLine
 10
14.390000
 20
49.090999
 30
0.0
 11
14.385000
 21
48.947999
 31
0.0
  0
LINE
  5
10a
100
AcDbEntity
  8
0
 62
7
100
AcDbLine
 10
14.385000
 20
48.947999
 30
0.0
 11
14.385000
 21
42.045999
 31
0.0
  0
LINE
  5
10b
100
AcDbEntity
  8
0
 62
7
100
AcDbLine
 10
14.385000
 20
42.045999
 30
0.0
 11
14.385000
 21
38.638999
 31
0.0
  0
LINE
  5
10c
100
AcDbEntity
  8
0
 62
7
100
AcDbLine
 10
14.385000
 20
38.638999
 30
0.0
 11
14.372000
 21
38.276999
 31
0.0
  0
LINE
  5
10d
100
AcDbEntity
  8
0
 62
7
100
AcDbLine
 10
14.372000
 20
38.276999
 30
0.0
 11
14.336476
 21
37.949999
 31
0.0
  0
LINE
  5
10e
100
AcDbEntity
  8
0
 62
7
100
AcDbLine
 10
14.336476
 20
37.949999
 30
0.0
 11
14.333000
 21
37.917999
 31
0.0
  0
LINE
  5
10f
100
AcDbEntity
  8
0
 62
7
100
AcDbLine
 10
14.333000
 20
37.917999
 30
0.0
 11
14.267000
 21
37.561999
 31
0.0
  0
LINE
  5
110
100
AcDbEntity
  8
0
 62
7
100
AcDbLine
 10
14.267000
 20
37.561999
 30
0.0
 11
14.177000
 21
37.210999
 31
0.0
  0
LINE
  5
111
100
AcDbEntity
  8
0
 62
7
100
AcDbLine
 10
14.177000
 20
37.210999
 30
0.0
 11
14.061000
 21
36.868999
 31
0.0
  0
LINE
  5
112
100
AcDbEntity
  8
0
 62
7
100
AcDbLine
 10
14.061000
 20
36.868999
 30
0.0
 11
13.921000
 21
36.534999
 31
0.0
  0
LINE
  5
113
100
AcDbEntity
  8
0
 62
7
100
AcDbLine
 10
13.921000
 20
36.534999
 30
0.0
 11
13.757000
 21
36.211999
 31
0.0
  0
LINE
  5
114
100
AcDbEntity
  8
0
 62
7
100
AcDbLine
 10
13.757000
 20
36.211999
 30
0.0
 11
13.570000
 21
35.902999
 31
0.0
  0
LINE
  5
115
100
AcDbEntity
  8
0
 62
7
100
AcDbLine
 10
13.570000
 20
35.902999
 30
0.0
 11
13.361000
 21
35.606999
 31
0.0
  0
LINE
  5
116
100
AcDbEntity
  8
0
 62
7
100
AcDbLine
 10
13.361000
 20
35.606999
 30
0.0
 11
13.131000
 21
35.326999
 31
0.0
  0
LINE
  5
117
100
AcDbEntity
  8
0
 62
7
100
AcDbLine
 10
13.131000
 20
35.326999
 30
0.0
 11
12.882000
 21
35.064999
 31
0.0
  0
LINE
  5
118
100
AcDbEntity
  8
0
 62
7
100
AcDbLine
 10
12.882000
 20
35.064999
 30
0.0
 11
12.614000
 21
34.821999
 31
0.0
  0
LINE
  5
119
100
AcDbEntity
  8
0
 62
7
100
AcDbLine
 10
12.614000
 20
34.821999
 30
0.0
 11
12.329000
 21
34.597999
 31
0.0
  0
LINE
  5
11a
100
AcDbEntity
  8
0
 62
7
100
AcDbLine
 10
12.329000
 20
34.597999
 30
0.0
 11
12.288000
 21
34.570300
 31
0.0
  0
LINE
  5
11b
100
AcDbEntity
  8
0
 62
7
100
AcDbLine
 10
12.288000
 20
34.570300
 30
0.0
 11
12.030000
 21
34.395999
 31
0.0
  0
LINE
  5
11c
100
AcDbEntity
  8
0
 62
7
100
AcDbLine
 10
12.030000
 20
34.395999
 30
0.0
 11
11.716000
 21
34.216000
 31
0.0
  0
LINE
  5
11d
100
AcDbEntity
  8
0
 62
7
100
AcDbLine
 10
11.716000
 20
34.216000
 30
0.0
 11
11.390000
 21
34.058998
 31
0.0
  0
LINE
  5
11e
100
AcDbEntity
  8
0
 62
7
100
AcDbLine
 10
11.390000
 20
34.058998
 30
0.0
 11
11.053000
 21
33.925999
 31
0.0
  0
LINE
  5
11f
100
AcDbEntity
  8
0
 62
7
100
AcDbLine
 10
11.053000
 20
33.925999
 30
0.0
 11
11.053000
 21
33.896702
 31
0.0
  0
LINE
  5
120
100
AcDbEntity
  8
0
 62
7
100
AcDbLine
 10
11.053000
 20
33.896702
 30
0.0
 11
11.053000
 21
33.853998
 31
0.0
  0
LINE
  5
121
100
AcDbEntity
  8
0
 62
7
100
AcDbLine
 10
11.053000
 20
33.853998
 30
0.0
 11
11.053000
 21
30.760368
 31
0.0
  0
LINE
  5
122
100
AcDbEntity
  8
0
 62
7
100
AcDbLine
 10
11.053000
 20
30.760368
 30
0.0
 11
11.053000
 21
29.221661
 31
0.0
  0
LINE
  5
123
100
AcDbEntity
  8
0
 62
7
100
AcDbLine
 10
11.053000
 20
29.221661
 30
0.0
 11
11.053000
 21
28.831524
 31
0.0
  0
LINE
  5
124
100
AcDbEntity
  8
0
 62
7
100
AcDbLine
 10
11.053000
 20
28.831524
 30
0.0
 11
11.053000
 21
27.530058
 31
0.0
  0
LINE
  5
125
100
AcDbEntity
  8
0
 62
7
100
AcDbLine
 10
11.053000
 20
27.530058
 30
0.0
 11
11.053000
 21
27.063499
 31
0.0
  0
LINE
  5
126
100
AcDbEntity
  8
0
 62
7
100
AcDbLine
 10
11.053000
 20
27.063499
 30
0.0
 11
11.053000
 21
26.118999
 31
0.0
  0
LINE
  5
127
100
AcDbEntity
  8
0
 62
7
100
AcDbLine
 10
11.053000
 20
26.118999
 30
0.0
 11
10.476212
 21
26.118999
 31
0.0
  0
LINE
  5
128
100
AcDbEntity
  8
0
 62
7
100
AcDbLine
 10
10.476212
 20
26.118999
 30
0.0
 11
9.068716
 21
26.118999
 31
0.0
  0
LINE
  5
129
100
AcDbEntity
  8
0
 62
7
100
AcDbLine
 10
9.068716
 20
26.118999
 30
0.0
 11
8.779928
 21
26.118999
 31
0.0
  0
LINE
  5
12a
100
AcDbEntity
  8
0
 62
7
100
AcDbLine
 10
8.779928
 20
26.118999
 30
0.0
 11
7.944694
 21
26.118999
 31
0.0
  0
LINE
  5
12b
100
AcDbEntity
  8
0
 62
7
100
AcDbLine
 10
7.944694
 20
26.118999
 30
0.0
 11
7.015760
 21
26.118999
 31
0.0
  0
LINE
  5
12c
100
AcDbEntity
  8
0
 62
7
100
AcDbLine
 10
7.015760
 20
26.118999
 30
0.0
 11
6.174352
 21
26.118999
 31
0.0
  0
LINE
  5
12d
100
AcDbEntity
  8
0
 62
7
100
AcDbLine
 10
6.174352
 20
26.118999
 30
0.0
 11
6.008667
 21
26.118999
 31
0.0
  0
LINE
  5
12e
100
AcDbEntity
  8
0
 62
7
100
AcDbLine
 10
6.008667
 20
26.118999
 30
0.0
 11
5.478483
 21
26.118999
 31
0.0
  0
LINE
  5
12f
100
AcDbEntity
  8
0
 62
7
100
AcDbLine
 10
5.478483
 20
26.118999
 30
0.0
 11
4.627966
 21
26.118999
 31
0.0
  0
LINE
  5
130
100
AcDbEntity
  8
0
 62
7
100
AcDbLine
 10
4.627966
 20
26.118999
 30
0.0
 11
3.787331
 21
26.118999
 31
0.0
  0
LINE
  5
131
100
AcDbEntity
  8
0
 62
7
100
AcDbLine
 10
3.787331
 20
26.118999
 30
0.0
 11
3.246000
 21
26.118999
 31
0.0
  0
LINE
  5
132
100
AcDbEntity
  8
0
 62
7
100
AcDbLine
 10
3.246000
 20
26.118999
 30
0.0
 11
3.246000
 21
31.925999
 31
0.0
  0
LINE
  5
133
100
AcDbEntity
  8
0
 62
7
100
AcDbLine
 10
3.246000
 20
31.925999
 30
0.0
 11
3.213000
 21
32.279999
 31
0.0
  0
LINE
  5
134
100
AcDbEntity
  8
0
 62
7
100
AcDbLine
 10
3.213000
 20
32.279999
 30
0.0
 11
3.165000
 21
32.488998
 31
0.0
  0
LINE
  5
135
100
AcDbEntity
  8
0
 62
7
100
AcDbLine
 10
3.165000
 20
32.488998
 30
0.0
 11
3.094920
 21
32.681959
 31
0.0
  0
LINE
  5
136
100
AcDbEntity
  8
0
 62
7
100
AcDbLine
 10
3.094920
 20
32.681959
 30
0.0
 11
3.093120
 21
32.687359
 31
0.0
  0
LINE
  5
137
100
AcDbEntity
  8
0
 62
7
100
AcDbLine
 10
3.093120
 20
32.687359
 30
0.0
 11
3.092233
 21
32.689356
 31
0.0
  0
LINE
  5
138
100
AcDbEntity
  8
0
 62
7
100
AcDbLine
 10
3.092233
 20
32.689356
 30
0.0
 11
3.089640
 21
32.695198
 31
0.0
  0
LINE
  5
139
100
AcDbEntity
  8
0
 62
7
100
AcDbLine
 10
3.089640
 20
32.695198
 30
0.0
 11
3.002280
 21
32.881439
 31
0.0
  0
LINE
  5
13a
100
AcDbEntity
  8
0
 62
7
100
AcDbLine
 10
3.002280
 20
32.881439
 30
0.0
 11
2.932200
 21
32.999519
 31
0.0
  0
LINE
  5
13b
100
AcDbEntity
  8
0
 62
7
100
AcDbLine
 10
2.932200
 20
32.999519
 30
0.0
 11
2.928000
 21
33.006998
 31
0.0
  0
LINE
  5
13c
100
AcDbEntity
  8
0
 62
7
100
AcDbLine
 10
2.928000
 20
33.006998
 30
0.0
 11
2.926707
 21
33.008774
 31
0.0
  0
LINE
  5
13d
100
AcDbEntity
  8
0
 62
7
100
AcDbLine
 10
2.926707
 20
33.008774
 30
0.0
 11
2.807040
 21
33.173079
 31
0.0
  0
LINE
  5
13e
100
AcDbEntity
  8
0
 62
7
100
AcDbLine
 10
2.807040
 20
33.173079
 30
0.0
 11
2.803800
 21
33.177759
 31
0.0
  0
LINE
  5
13f
100
AcDbEntity
  8
0
 62
7
100
AcDbLine
 10
2.803800
 20
33.177759
 30
0.0
 11
2.802594
 21
33.179184
 31
0.0
  0
LINE
  5
140
100
AcDbEntity
  8
0
 62
7
100
AcDbLine
 10
2.802594
 20
33.179184
 30
0.0
 11
2.798280
 21
33.184278
 31
0.0
  0
LINE
  5
141
100
AcDbEntity
  8
0
 62
7
100
AcDbLine
 10
2.798280
 20
33.184278
 30
0.0
 11
2.661960
 21
33.337879
 31
0.0
  0
LINE
  5
142
100
AcDbEntity
  8
0
 62
7
100
AcDbLine
 10
2.661960
 20
33.337879
 30
0.0
 11
2.561160
 21
33.431000
 31
0.0
  0
LINE
  5
143
100
AcDbEntity
  8
0
 62
7
100
AcDbLine
 10
2.561160
 20
33.431000
 30
0.0
 11
2.555000
 21
33.436998
 31
0.0
  0
LINE
  5
144
100
AcDbEntity
  8
0
 62
7
100
AcDbLine
 10
2.555000
 20
33.436998
 30
0.0
 11
2.553220
 21
33.438334
 31
0.0
  0
LINE
  5
145
100
AcDbEntity
  8
0
 62
7
100
AcDbLine
 10
2.553220
 20
33.438334
 30
0.0
 11
2.545880
 21
33.443838
 31
0.0
  0
LINE
  5
146
100
AcDbEntity
  8
0
 62
7
100
AcDbLine
 10
2.545880
 20
33.443838
 30
0.0
 11
2.208920
 21
33.678080
 31
0.0
  0
LINE
  5
147
100
AcDbEntity
  8
0
 62
7
100
AcDbLine
 10
2.208920
 20
33.678080
 30
0.0
 11
2.198920
 21
33.683559
 31
0.0
  0
LINE
  5
148
100
AcDbEntity
  8
0
 62
7
100
AcDbLine
 10
2.198920
 20
33.683559
 30
0.0
 11
2.077000
 21
33.744999
 31
0.0
  0
LINE
  5
149
100
AcDbEntity
  8
0
 62
7
100
AcDbLine
 10
2.077000
 20
33.744999
 30
0.0
 11
1.749193
 21
33.853998
 31
0.0
  0
LINE
  5
14a
100
AcDbEntity
  8
0
 62
7
100
AcDbLine
 10
1.749193
 20
33.853998
 30
0.0
 11
1.671000
 21
33.879999
 31
0.0
  0
LINE
  5
14b
100
AcDbEntity
  8
0
 62
7
100
AcDbLine
 10
1.671000
 20
33.879999
 30
0.0
 11
1.246000
 21
33.925999
 31
0.0
  0
LINE
  5
14c
100
AcDbEntity
  8
0
 62
7
100
AcDbLine
 10
1.246000
 20
33.925999
 30
0.0
 11
0.000000
 21
33.925999
 31
0.0
  0
LINE
  5
14d
100
AcDbEntity
  8
0
 62
7
100
AcDbLine
 10
0.000000
 20
33.925999
 30
0.0
 11
-1.327000
 21
33.925999
 31
0.0
  0
LINE
  5
14e
100
AcDbEntity
  8
0
 62
7
100
AcDbLine
 10
-1.327000
 20
33.925999
 30
0.0
 11
-1.464280
 21
33.920238
 31
0.0
  0
LINE
  5
14f
100
AcDbEntity
  8
0
 62
7
100
AcDbLine
 10
-1.464280
 20
33.920238
 30
0.0
 11
-1.705638
 21
33.886003
 31
0.0
  0
LINE
  5
150
100
AcDbEntity
  8
0
 62
7
100
AcDbLine
 10
-1.705638
 20
33.886003
 30
0.0
 11
-1.735000
 21
33.881840
 31
0.0
  0
LINE
  5
151
100
AcDbEntity
  8
0
 62
7
100
AcDbLine
 10
-1.735000
 20
33.881840
 30
0.0
 11
-1.749200
 21
33.880480
 31
0.0
  0
LINE
  5
152
100
AcDbEntity
  8
0
 62
7
100
AcDbLine
 10
-1.749200
 20
33.880480
 30
0.0
 11
-1.753882
 21
33.879160
 31
0.0
  0
LINE
  5
153
100
AcDbEntity
  8
0
 62
7
100
AcDbLine
 10
-1.753882
 20
33.879160
 30
0.0
 11
-1.843250
 21
33.853998
 31
0.0
  0
LINE
  5
154
100
AcDbEntity
  8
0
 62
7
100
AcDbLine
 10
-1.843250
 20
33.853998
 30
0.0
 11
-1.946960
 21
33.824799
 31
0.0
  0
LINE
  5
155
100
AcDbEntity
  8
0
 62
7
100
AcDbLine
 10
-1.946960
 20
33.824799
 30
0.0
 11
-1.958000
 21
33.821999
 31
0.0
  0
LINE
  5
156
100
AcDbEntity
  8
0
 62
7
100
AcDbLine
 10
-1.958000
 20
33.821999
 30
0.0
 11
-2.158000
 21
33.744999
 31
0.0
  0
LINE
  5
157
100
AcDbEntity
  8
0
 62
7
100
AcDbLine
 10
-2.158000
 20
33.744999
 30
0.0
 11
-2.165560
 21
33.740959
 31
0.0
  0
LINE
  5
158
100
AcDbEntity
  8
0
 62
7
100
AcDbLine
 10
-2.165560
 20
33.740959
 30
0.0
 11
-2.518840
 21
33.531679
 31
0.0
  0
LINE
  5
159
100
AcDbEntity
  8
0
 62
7
100
AcDbLine
 10
-2.518840
 20
33.531679
 30
0.0
 11
-2.526000
 21
33.526999
 31
0.0
  0
LINE
  5
15a
100
AcDbEntity
  8
0
 62
7
100
AcDbLine
 10
-2.526000
 20
33.526999
 30
0.0
 11
-2.741000
 21
33.339998
 31
0.0
  0
LINE
  5
15b
100
AcDbEntity
  8
0
 62
7
100
AcDbLine
 10
-2.741000
 20
33.339998
 30
0.0
 11
-2.928000
 21
33.123999
 31
0.0
  0
LINE
  5
15c
100
AcDbEntity
  8
0
 62
7
100
AcDbLine
 10
-2.928000
 20
33.123999
 30
0.0
 11
-3.009000
 21
33.006998
 31
0.0
  0
LINE
  5
15d
100
AcDbEntity
  8
0
 62
7
100
AcDbLine
 10
-3.009000
 20
33.006998
 30
0.0
 11
-3.140520
 21
32.766039
 31
0.0
  0
LINE
  5
15e
100
AcDbEntity
  8
0
 62
7
100
AcDbLine
 10
-3.140520
 20
32.766039
 30
0.0
 11
-3.144720
 21
32.758558
 31
0.0
  0
LINE
  5
15f
100
AcDbEntity
  8
0
 62
7
100
AcDbLine
 10
-3.144720
 20
32.758558
 30
0.0
 11
-3.144976
 21
32.757874
 31
0.0
  0
LINE
  5
160
100
AcDbEntity
  8
0
 62
7
100
AcDbLine
 10
-3.144976
 20
32.757874
 30
0.0
 11
-3.238873
 21
32.507170
 31
0.0
  0
LINE
  5
161
100
AcDbEntity
  8
0
 62
7
100
AcDbLine
 10
-3.238873
 20
32.507170
 30
0.0
 11
-3.240720
 21
32.502239
 31
0.0
  0
LINE
  5
162
100
AcDbEntity
  8
0
 62
7
100
AcDbLine
 10
-3.240720
 20
32.502239
 30
0.0
 11
-3.244200
 21
32.494398
 31
0.0
  0
LINE
  5
163
100
AcDbEntity
  8
0
 62
7
100
AcDbLine
 10
-3.244200
 20
32.494398
 30
0.0
 11
-3.246000
 21
32.488998
 31
0.0
  0
LINE
  5
164
100
AcDbEntity
  8
0
 62
7
100
AcDbLine
 10
-3.246000
 20
32.488998
 30
0.0
 11
-3.246450
 21
32.486938
 31
0.0
  0
LINE
  5
165
100
AcDbEntity
  8
0
 62
7
100
AcDbLine
 10
-3.246450
 20
32.486938
 30
0.0
 11
-3.264165
 21
32.405918
 31
0.0
  0
LINE
  5
166
100
AcDbEntity
  8
0
 62
7
100
AcDbLine
 10
-3.264165
 20
32.405918
 30
0.0
 11
-3.304560
 21
32.221159
 31
0.0
  0
LINE
  5
167
100
AcDbEntity
  8
0
 62
7
100
AcDbLine
 10
-3.304560
 20
32.221159
 30
0.0
 11
-3.306480
 21
32.212799
 31
0.0
  0
LINE
  5
168
100
AcDbEntity
  8
0
 62
7
100
AcDbLine
 10
-3.306480
 20
32.212799
 30
0.0
 11
-3.325680
 21
31.940159
 31
0.0
  0
LINE
  5
169
100
AcDbEntity
  8
0
 62
7
100
AcDbLine
 10
-3.325680
 20
31.940159
 30
0.0
 11
-3.326800
 21
31.931679
 31
0.0
  0
LINE
  5
16a
100
AcDbEntity
  8
0
 62
7
100
AcDbLine
 10
-3.326800
 20
31.931679
 30
0.0
 11
-3.327000
 21
31.925999
 31
0.0
  0
LINE
  5
16b
100
AcDbEntity
  8
0
 62
7
100
AcDbLine
 10
-3.327000
 20
31.925999
 30
0.0
 11
-3.327000
 21
26.118999
 31
0.0
  0
LINE
  5
16c
100
AcDbEntity
  8
0
 62
7
100
AcDbLine
 10
-3.327000
 20
26.118999
 30
0.0
 11
-3.531472
 21
26.118999
 31
0.0
  0
LINE
  5
16d
100
AcDbEntity
  8
0
 62
7
100
AcDbLine
 10
-3.531472
 20
26.118999
 30
0.0
 11
-11.134000
 21
26.118999
 31
0.0
  0
LINE
  5
16e
100
AcDbEntity
  8
0
 62
7
100
AcDbLine
 10
-11.134000
 20
26.118999
 30
0.0
 11
-11.134000
 21
31.494753
 31
0.0
  0
LINE
  5
16f
100
AcDbEntity
  8
0
 62
7
100
AcDbLine
 10
-11.134000
 20
31.494753
 30
0.0
 11
-11.134000
 21
33.853998
 31
0.0
  0
LINE
  5
170
100
AcDbEntity
  8
0
 62
7
100
AcDbLine
 10
-11.134000
 20
33.853998
 30
0.0
 11
-11.134000
 21
33.874266
 31
0.0
  0
LINE
  5
171
100
AcDbEntity
  8
0
 62
7
100
AcDbLine
 10
-11.134000
 20
33.874266
 30
0.0
 11
-11.134000
 21
33.925999
 31
0.0
  0
LINE
  5
172
100
AcDbEntity
  8
0
 62
7
100
AcDbLine
 10
-11.134000
 20
33.925999
 30
0.0
 11
-11.161520
 21
33.930799
 31
0.0
  0
LINE
  5
173
100
AcDbEntity
  8
0
 62
7
100
AcDbLine
 10
-11.161520
 20
33.930799
 30
0.0
 11
-11.493680
 21
33.976879
 31
0.0
  0
LINE
  5
174
100
AcDbEntity
  8
0
 62
7
100
AcDbLine
 10
-11.493680
 20
33.976879
 30
0.0
 11
-11.600606
 21
34.007383
 31
0.0
  0
LINE
  5
175
100
AcDbEntity
  8
0
 62
7
100
AcDbLine
 10
-11.600606
 20
34.007383
 30
0.0
 11
-12.459440
 21
34.252398
 31
0.0
  0
LINE
  5
176
100
AcDbEntity
  8
0
 62
7
100
AcDbLine
 10
-12.459440
 20
34.252398
 30
0.0
 11
-12.486000
 21
34.260999
 31
0.0
  0
LINE
  5
177
100
AcDbEntity
  8
0
 62
7
100
AcDbLine
 10
-12.486000
 20
34.260999
 30
0.0
 11
-12.511120
 21
34.273239
 31
0.0
  0
LINE
  5
178
100
AcDbEntity
  8
0
 62
7
100
AcDbLine
 10
-12.511120
 20
34.273239
 30
0.0
 11
-13.256080
 21
34.655319
 31
0.0
  0
LINE
  5
179
100
AcDbEntity
  8
0
 62
7
100
AcDbLine
 10
-13.256080
 20
34.655319
 30
0.0
 11
-13.279240
 21
34.670919
 31
0.0
  0
LINE
  5
17a
100
AcDbEntity
  8
0
 62
7
100
AcDbLine
 10
-13.279240
 20
34.670919
 30
0.0
 11
-13.821640
 21
35.064519
 31
0.0
  0
LINE
  5
17b
100
AcDbEntity
  8
0
 62
7
100
AcDbLine
 10
-13.821640
 20
35.064519
 30
0.0
 11
-13.842400
 21
35.083158
 31
0.0
  0
LINE
  5
17c
100
AcDbEntity
  8
0
 62
7
100
AcDbLine
 10
-13.842400
 20
35.083158
 30
0.0
 11
-14.324320
 21
35.547799
 31
0.0
  0
LINE
  5
17d
100
AcDbEntity
  8
0
 62
7
100
AcDbLine
 10
-14.324320
 20
35.547799
 30
0.0
 11
-14.342280
 21
35.569199
 31
0.0
  0
LINE
  5
17e
100
AcDbEntity
  8
0
 62
7
100
AcDbLine
 10
-14.342280
 20
35.569199
 30
0.0
 11
-14.658398
 21
35.954824
 31
0.0
  0
LINE
  5
17f
100
AcDbEntity
  8
0
 62
7
100
AcDbLine
 10
-14.658398
 20
35.954824
 30
0.0
 11
-14.661000
 21
35.957999
 31
0.0
  0
LINE
  5
180
100
AcDbEntity
  8
0
 62
7
100
AcDbLine
 10
-14.661000
 20
35.957999
 30
0.0
 11
-14.668800
 21
35.969559
 31
0.0
  0
LINE
  5
181
100
AcDbEntity
  8
0
 62
7
100
AcDbLine
 10
-14.668800
 20
35.969559
 30
0.0
 11
-14.681920
 21
35.994239
 31
0.0
  0
LINE
  5
182
100
AcDbEntity
  8
0
 62
7
100
AcDbLine
 10
-14.681920
 20
35.994239
 30
0.0
 11
-15.111040
 21
36.713279
 31
0.0
  0
LINE
  5
183
100
AcDbEntity
  8
0
 62
7
100
AcDbLine
 10
-15.111040
 20
36.713279
 30
0.0
 11
-15.118440
 21
36.732839
 31
0.0
  0
LINE
  5
184
100
AcDbEntity
  8
0
 62
7
100
AcDbLine
 10
-15.118440
 20
36.732839
 30
0.0
 11
-15.317160
 21
37.193639
 31
0.0
  0
LINE
  5
185
100
AcDbEntity
  8
0
 62
7
100
AcDbLine
 10
-15.317160
 20
37.193639
 30
0.0
 11
-15.420840
 21
37.513319
 31
0.0
  0
LINE
  5
186
100
AcDbEntity
  8
0
 62
7
100
AcDbLine
 10
-15.420840
 20
37.513319
 30
0.0
 11
-15.427600
 21
37.540399
 31
0.0
  0
LINE
  5
187
100
AcDbEntity
  8
0
 62
7
100
AcDbLine
 10
-15.427600
 20
37.540399
 30
0.0
 11
-15.509200
 21
37.864879
 31
0.0
  0
LINE
  5
188
100
AcDbEntity
  8
0
 62
7
100
AcDbLine
 10
-15.509200
 20
37.864879
 30
0.0
 11
-15.510142
 21
37.871055
 31
0.0
  0
LINE
  5
189
100
AcDbEntity
  8
0
 62
7
100
AcDbLine
 10
-15.510142
 20
37.871055
 30
0.0
 11
-15.585040
 21
38.362159
 31
0.0
  0
LINE
  5
18a
100
AcDbEntity
  8
0
 62
7
100
AcDbLine
 10
-15.585040
 20
38.362159
 30
0.0
 11
-15.587720
 21
38.382959
 31
0.0
  0
LINE
  5
18b
100
AcDbEntity
  8
0
 62
7
100
AcDbLine
 10
-15.587720
 20
38.382959
 30
0.0
 11
-15.588200
 21
38.396919
 31
0.0
  0
LINE
  5
18c
100
AcDbEntity
  8
0
 62
7
100
AcDbLine
 10
-15.588200
 20
38.396919
 30
0.0
 11
-15.617000
 21
38.898999
 31
0.0
  0
LINE
  5
18d
100
AcDbEntity
  8
0
 62
7
100
AcDbLine
 10
-15.617000
 20
38.898999
 30
0.0
 11
-15.617000
 21
39.234519
 31
0.0
  0
LINE
  5
18e
100
AcDbEntity
  8
0
 62
7
100
AcDbLine
 10
-15.617000
 20
39.234519
 30
0.0
 11
-15.617000
 21
42.045999
 31
0.0
  0
LINE
  5
18f
100
AcDbEntity
  8
0
 62
7
100
AcDbLine
 10
-15.617000
 20
42.045999
 30
0.0
 11
-15.617000
 21
50.237999
 31
0.0
  0
LINE
  5
190
100
AcDbEntity
  8
0
 62
7
100
AcDbLine
 10
-15.617000
 20
50.237999
 30
0.0
 11
-15.617000
 21
51.016999
 31
0.0
  0
LINE
  5
191
100
AcDbEntity
  8
0
 62
7
100
AcDbLine
 10
-15.617000
 20
51.016999
 30
0.0
 11
-15.629480
 21
51.222439
 31
0.0
  0
LINE
  5
192
100
AcDbEntity
  8
0
 62
7
100
AcDbLine
 10
-15.629480
 20
51.222439
 30
0.0
 11
-15.631320
 21
51.239479
 31
0.0
  0
LINE
  5
193
100
AcDbEntity
  8
0
 62
7
100
AcDbLine
 10
-15.631320
 20
51.239479
 30
0.0
 11
-15.663000
 21
51.442999
 31
0.0
  0
LINE
  5
194
100
AcDbEntity
  8
0
 62
7
100
AcDbLine
 10
-15.663000
 20
51.442999
 30
0.0
 11
-15.698000
 21
51.580999
 31
0.0
  0
LINE
  5
195
100
AcDbEntity
  8
0
 62
7
100
AcDbLine
 10
-15.698000
 20
51.580999
 30
0.0
 11
-15.700920
 21
51.589039
 31
0.0
  0
LINE
  5
196
100
AcDbEntity
  8
0
 62
7
100
AcDbLine
 10
-15.700920
 20
51.589039
 30
0.0
 11
-15.858360
 21
51.968239
 31
0.0
  0
LINE
  5
197
100
AcDbEntity
  8
0
 62
7
100
AcDbLine
 10
-15.858360
 20
51.968239
 30
0.0
 11
-15.862000
 21
51.975999
 31
0.0
  0
LINE
  5
198
100
AcDbEntity
  8
0
 62
7
100
AcDbLine
 10
-15.862000
 20
51.975999
 30
0.0
 11
-16.016001
 21
52.215999
 31
0.0
  0
LINE
  5
199
100
AcDbEntity
  8
0
 62
7
100
AcDbLine
 10
-16.016001
 20
52.215999
 30
0.0
 11
-16.202999
 21
52.431999
 31
0.0
  0
LINE
  5
19a
100
AcDbEntity
  8
0
 62
7
100
AcDbLine
 10
-16.202999
 20
52.431999
 30
0.0
 11
-16.384001
 21
52.612967
 31
0.0
  0
LINE
  5
19b
100
AcDbEntity
  8
0
 62
7
100
AcDbLine
 10
-16.384001
 20
52.612967
 30
0.0
 11
-21.813999
 21
58.041999
 31
0.0
  0
LINE
  5
19c
100
AcDbEntity
  8
0
 62
7
100
AcDbLine
 10
-21.813999
 20
58.041999
 30
0.0
 11
-22.082001
 21
58.374999
 31
0.0
  0
LINE
  5
19d
100
AcDbEntity
  8
0
 62
7
100
AcDbLine
 10
-22.082001
 20
58.374999
 30
0.0
 11
-22.114643
 21
58.429999
 31
0.0
  0
LINE
  5
19e
100
AcDbEntity
  8
0
 62
7
100
AcDbLine
 10
-22.114643
 20
58.429999
 30
0.0
 11
-22.155001
 21
58.497999
 31
0.0
  0
LINE
  5
19f
100
AcDbEntity
  8
0
 62
7
100
AcDbLine
 10
-22.155001
 20
58.497999
 30
0.0
 11
-22.274000
 21
58.757999
 31
0.0
  0
LINE
  5
1a0
100
AcDbEntity
  8
0
 62
7
100
AcDbLine
 10
-22.274000
 20
58.757999
 30
0.0
 11
-22.276520
 21
58.766159
 31
0.0
  0
LINE
  5
1a1
100
AcDbEntity
  8
0
 62
7
100
AcDbLine
 10
-22.276520
 20
58.766159
 30
0.0
 11
-22.353319
 21
59.028239
 31
0.0
  0
LINE
  5
1a2
100
AcDbEntity
  8
0
 62
7
100
AcDbLine
 10
-22.353319
 20
59.028239
 30
0.0
 11
-22.355640
 21
59.042319
 31
0.0
  0
LINE
  5
1a3
100
AcDbEntity
  8
0
 62
7
100
AcDbLine
 10
-22.355640
 20
59.042319
 30
0.0
 11
-22.387320
 21
59.245839
 31
0.0
  0
LINE
  5
1a4
100
AcDbEntity
  8
0
 62
7
100
AcDbLine
 10
-22.387320
 20
59.245839
 30
0.0
 11
-22.387400
 21
59.254399
 31
0.0
  0
LINE
  5
1a5
100
AcDbEntity
  8
0
 62
7
100
AcDbLine
 10
-22.387400
 20
59.254399
 30
0.0
 11
-22.399843
 21
59.459229
 31
0.0
  0
LINE
  5
1a6
100
AcDbEntity
  8
0
 62
7
100
AcDbLine
 10
-22.399843
 20
59.459229
 30
0.0
 11
-22.399879
 21
59.459839
 31
0.0
  0
LINE
  5
1a7
100
AcDbEntity
  8
0
 62
7
100
AcDbLine
 10
-22.399879
 20
59.459839
 30
0.0
 11
-22.399200
 21
59.468359
 31
0.0
  0
LINE
  5
1a8
100
AcDbEntity
  8
0
 62
7
100
AcDbLine
 10
-22.399200
 20
59.468359
 30
0.0
 11
-22.390549
 21
59.591219
 31
0.0
  0
LINE
  5
1a9
100
AcDbEntity
  8
0
 62
7
100
AcDbLine
 10
-22.390549
 20
59.591219
 30
0.0
 11
-22.379999
 21
59.740999
 31
0.0
  0
LINE
  5
1aa
100
AcDbEntity
  8
0
 62
7
100
AcDbLine
 10
-22.379999
 20
59.740999
 30
0.0
 11
-22.378960
 21
59.746639
 31
0.0
  0
LINE
  5
1ab
100
AcDbEntity
  8
0
 62
7
100
AcDbLine
 10
-22.378960
 20
59.746639
 30
0.0
 11
-22.375759
 21
59.757599
 31
0.0
  0
LINE
  5
1ac
100
AcDbEntity
  8
0
 62
7
100
AcDbLine
 10
-22.375759
 20
59.757599
 30
0.0
 11
-22.317200
 21
60.025439
 31
0.0
  0
LINE
  5
1ad
100
AcDbEntity
  8
0
 62
7
100
AcDbLine
 10
-22.317200
 20
60.025439
 30
0.0
 11
-22.274000
 21
60.155999
 31
0.0
  0
LINE
  5
1ae
100
AcDbEntity
  8
0
 62
7
100
AcDbLine
 10
-22.274000
 20
60.155999
 30
0.0
 11
-22.231865
 21
60.250440
 31
0.0
  0
LINE
  5
1af
100
AcDbEntity
  8
0
 62
7
100
AcDbLine
 10
-22.231865
 20
60.250440
 30
0.0
 11
-22.187000
 21
60.350999
 31
0.0
  0
LINE
  5
1b0
100
AcDbEntity
  8
0
 62
7
100
AcDbLine
 10
-22.187000
 20
60.350999
 30
0.0
 11
-22.042000
 21
60.596999
 31
0.0
  0
LINE
  5
1b1
100
AcDbEntity
  8
0
 62
7
100
AcDbLine
 10
-22.042000
 20
60.596999
 30
0.0
 11
-21.910999
 21
60.765999
 31
0.0
  0
LINE
  5
1b2
100
AcDbEntity
  8
0
 62
7
100
AcDbLine
 10
-21.910999
 20
60.765999
 30
0.0
 11
-21.813999
 21
60.870999
 31
0.0
  0
LINE
  5
1b3
100
AcDbEntity
  8
0
 62
7
100
AcDbLine
 10
-21.813999
 20
60.870999
 30
0.0
 11
-20.159000
 21
62.525999
 31
0.0
  0
LINE
  5
1b4
100
AcDbEntity
  8
0
 62
7
100
AcDbLine
 10
-20.159000
 20
62.525999
 30
0.0
 11
-19.837999
 21
62.846999
 31
0.0
  0
LINE
  5
1b5
100
AcDbEntity
  8
0
 62
7
100
AcDbLine
 10
-19.837999
 20
62.846999
 30
0.0
 11
-19.622000
 21
63.033998
 31
0.0
  0
LINE
  5
1b6
100
AcDbEntity
  8
0
 62
7
100
AcDbLine
 10
-19.622000
 20
63.033998
 30
0.0
 11
-19.254000
 21
63.251999
 31
0.0
  0
LINE
  5
1b7
100
AcDbEntity
  8
0
 62
7
100
AcDbLine
 10
-19.254000
 20
63.251999
 30
0.0
 11
-18.849001
 21
63.386999
 31
0.0
  0
LINE
  5
1b8
100
AcDbEntity
  8
0
 62
7
100
AcDbLine
 10
-18.849001
 20
63.386999
 30
0.0
 11
-18.440041
 21
63.431159
 31
0.0
  0
LINE
  5
1b9
100
AcDbEntity
  8
0
 62
7
100
AcDbLine
 10
-18.440041
 20
63.431159
 30
0.0
 11
-18.428720
 21
63.432799
 31
0.0
  0
LINE
  5
1ba
100
AcDbEntity
  8
0
 62
7
100
AcDbLine
 10
-18.428720
 20
63.432799
 30
0.0
 11
-18.423000
 21
63.432999
 31
0.0
  0
LINE
  5
1bb
100
AcDbEntity
  8
0
 62
7
100
AcDbLine
 10
-18.423000
 20
63.432999
 30
0.0
 11
-18.414480
 21
63.432479
 31
0.0
  0
LINE
  5
1bc
100
AcDbEntity
  8
0
 62
7
100
AcDbLine
 10
-18.414480
 20
63.432479
 30
0.0
 11
-18.278160
 21
63.427679
 31
0.0
  0
LINE
  5
1bd
100
AcDbEntity
  8
0
 62
7
100
AcDbLine
 10
-18.278160
 20
63.427679
 30
0.0
 11
-18.236177
 21
63.421597
 31
0.0
  0
LINE
  5
1be
100
AcDbEntity
  8
0
 62
7
100
AcDbLine
 10
-18.236177
 20
63.421597
 30
0.0
 11
-18.006479
 21
63.388319
 31
0.0
  0
LINE
  5
1bf
100
AcDbEntity
  8
0
 62
7
100
AcDbLine
 10
-18.006479
 20
63.388319
 30
0.0
 11
-17.997999
 21
63.386999
 31
0.0
  0
LINE
  5
1c0
100
AcDbEntity
  8
0
 62
7
100
AcDbLine
 10
-17.997999
 20
63.386999
 30
0.0
 11
-17.792000
 21
63.328999
 31
0.0
  0
LINE
  5
1c1
100
AcDbEntity
  8
0
 62
7
100
AcDbLine
 10
-17.792000
 20
63.328999
 30
0.0
 11
-17.781481
 21
63.324639
 31
0.0
  0
LINE
  5
1c2
100
AcDbEntity
  8
0
 62
7
100
AcDbLine
 10
-17.781481
 20
63.324639
 30
0.0
 11
-17.590441
 21
63.250719
 31
0.0
  0
LINE
  5
1c3
100
AcDbEntity
  8
0
 62
7
100
AcDbLine
 10
-17.590441
 20
63.250719
 30
0.0
 11
-17.528999
 21
63.219999
 31
0.0
  0
LINE
  5
1c4
100
AcDbEntity
  8
0
 62
7
100
AcDbLine
 10
-17.528999
 20
63.219999
 30
0.0
 11
-17.467560
 21
63.189279
 31
0.0
  0
LINE
  5
1c5
100
AcDbEntity
  8
0
 62
7
100
AcDbLine
 10
-17.467560
 20
63.189279
 30
0.0
 11
-17.457720
 21
63.183479
 31
0.0
  0
LINE
  5
1c6
100
AcDbEntity
  8
0
 62
7
100
AcDbLine
 10
-17.457720
 20
63.183479
 30
0.0
 11
-17.120760
 21
62.949239
 31
0.0
  0
LINE
  5
1c7
100
AcDbEntity
  8
0
 62
7
100
AcDbLine
 10
-17.120760
 20
62.949239
 30
0.0
 11
-17.114000
 21
62.943999
 31
0.0
  0
LINE
  5
1c8
100
AcDbEntity
  8
0
 62
7
100
AcDbLine
 10
-17.114000
 20
62.943999
 30
0.0
 11
-17.009001
 21
62.846999
 31
0.0
  0
LINE
  5
1c9
100
AcDbEntity
  8
0
 62
7
100
AcDbLine
 10
-17.009001
 20
62.846999
 30
0.0
 11
-16.688000
 21
62.525999
 31
0.0
  0
LINE
  5
1ca
100
AcDbEntity
  8
0
 62
7
100
AcDbLine
 10
-16.688000
 20
62.525999
 30
0.0
 11
-16.384001
 21
62.221999
 31
0.0
  0
LINE
  5
1cb
100
AcDbEntity
  8
0
 62
7
100
AcDbLine
 10
-16.384001
 20
62.221999
 30
0.0
 11
-15.617000
 21
61.454999
 31
0.0
  0
LINE
  5
1cc
100
AcDbEntity
  8
0
 62
7
100
AcDbLine
 10
-15.617000
 20
61.454999
 30
0.0
 11
-15.617000
 21
62.525999
 31
0.0
  0
LINE
  5
1cd
100
AcDbEntity
  8
0
 62
7
100
AcDbLine
 10
-15.617000
 20
62.525999
 30
0.0
 11
-15.617000
 21
66.622000
 31
0.0
  0
LINE
  5
1ce
100
AcDbEntity
  8
0
 62
7
100
AcDbLine
 10
-15.617000
 20
66.622000
 30
0.0
 11
-15.617000
 21
69.356998
 31
0.0
  0
LINE
  5
1cf
100
AcDbEntity
  8
0
 62
7
100
AcDbLine
 10
-15.617000
 20
69.356998
 30
0.0
 11
-15.604000
 21
69.713999
 31
0.0
  0
LINE
  5
1d0
100
AcDbEntity
  8
0
 62
7
100
AcDbLine
 10
-15.604000
 20
69.713999
 30
0.0
 11
-15.566000
 21
70.068998
 31
0.0
  0
LINE
  5
1d1
100
AcDbEntity
  8
0
 62
7
100
AcDbLine
 10
-15.566000
 20
70.068998
 30
0.0
 11
-15.503000
 21
70.419998
 31
0.0
  0
LINE
  5
1d2
100
AcDbEntity
  8
0
 62
7
100
AcDbLine
 10
-15.503000
 20
70.419998
 30
0.0
 11
-15.427208
 21
70.717999
 31
0.0
  0
LINE
  5
1d3
100
AcDbEntity
  8
0
 62
7
100
AcDbLine
 10
-15.427208
 20
70.717999
 30
0.0
 11
-15.415000
 21
70.765999
 31
0.0
  0
LINE
  5
1d4
100
AcDbEntity
  8
0
 62
7
100
AcDbLine
 10
-15.415000
 20
70.765999
 30
0.0
 11
-15.302000
 21
71.103998
 31
0.0
  0
LINE
  5
1d5
100
AcDbEntity
  8
0
 62
7
100
AcDbLine
 10
-15.302000
 20
71.103998
 30
0.0
 11
-15.165000
 21
71.433998
 31
0.0
  0
LINE
  5
1d6
100
AcDbEntity
  8
0
 62
7
100
AcDbLine
 10
-15.165000
 20
71.433998
 30
0.0
 11
-15.006000
 21
71.752998
 31
0.0
  0
LINE
  5
1d7
100
AcDbEntity
  8
0
 62
7
100
AcDbLine
 10
-15.006000
 20
71.752998
 30
0.0
 11
-14.823000
 21
72.059999
 31
0.0
  0
LINE
  5
1d8
100
AcDbEntity
  8
0
 62
7
100
AcDbLine
 10
-14.823000
 20
72.059999
 30
0.0
 11
-14.620000
 21
72.353998
 31
0.0
  0
LINE
  5
1d9
100
AcDbEntity
  8
0
 62
7
100
AcDbLine
 10
-14.620000
 20
72.353998
 30
0.0
 11
-14.396000
 21
72.630999
 31
0.0
  0
LINE
  5
1da
100
AcDbEntity
  8
0
 62
7
100
AcDbLine
 10
-14.396000
 20
72.630999
 30
0.0
 11
-14.153000
 21
72.893000
 31
0.0
  0
LINE
  5
1db
100
AcDbEntity
  8
0
 62
7
100
AcDbLine
 10
-14.153000
 20
72.893000
 30
0.0
 11
-13.891000
 21
73.136000
 31
0.0
  0
LINE
  5
1dc
100
AcDbEntity
  8
0
 62
7
100
AcDbLine
 10
-13.891000
 20
73.136000
 30
0.0
 11
-13.613000
 21
73.359999
 31
0.0
  0
LINE
  5
1dd
100
AcDbEntity
  8
0
 62
7
100
AcDbLine
 10
-13.613000
 20
73.359999
 30
0.0
 11
-13.320000
 21
73.563000
 31
0.0
  0
LINE
  5
1de
100
AcDbEntity
  8
0
 62
7
100
AcDbLine
 10
-13.320000
 20
73.563000
 30
0.0
 11
-13.013000
 21
73.745998
 31
0.0
  0
LINE
  5
1df
100
AcDbEntity
  8
0
 62
7
100
AcDbLine
 10
-13.013000
 20
73.745998
 30
0.0
 11
-12.694000
 21
73.904999
 31
0.0
  0
LINE
  5
1e0
100
AcDbEntity
  8
0
 62
7
100
AcDbLine
 10
-12.694000
 20
73.904999
 30
0.0
 11
-12.364000
 21
74.042000
 31
0.0
  0
LINE
  5
1e1
100
AcDbEntity
  8
0
 62
7
100
AcDbLine
 10
-12.364000
 20
74.042000
 30
0.0
 11
-12.288000
 21
74.067408
 31
0.0
  0
LINE
  5
1e2
100
AcDbEntity
  8
0
 62
7
100
AcDbLine
 10
-12.288000
 20
74.067408
 30
0.0
 11
-12.026000
 21
74.154999
 31
0.0
  0
LINE
  5
1e3
100
AcDbEntity
  8
0
 62
7
100
AcDbLine
 10
-12.026000
 20
74.154999
 30
0.0
 11
-11.680000
 21
74.242998
 31
0.0
  0
LINE
  5
1e4
100
AcDbEntity
  8
0
 62
7
100
AcDbLine
 10
-11.680000
 20
74.242998
 30
0.0
 11
-11.328000
 21
74.306000
 31
0.0
  0
LINE
  5
1e5
100
AcDbEntity
  8
0
 62
7
100
AcDbLine
 10
-11.328000
 20
74.306000
 30
0.0
 11
-10.974000
 21
74.344000
 31
0.0
  0
LINE
  5
1e6
100
AcDbEntity
  8
0
 62
7
100
AcDbLine
 10
-10.974000
 20
74.344000
 30
0.0
 11
-10.617000
 21
74.356998
 31
0.0
  0
LINE
  5
1e7
100
AcDbEntity
  8
0
 62
7
100
AcDbLine
 10
-10.617000
 20
74.356998
 30
0.0
 11
-8.192000
 21
74.356998
 31
0.0
  0
LINE
  5
1e8
100
AcDbEntity
  8
0
 62
7
100
AcDbLine
 10
-8.192000
 20
74.356998
 30
0.0
 11
0.000000
 21
74.356998
 31
0.0
  0
LINE
  5
1e9
100
AcDbEntity
  8
0
 62
7
100
AcDbLine
 10
0.000000
 20
74.356998
 30
0.0
 11
8.192000
 21
74.356998
 31
0.0
  0
LINE
  5
1ea
100
AcDbEntity
  8
0
 62
7
100
AcDbLine
 10
8.192000
 20
74.356998
 30
0.0
 11
9.385000
 21
74.356998
 31
0.0
  0
LINE
  5
1eb
100
AcDbEntity
  8
0
 62
7
100
AcDbLine
 10
9.385000
 20
74.356998
 30
0.0
 11
9.741000
 21
74.344000
 31
0.0
  0
LINE
  5
1ec
100
AcDbEntity
  8
0
 62
7
100
AcDbLine
 10
9.741000
 20
74.344000
 30
0.0
 11
10.096000
 21
74.306000
 31
0.0
  0
LINE
  5
1ed
100
AcDbEntity
  8
0
 62
7
100
AcDbLine
 10
10.096000
 20
74.306000
 30
0.0
 11
10.447000
 21
74.242998
 31
0.0
  0
LINE
  5
1ee
100
AcDbEntity
  8
0
 62
7
100
AcDbLine
 10
10.447000
 20
74.242998
 30
0.0
 11
10.793000
 21
74.154999
 31
0.0
  0
LINE
  5
1ef
100
AcDbEntity
  8
0
 62
7
100
AcDbLine
 10
10.793000
 20
74.154999
 30
0.0
 11
11.132000
 21
74.042000
 31
0.0
  0
LINE
  5
1f0
100
AcDbEntity
  8
0
 62
7
100
AcDbLine
 10
11.132000
 20
74.042000
 30
0.0
 11
11.462000
 21
73.904999
 31
0.0
  0
LINE
  5
1f1
100
AcDbEntity
  8
0
 62
7
100
AcDbLine
 10
11.462000
 20
73.904999
 30
0.0
 11
11.781000
 21
73.745998
 31
0.0
  0
LINE
  5
1f2
100
AcDbEntity
  8
0
 62
7
100
AcDbLine
 10
11.781000
 20
73.745998
 30
0.0
 11
12.088000
 21
73.563000
 31
0.0
  0
LINE
  5
1f3
100
AcDbEntity
  8
0
 62
7
100
AcDbLine
 10
12.088000
 20
73.563000
 30
0.0
 11
12.288000
 21
73.424433
 31
0.0
  0
LINE
  5
1f4
100
AcDbEntity
  8
0
 62
7
100
AcDbLine
 10
12.288000
 20
73.424433
 30
0.0
 11
12.381000
 21
73.359999
 31
0.0
  0
LINE
  5
1f5
100
AcDbEntity
  8
0
 62
7
100
AcDbLine
 10
12.381000
 20
73.359999
 30
0.0
 11
12.659000
 21
73.136000
 31
0.0
  0
LINE
  5
1f6
100
AcDbEntity
  8
0
 62
7
100
AcDbLine
 10
12.659000
 20
73.136000
 30
0.0
 11
12.920000
 21
72.893000
 31
0.0
  0
LINE
  5
1f7
100
AcDbEntity
  8
0
 62
7
100
AcDbLine
 10
12.920000
 20
72.893000
 30
0.0
 11
13.164000
 21
72.630999
 31
0.0
  0
LINE
  5
1f8
100
AcDbEntity
  8
0
 62
7
100
AcDbLine
 10
13.164000
 20
72.630999
 30
0.0
 11
13.388000
 21
72.353998
 31
0.0
  0
LINE
  5
1f9
100
AcDbEntity
  8
0
 62
7
100
AcDbLine
 10
13.388000
 20
72.353998
 30
0.0
 11
13.591000
 21
72.059999
 31
0.0
  0
LINE
  5
1fa
100
AcDbEntity
  8
0
 62
7
100
AcDbLine
 10
13.591000
 20
72.059999
 30
0.0
 11
13.773000
 21
71.752998
 31
0.0
  0
LINE
  5
1fb
100
AcDbEntity
  8
0
 62
7
100
AcDbLine
 10
13.773000
 20
71.752998
 30
0.0
 11
13.933000
 21
71.433998
 31
0.0
  0
LINE
  5
1fc
100
AcDbEntity
  8
0
 62
7
100
AcDbLine
 10
13.933000
 20
71.433998
 30
0.0
 11
14.070000
 21
71.103998
 31
0.0
  0
LINE
  5
1fd
100
AcDbEntity
  8
0
 62
7
100
AcDbLine
 10
14.070000
 20
71.103998
 30
0.0
 11
14.182000
 21
70.765999
 31
0.0
  0
LINE
  5
1fe
100
AcDbEntity
  8
0
 62
7
100
AcDbLine
 10
14.182000
 20
70.765999
 30
0.0
 11
14.271000
 21
70.419998
 31
0.0
  0
LINE
  5
1ff
100
AcDbEntity
  8
0
 62
7
100
AcDbLine
 10
14.271000
 20
70.419998
 30
0.0
 11
14.334000
 21
70.068998
 31
0.0
  0
LINE
  5
200
100
AcDbEntity
  8
0
 62
7
100
AcDbLine
 10
14.334000
 20
70.068998
 30
0.0
 11
14.372000
 21
69.713999
 31
0.0
  0
LINE
  5
201
100
AcDbEntity
  8
0
 62
7
100
AcDbLine
 10
14.372000
 20
69.713999
 30
0.0
 11
14.385000
 21
69.356998
 31
0.0
  0
LINE
  5
202
100
AcDbEntity
  8
0
 62
7
100
AcDbLine
 10
14.385000
 20
69.356998
 30
0.0
 11
14.385000
 21
66.622000
 31
0.0
  0
LINE
  5
203
100
AcDbEntity
  8
0
 62
7
100
AcDbLine
 10
14.385000
 20
66.622000
 30
0.0
 11
14.385000
 21
61.456999
 31
0.0
  0
LINE
  5
204
100
AcDbEntity
  8
0
 62
7
100
AcDbLine
 10
14.385000
 20
61.456999
 30
0.0
 11
14.405000
 21
61.171999
 31
0.0
  0
LINE
  5
205
100
AcDbEntity
  8
0
 62
7
100
AcDbLine
 10
14.405000
 20
61.171999
 30
0.0
 11
14.406720
 21
61.163599
 31
0.0
  0
LINE
  5
206
100
AcDbEntity
  8
0
 62
7
100
AcDbLine
 10
14.406720
 20
61.163599
 30
0.0
 11
14.508480
 21
60.766159
 31
0.0
  0
LINE
  5
207
100
AcDbEntity
  8
0
 62
7
100
AcDbLine
 10
14.508480
 20
60.766159
 30
0.0
 11
14.511000
 21
60.757999
 31
0.0
  0
LINE
  5
208
100
AcDbEntity
  8
0
 62
7
100
AcDbLine
 10
14.511000
 20
60.757999
 30
0.0
 11
14.598000
 21
60.561999
 31
0.0
  0
LINE
  5
209
100
AcDbEntity
  8
0
 62
7
100
AcDbLine
 10
14.598000
 20
60.561999
 30
0.0
 11
14.737200
 21
60.326799
 31
0.0
  0
LINE
  5
20a
100
AcDbEntity
  8
0
 62
7
100
AcDbLine
 10
14.737200
 20
60.326799
 30
0.0
 11
14.741360
 21
60.319319
 31
0.0
  0
LINE
  5
20b
100
AcDbEntity
  8
0
 62
7
100
AcDbLine
 10
14.741360
 20
60.319319
 30
0.0
 11
14.742540
 21
60.317775
 31
0.0
  0
LINE
  5
20c
100
AcDbEntity
  8
0
 62
7
100
AcDbLine
 10
14.742540
 20
60.317775
 30
0.0
 11
14.866160
 21
60.156119
 31
0.0
  0
LINE
  5
20d
100
AcDbEntity
  8
0
 62
7
100
AcDbLine
 10
14.866160
 20
60.156119
 30
0.0
 11
14.873000
 21
60.146999
 31
0.0
  0
LINE
  5
20e
100
AcDbEntity
  8
0
 62
7
100
AcDbLine
 10
14.873000
 20
60.146999
 30
0.0
 11
14.873610
 21
60.146378
 31
0.0
  0
LINE
  5
20f
100
AcDbEntity
  8
0
 62
7
100
AcDbLine
 10
14.873610
 20
60.146378
 30
0.0
 11
14.879000
 21
60.140879
 31
0.0
  0
LINE
  5
210
100
AcDbEntity
  8
0
 62
7
100
AcDbLine
 10
14.879000
 20
60.140879
 30
0.0
 11
15.179480
 21
59.861519
 31
0.0
  0
LINE
  5
211
100
AcDbEntity
  8
0
 62
7
100
AcDbLine
 10
15.179480
 20
59.861519
 30
0.0
 11
15.186000
 21
59.855999
 31
0.0
  0
LINE
  5
212
100
AcDbEntity
  8
0
 62
7
100
AcDbLine
 10
15.186000
 20
59.855999
 30
0.0
 11
15.554000
 21
59.636999
 31
0.0
  0
LINE
  5
213
100
AcDbEntity
  8
0
 62
7
100
AcDbLine
 10
15.554000
 20
59.636999
 30
0.0
 11
15.873932
 21
59.530618
 31
0.0
  0
LINE
  5
214
100
AcDbEntity
  8
0
 62
7
100
AcDbLine
 10
15.873932
 20
59.530618
 30
0.0
 11
15.943760
 21
59.507399
 31
0.0
  0
LINE
  5
215
100
AcDbEntity
  8
0
 62
7
100
AcDbLine
 10
15.943760
 20
59.507399
 30
0.0
 11
15.953120
 21
59.503959
 31
0.0
  0
LINE
  5
216
100
AcDbEntity
  8
0
 62
7
100
AcDbLine
 10
15.953120
 20
59.503959
 30
0.0
 11
15.955249
 21
59.503579
 31
0.0
  0
LINE
  5
217
100
AcDbEntity
  8
0
 62
7
100
AcDbLine
 10
15.955249
 20
59.503579
 30
0.0
 11
16.087521
 21
59.479959
 31
0.0
  0
LINE
  5
218
100
AcDbEntity
  8
0
 62
7
100
AcDbLine
 10
16.087521
 20
59.479959
 30
0.0
 11
16.100000
 21
59.476999
 31
0.0
  0
LINE
  5
219
100
AcDbEntity
  8
0
 62
7
100
AcDbLine
 10
16.100000
 20
59.476999
 30
0.0
 11
16.384001
 21
59.457069
 31
0.0
  0
LINE
  5
21a
100
AcDbEntity
  8
0
 62
7
100
AcDbLine
 10
16.384001
 20
59.457069
 30
0.0
 11
16.385000
 21
59.456999
 31
0.0
  0
LINE
  5
21b
100
AcDbEntity
  8
0
 62
7
100
AcDbLine
 10
16.385000
 20
59.456999
 30
0.0
 11
20.400000
 21
59.456999
 31
0.0
  0
LINE
  5
21c
100
AcDbEntity
  8
0
 62
7
100
AcDbLine
 10
20.400000
 20
59.456999
 30
0.0
 11
20.825001
 21
59.410999
 31
0.0
  0
LINE
  5
21d
100
AcDbEntity
  8
0
 62
7
100
AcDbLine
 10
20.825001
 20
59.410999
 30
0.0
 11
20.833241
 21
59.408679
 31
0.0
  0
LINE
  5
21e
100
AcDbEntity
  8
0
 62
7
100
AcDbLine
 10
20.833241
 20
59.408679
 30
0.0
 11
20.965719
 21
59.375079
 31
0.0
  0
LINE
  5
21f
100
AcDbEntity
  8
0
 62
7
100
AcDbLine
 10
20.965719
 20
59.375079
 30
0.0
 11
21.012070
 21
59.358329
 31
0.0
  0
LINE
  5
220
100
AcDbEntity
  8
0
 62
7
100
AcDbLine
 10
21.012070
 20
59.358329
 30
0.0
 11
21.159639
 21
59.304999
 31
0.0
  0
LINE
  5
221
100
AcDbEntity
  8
0
 62
7
100
AcDbLine
 10
21.159639
 20
59.304999
 30
0.0
 11
21.167641
 21
59.301919
 31
0.0
  0
LINE
  5
222
100
AcDbEntity
  8
0
 62
7
100
AcDbLine
 10
21.167641
 20
59.301919
 30
0.0
 11
21.172720
 21
59.299359
 31
0.0
  0
LINE
  5
223
100
AcDbEntity
  8
0
 62
7
100
AcDbLine
 10
21.172720
 20
59.299359
 30
0.0
 11
21.358000
 21
59.211999
 31
0.0
  0
LINE
  5
224
100
AcDbEntity
  8
0
 62
7
100
AcDbLine
 10
21.358000
 20
59.211999
 30
0.0
 11
21.372080
 21
59.202239
 31
0.0
  0
LINE
  5
225
100
AcDbEntity
  8
0
 62
7
100
AcDbLine
 10
21.372080
 20
59.202239
 30
0.0
 11
21.387194
 21
59.191278
 31
0.0
  0
LINE
  5
226
100
AcDbEntity
  8
0
 62
7
100
AcDbLine
 10
21.387194
 20
59.191278
 30
0.0
 11
21.759920
 21
58.920959
 31
0.0
  0
LINE
  5
227
100
AcDbEntity
  8
0
 62
7
100
AcDbLine
 10
21.759920
 20
58.920959
 30
0.0
 11
21.767960
 21
58.912879
 31
0.0
  0
LINE
  5
228
100
AcDbEntity
  8
0
 62
7
100
AcDbLine
 10
21.767960
 20
58.912879
 30
0.0
 11
21.910999
 21
58.765999
 31
0.0
  0
LINE
  5
229
100
AcDbEntity
  8
0
 62
7
100
AcDbLine
 10
21.910999
 20
58.765999
 30
0.0
 11
22.082001
 21
58.537999
 31
0.0
  0
LINE
  5
22a
100
AcDbEntity
  8
0
 62
7
100
AcDbLine
 10
22.082001
 20
58.537999
 30
0.0
 11
22.142641
 21
58.429999
 31
0.0
  0
LINE
  5
22b
100
AcDbEntity
  8
0
 62
7
100
AcDbLine
 10
22.142641
 20
58.429999
 30
0.0
 11
22.187000
 21
58.350999
 31
0.0
  0
LINE
  5
22c
100
AcDbEntity
  8
0
 62
7
100
AcDbLine
 10
22.187000
 20
58.350999
 30
0.0
 11
22.296000
 21
58.087999
 31
0.0
  0
LINE
  5
22d
100
AcDbEntity
  8
0
 62
7
100
AcDbLine
 10
22.296000
 20
58.087999
 30
0.0
 11
22.354000
 21
57.881999
 31
0.0
  0
LINE
  5
22e
100
AcDbEntity
  8
0
 62
7
100
AcDbLine
 10
22.354000
 20
57.881999
 30
0.0
 11
22.355320
 21
57.873519
 31
0.0
  0
LINE
  5
22f
100
AcDbEntity
  8
0
 62
7
100
AcDbLine
 10
22.355320
 20
57.873519
 30
0.0
 11
22.380280
 21
57.738159
 31
0.0
  0
LINE
  5
230
100
AcDbEntity
  8
0
 62
7
100
AcDbLine
 10
22.380280
 20
57.738159
 30
0.0
 11
22.383493
 21
57.692524
 31
0.0
  0
LINE
  5
231
100
AcDbEntity
  8
0
 62
7
100
AcDbLine
 10
22.383493
 20
57.692524
 30
0.0
 11
22.399481
 21
57.465519
 31
0.0
  0
LINE
  5
232
100
AcDbEntity
  8
0
 62
7
100
AcDbLine
 10
22.399481
 20
57.465519
 30
0.0
 11
22.400000
 21
57.456999
 31
0.0
  0
LINE
  5
233
100
AcDbEntity
  8
0
 62
7
100
AcDbLine
 10
22.400000
 20
57.456999
 30
0.0
 11
22.400000
 21
54.333999
 31
0.0
  0
LINE
  5
234
100
AcDbEntity
  8
0
 62
7
100
AcDbLine
 10
22.400000
 20
54.333999
 30
0.0
 11
22.400000
 21
52.952543
 31
0.0
  0
LINE
  5
235
100
AcDbEntity
  8
0
 62
7
100
AcDbLine
 10
22.400000
 20
52.952543
 30
0.0
 11
22.400000
 21
52.947999
 31
0.0
  0
LINE
  5
236
100
AcDbEntity
  8
0
 62
7
100
AcDbLine
 10
22.400000
 20
52.947999
 30
0.0
 11
22.399799
 21
52.942319
 31
0.0
  0
LINE
  5
237
100
AcDbEntity
  8
0
 62
7
100
AcDbLine
 10
22.399799
 20
52.942319
 30
0.0
 11
22.398680
 21
52.933799
 31
0.0
  0
LINE
  5
238
100
AcDbEntity
  8
0
 62
7
100
AcDbLine
 10
22.398680
 20
52.933799
 30
0.0
 11
22.379480
 21
52.661159
 31
0.0
  0
LINE
  5
239
100
AcDbEntity
  8
0
 62
7
100
AcDbLine
 10
22.379480
 20
52.661159
 30
0.0
 11
22.377560
 21
52.652839
 31
0.0
  0
LINE
  5
23a
100
AcDbEntity
  8
0
 62
7
100
AcDbLine
 10
22.377560
 20
52.652839
 30
0.0
 11
22.319000
 21
52.384999
 31
0.0
  0
LINE
  5
23b
100
AcDbEntity
  8
0
 62
7
100
AcDbLine
 10
22.319000
 20
52.384999
 30
0.0
 11
22.311686
 21
52.367380
 31
0.0
  0
LINE
  5
23c
100
AcDbEntity
  8
0
 62
7
100
AcDbLine
 10
22.311686
 20
52.367380
 30
0.0
 11
22.155001
 21
51.989999
 31
0.0
  0
LINE
  5
23d
100
AcDbEntity
  8
0
 62
7
100
AcDbLine
 10
22.155001
 20
51.989999
 30
0.0
 11
22.082001
 21
51.866999
 31
0.0
  0
LINE
  5
23e
100
AcDbEntity
  8
0
 62
7
100
AcDbLine
 10
22.082001
 20
51.866999
 30
0.0
 11
21.910999
 21
51.638999
 31
0.0
  0
LINE
  5
23f
100
AcDbEntity
  8
0
 62
7
100
AcDbLine
 10
21.910999
 20
51.638999
 30
0.0
 11
21.599001
 21
51.346999
 31
0.0
  0
LINE
  5
240
100
AcDbEntity
  8
0
 62
7
100
AcDbLine
 10
21.599001
 20
51.346999
 30
0.0
 11
21.584280
 21
51.338279
 31
0.0
  0
LINE
  5
241
100
AcDbEntity
  8
0
 62
7
100
AcDbLine
 10
21.584280
 20
51.338279
 30
0.0
 11
21.352921
 21
51.190439
 31
0.0
  0
LINE
  5
242
100
AcDbEntity
  8
0
 62
7
100
AcDbLine
 10
21.352921
 20
51.190439
 30
0.0
 11
21.231001
 21
51.128999
 31
0.0
  0
LINE
  5
243
100
AcDbEntity
  8
0
 62
7
100
AcDbLine
 10
21.231001
 20
51.128999
 30
0.0
 11
21.223000
 21
51.125919
 31
0.0
  0
LINE
  5
244
100
AcDbEntity
  8
0
 62
7
100
AcDbLine
 10
21.223000
 20
51.125919
 30
0.0
 11
21.200052
 21
51.116357
 31
0.0
  0
LINE
  5
245
100
AcDbEntity
  8
0
 62
7
100
AcDbLine
 10
21.200052
 20
51.116357
 30
0.0
 11
21.096279
 21
51.073119
 31
0.0
  0
LINE
  5
246
100
AcDbEntity
  8
0
 62
7
100
AcDbLine
 10
21.096279
 20
51.073119
 30
0.0
 11
21.047676
 21
51.058419
 31
0.0
  0
LINE
  5
247
100
AcDbEntity
  8
0
 62
7
100
AcDbLine
 10
21.047676
 20
51.058419
 30
0.0
 11
20.899481
 21
51.013599
 31
0.0
  0
LINE
  5
248
100
AcDbEntity
  8
0
 62
7
100
AcDbLine
 10
20.899481
 20
51.013599
 30
0.0
 11
20.891239
 21
51.011279
 31
0.0
  0
LINE
  5
249
100
AcDbEntity
  8
0
 62
7
100
AcDbLine
 10
20.891239
 20
51.011279
 30
0.0
 11
20.885639
 21
51.010279
 31
0.0
  0
LINE
  5
24a
100
AcDbEntity
  8
0
 62
7
100
AcDbLine
 10
20.885639
 20
51.010279
 30
0.0
 11
20.684999
 21
50.968999
 31
0.0
  0
LINE
  5
24b
100
AcDbEntity
  8
0
 62
7
100
AcDbLine
 10
20.684999
 20
50.968999
 30
0.0
 11
20.633026
 21
50.965169
 31
0.0
  0
LINE
  5
24c
100
AcDbEntity
  8
0
 62
7
100
AcDbLine
 10
20.633026
 20
50.965169
 30
0.0
 11
20.400000
 21
50.947999
 31
0.0
  0
LINE
  5
24d
100
AcDbEntity
  8
0
 62
7
100
AcDbLine
 10
20.400000
 20
50.947999
 30
0.0
 11
16.385000
 21
50.947999
 31
0.0
  0
LINE
  5
24e
100
AcDbEntity
  8
0
 62
7
100
AcDbLine
 10
16.385000
 20
50.947999
 30
0.0
 11
16.384001
 21
50.947964
 31
0.0
  0
LINE
  5
24f
100
AcDbEntity
  8
0
 62
7
100
AcDbLine
 10
16.384001
 20
50.947964
 30
0.0
 11
16.242001
 21
50.942999
 31
0.0
  0
LINE
  5
250
100
AcDbEntity
  8
0
 62
7
100
AcDbLine
 10
16.242001
 20
50.942999
 30
0.0
 11
15.960000
 21
50.902999
 31
0.0
  0
LINE
  5
251
100
AcDbEntity
  8
0
 62
7
100
AcDbLine
 10
15.960000
 20
50.902999
 30
0.0
 11
15.754000
 21
50.844999
 31
0.0
  0
LINE
  5
252
100
AcDbEntity
  8
0
 62
7
100
AcDbLine
 10
15.754000
 20
50.844999
 30
0.0
 11
15.490000
 21
50.735999
 31
0.0
  0
LINE
  5
253
100
AcDbEntity
  8
0
 62
7
100
AcDbLine
 10
15.490000
 20
50.735999
 30
0.0
 11
15.304000
 21
50.630999
 31
0.0
  0
LINE
  5
254
100
AcDbEntity
  8
0
 62
7
100
AcDbLine
 10
15.304000
 20
50.630999
 30
0.0
 11
15.075000
 21
50.459999
 31
0.0
  0
LINE
  5
255
100
AcDbEntity
  8
0
 62
7
100
AcDbLine
 10
15.075000
 20
50.459999
 30
0.0
 11
14.928120
 21
50.315999
 31
0.0
  0
LINE
  5
256
100
AcDbEntity
  8
0
 62
7
100
AcDbLine
 10
14.928120
 20
50.315999
 30
0.0
 11
14.923960
 21
50.312079
 31
0.0
  0
LINE
  5
257
100
AcDbEntity
  8
0
 62
7
100
AcDbLine
 10
14.923960
 20
50.312079
 30
0.0
 11
14.922877
 21
50.310859
 31
0.0
  0
LINE
  5
258
100
AcDbEntity
  8
0
 62
7
100
AcDbLine
 10
-5.661280
 20
66.917238
 30
0.0
 11
-5.679000
 21
66.917999
 31
0.0
  0
LINE
  5
259
100
AcDbEntity
  8
0
 62
7
100
AcDbLine
 10
-5.679000
 20
66.917999
 30
0.0
 11
-5.685477
 21
66.917648
 31
0.0
  0
LINE
  5
25a
100
AcDbEntity
  8
0
 62
7
100
AcDbLine
 10
-5.685477
 20
66.917648
 30
0.0
 11
-5.974000
 21
66.901999
 31
0.0
  0
LINE
  5
25b
100
AcDbEntity
  8
0
 62
7
100
AcDbLine
 10
-5.974000
 20
66.901999
 30
0.0
 11
-6.394480
 21
66.838638
 31
0.0
  0
LINE
  5
25c
100
AcDbEntity
  8
0
 62
7
100
AcDbLine
 10
-6.394480
 20
66.838638
 30
0.0
 11
-6.417760
 21
66.834839
 31
0.0
  0
LINE
  5
25d
100
AcDbEntity
  8
0
 62
7
100
AcDbLine
 10
-6.417760
 20
66.834839
 30
0.0
 11
-6.829600
 21
66.731159
 31
0.0
  0
LINE
  5
25e
100
AcDbEntity
  8
0
 62
7
100
AcDbLine
 10
-6.829600
 20
66.731159
 30
0.0
 11
-6.852120
 21
66.723999
 31
0.0
  0
LINE
  5
25f
100
AcDbEntity
  8
0
 62
7
100
AcDbLine
 10
-6.852120
 20
66.723999
 30
0.0
 11
-7.119000
 21
66.627998
 31
0.0
  0
LINE
  5
260
100
AcDbEntity
  8
0
 62
7
100
AcDbLine
 10
-7.119000
 20
66.627998
 30
0.0
 11
-7.131420
 21
66.622000
 31
0.0
  0
LINE
  5
261
100
AcDbEntity
  8
0
 62
7
100
AcDbLine
 10
-7.131420
 20
66.622000
 30
0.0
 11
-7.629720
 21
66.381279
 31
0.0
  0
LINE
  5
262
100
AcDbEntity
  8
0
 62
7
100
AcDbLine
 10
-7.629720
 20
66.381279
 30
0.0
 11
-7.645760
 21
66.373758
 31
0.0
  0
LINE
  5
263
100
AcDbEntity
  8
0
 62
7
100
AcDbLine
 10
-7.645760
 20
66.373758
 30
0.0
 11
-7.647043
 21
66.372910
 31
0.0
  0
LINE
  5
264
100
AcDbEntity
  8
0
 62
7
100
AcDbLine
 10
-7.647043
 20
66.372910
 30
0.0
 11
-8.000000
 21
66.139519
 31
0.0
  0
LINE
  5
265
100
AcDbEntity
  8
0
 62
7
100
AcDbLine
 10
-8.000000
 20
66.139519
 30
0.0
 11
-8.015240
 21
66.130479
 31
0.0
  0
LINE
  5
266
100
AcDbEntity
  8
0
 62
7
100
AcDbLine
 10
-8.015240
 20
66.130479
 30
0.0
 11
-8.024847
 21
66.123089
 31
0.0
  0
LINE
  5
267
100
AcDbEntity
  8
0
 62
7
100
AcDbLine
 10
-8.024847
 20
66.123089
 30
0.0
 11
-8.029280
 21
66.119678
 31
0.0
  0
LINE
  5
268
100
AcDbEntity
  8
0
 62
7
100
AcDbLine
 10
-8.029280
 20
66.119678
 30
0.0
 11
-8.192000
 21
65.987705
 31
0.0
  0
LINE
  5
269
100
AcDbEntity
  8
0
 62
7
100
AcDbLine
 10
-8.192000
 20
65.987705
 30
0.0
 11
-8.359520
 21
65.851839
 31
0.0
  0
LINE
  5
26a
100
AcDbEntity
  8
0
 62
7
100
AcDbLine
 10
-8.359520
 20
65.851839
 30
0.0
 11
-8.656160
 21
65.546559
 31
0.0
  0
LINE
  5
26b
100
AcDbEntity
  8
0
 62
7
100
AcDbLine
 10
-8.656160
 20
65.546559
 30
0.0
 11
-8.669080
 21
65.534439
 31
0.0
  0
LINE
  5
26c
100
AcDbEntity
  8
0
 62
7
100
AcDbLine
 10
-8.669080
 20
65.534439
 30
0.0
 11
-8.676416
 21
65.525713
 31
0.0
  0
LINE
  5
26d
100
AcDbEntity
  8
0
 62
7
100
AcDbLine
 10
-8.676416
 20
65.525713
 30
0.0
 11
-8.680480
 21
65.520879
 31
0.0
  0
LINE
  5
26e
100
AcDbEntity
  8
0
 62
7
100
AcDbLine
 10
-8.680480
 20
65.520879
 30
0.0
 11
-8.945440
 21
65.188719
 31
0.0
  0
LINE
  5
26f
100
AcDbEntity
  8
0
 62
7
100
AcDbLine
 10
-8.945440
 20
65.188719
 30
0.0
 11
-9.100960
 21
64.951599
 31
0.0
  0
LINE
  5
270
100
AcDbEntity
  8
0
 62
7
100
AcDbLine
 10
-9.100960
 20
64.951599
 30
0.0
 11
-9.111000
 21
64.936999
 31
0.0
  0
LINE
  5
271
100
AcDbEntity
  8
0
 62
7
100
AcDbLine
 10
-9.111000
 20
64.936999
 30
0.0
 11
-9.112804
 21
64.933540
 31
0.0
  0
LINE
  5
272
100
AcDbEntity
  8
0
 62
7
100
AcDbLine
 10
-9.112804
 20
64.933540
 30
0.0
 11
-9.307800
 21
64.559719
 31
0.0
  0
LINE
  5
273
100
AcDbEntity
  8
0
 62
7
100
AcDbLine
 10
-9.307800
 20
64.559719
 30
0.0
 11
-9.313520
 21
64.549359
 31
0.0
  0
LINE
  5
274
100
AcDbEntity
  8
0
 62
7
100
AcDbLine
 10
-9.313520
 20
64.549359
 30
0.0
 11
-9.315074
 21
64.545774
 31
0.0
  0
LINE
  5
275
100
AcDbEntity
  8
0
 62
7
100
AcDbLine
 10
-9.315074
 20
64.545774
 30
0.0
 11
-9.320560
 21
64.533119
 31
0.0
  0
LINE
  5
276
100
AcDbEntity
  8
0
 62
7
100
AcDbLine
 10
-9.320560
 20
64.533119
 30
0.0
 11
-9.479920
 21
64.139519
 31
0.0
  0
LINE
  5
277
100
AcDbEntity
  8
0
 62
7
100
AcDbLine
 10
-9.479920
 20
64.139519
 30
0.0
 11
-9.560560
 21
63.867839
 31
0.0
  0
LINE
  5
278
100
AcDbEntity
  8
0
 62
7
100
AcDbLine
 10
-9.560560
 20
63.867839
 30
0.0
 11
-9.566000
 21
63.850999
 31
0.0
  0
LINE
  5
279
100
AcDbEntity
  8
0
 62
7
100
AcDbLine
 10
-9.566000
 20
63.850999
 30
0.0
 11
-9.566851
 21
63.846645
 31
0.0
  0
LINE
  5
27a
100
AcDbEntity
  8
0
 62
7
100
AcDbLine
 10
-9.566851
 20
63.846645
 30
0.0
 11
-9.647600
 21
63.433399
 31
0.0
  0
LINE
  5
27b
100
AcDbEntity
  8
0
 62
7
100
AcDbLine
 10
-9.647600
 20
63.433399
 30
0.0
 11
-9.651840
 21
63.410159
 31
0.0
  0
LINE
  5
27c
100
AcDbEntity
  8
0
 62
7
100
AcDbLine
 10
-9.651840
 20
63.410159
 30
0.0
 11
-9.693120
 21
62.844719
 31
0.0
  0
LINE
  5
27d
100
AcDbEntity
  8
0
 62
7
100
AcDbLine
 10
-9.693120
 20
62.844719
 30
0.0
 11
-9.694000
 21
62.826999
 31
0.0
  0
LINE
  5
27e
100
AcDbEntity
  8
0
 62
7
100
AcDbLine
 10
-9.694000
 20
62.826999
 30
0.0
 11
-9.679018
 21
62.525999
 31
0.0
  0
LINE
  5
27f
100
AcDbEntity
  8
0
 62
7
100
AcDbLine
 10
-9.679018
 20
62.525999
 30
0.0
 11
-9.672000
 21
62.384999
 31
0.0
  0
LINE
  5
280
100
AcDbEntity
  8
0
 62
7
100
AcDbLine
 10
-9.672000
 20
62.384999
 30
0.0
 11
-9.600960
 21
61.965479
 31
0.0
  0
LINE
  5
281
100
AcDbEntity
  8
0
 62
7
100
AcDbLine
 10
-9.600960
 20
61.965479
 30
0.0
 11
-9.596720
 21
61.942239
 31
0.0
  0
LINE
  5
282
100
AcDbEntity
  8
0
 62
7
100
AcDbLine
 10
-9.596720
 20
61.942239
 30
0.0
 11
-9.435440
 21
61.399839
 31
0.0
  0
LINE
  5
283
100
AcDbEntity
  8
0
 62
7
100
AcDbLine
 10
-9.435440
 20
61.399839
 30
0.0
 11
-9.427920
 21
61.377479
 31
0.0
  0
LINE
  5
284
100
AcDbEntity
  8
0
 62
7
100
AcDbLine
 10
-9.427920
 20
61.377479
 30
0.0
 11
-8.966160
 21
60.501959
 31
0.0
  0
LINE
  5
285
100
AcDbEntity
  8
0
 62
7
100
AcDbLine
 10
-8.966160
 20
60.501959
 30
0.0
 11
-8.961200
 21
60.491239
 31
0.0
  0
LINE
  5
286
100
AcDbEntity
  8
0
 62
7
100
AcDbLine
 10
-8.961200
 20
60.491239
 30
0.0
 11
-8.954136
 21
60.479160
 31
0.0
  0
LINE
  5
287
100
AcDbEntity
  8
0
 62
7
100
AcDbLine
 10
-8.954136
 20
60.479160
 30
0.0
 11
-8.952240
 21
60.475919
 31
0.0
  0
LINE
  5
288
100
AcDbEntity
  8
0
 62
7
100
AcDbLine
 10
-8.952240
 20
60.475919
 30
0.0
 11
-8.941880
 21
60.461559
 31
0.0
  0
LINE
  5
289
100
AcDbEntity
  8
0
 62
7
100
AcDbLine
 10
-8.941880
 20
60.461559
 30
0.0
 11
-8.934040
 21
60.452719
 31
0.0
  0
LINE
  5
28a
100
AcDbEntity
  8
0
 62
7
100
AcDbLine
 10
-8.934040
 20
60.452719
 30
0.0
 11
-8.434611
 21
59.885846
 31
0.0
  0
LINE
  5
28b
100
AcDbEntity
  8
0
 62
7
100
AcDbLine
 10
-8.434611
 20
59.885846
 30
0.0
 11
-8.372440
 21
59.815279
 31
0.0
  0
LINE
  5
28c
100
AcDbEntity
  8
0
 62
7
100
AcDbLine
 10
-8.372440
 20
59.815279
 30
0.0
 11
-8.192000
 21
59.662106
 31
0.0
  0
LINE
  5
28d
100
AcDbEntity
  8
0
 62
7
100
AcDbLine
 10
-8.192000
 20
59.662106
 30
0.0
 11
-8.156440
 21
59.631919
 31
0.0
  0
LINE
  5
28e
100
AcDbEntity
  8
0
 62
7
100
AcDbLine
 10
-8.156440
 20
59.631919
 30
0.0
 11
-8.139000
 21
59.615999
 31
0.0
  0
LINE
  5
28f
100
AcDbEntity
  8
0
 62
7
100
AcDbLine
 10
-8.139000
 20
59.615999
 30
0.0
 11
-7.651000
 21
59.283998
 31
0.0
  0
LINE
  5
290
100
AcDbEntity
  8
0
 62
7
100
AcDbLine
 10
-7.651000
 20
59.283998
 30
0.0
 11
-7.635120
 21
59.276079
 31
0.0
  0
LINE
  5
291
100
AcDbEntity
  8
0
 62
7
100
AcDbLine
 10
-7.635120
 20
59.276079
 30
0.0
 11
-7.124400
 21
59.029359
 31
0.0
  0
LINE
  5
292
100
AcDbEntity
  8
0
 62
7
100
AcDbLine
 10
-7.124400
 20
59.029359
 30
0.0
 11
-6.857520
 21
58.933359
 31
0.0
  0
LINE
  5
293
100
AcDbEntity
  8
0
 62
7
100
AcDbLine
 10
-6.857520
 20
58.933359
 30
0.0
 11
-6.841000
 21
58.926999
 31
0.0
  0
LINE
  5
294
100
AcDbEntity
  8
0
 62
7
100
AcDbLine
 10
-6.841000
 20
58.926999
 30
0.0
 11
-6.837550
 21
58.926175
 31
0.0
  0
LINE
  5
295
100
AcDbEntity
  8
0
 62
7
100
AcDbLine
 10
-6.837550
 20
58.926175
 30
0.0
 11
-6.267000
 21
58.789999
 31
0.0
  0
LINE
  5
296
100
AcDbEntity
  8
0
 62
7
100
AcDbLine
 10
-6.267000
 20
58.789999
 30
0.0
 11
-5.679000
 21
58.736999
 31
0.0
  0
LINE
  5
297
100
AcDbEntity
  8
0
 62
7
100
AcDbLine
 10
-5.679000
 20
58.736999
 30
0.0
 11
-5.236000
 21
58.754999
 31
0.0
  0
LINE
  5
298
100
AcDbEntity
  8
0
 62
7
100
AcDbLine
 10
-5.236000
 20
58.754999
 30
0.0
 11
-4.797000
 21
58.815999
 31
0.0
  0
LINE
  5
299
100
AcDbEntity
  8
0
 62
7
100
AcDbLine
 10
-4.797000
 20
58.815999
 30
0.0
 11
-4.228000
 21
58.973999
 31
0.0
  0
LINE
  5
29a
100
AcDbEntity
  8
0
 62
7
100
AcDbLine
 10
-4.228000
 20
58.973999
 30
0.0
 11
-4.206400
 21
58.983559
 31
0.0
  0
LINE
  5
29b
100
AcDbEntity
  8
0
 62
7
100
AcDbLine
 10
-4.206400
 20
58.983559
 30
0.0
 11
-4.096000
 21
59.039962
 31
0.0
  0
LINE
  5
29c
100
AcDbEntity
  8
0
 62
7
100
AcDbLine
 10
-4.096000
 20
59.039962
 30
0.0
 11
-3.325120
 21
59.433799
 31
0.0
  0
LINE
  5
29d
100
AcDbEntity
  8
0
 62
7
100
AcDbLine
 10
-3.325120
 20
59.433799
 30
0.0
 11
-3.314880
 21
59.439679
 31
0.0
  0
LINE
  5
29e
100
AcDbEntity
  8
0
 62
7
100
AcDbLine
 10
-3.314880
 20
59.439679
 30
0.0
 11
-3.300480
 21
59.449999
 31
0.0
  0
LINE
  5
29f
100
AcDbEntity
  8
0
 62
7
100
AcDbLine
 10
-3.300480
 20
59.449999
 30
0.0
 11
-2.960640
 21
59.705359
 31
0.0
  0
LINE
  5
2a0
100
AcDbEntity
  8
0
 62
7
100
AcDbLine
 10
-2.960640
 20
59.705359
 30
0.0
 11
-2.751360
 21
59.896399
 31
0.0
  0
LINE
  5
2a1
100
AcDbEntity
  8
0
 62
7
100
AcDbLine
 10
-2.751360
 20
59.896399
 30
0.0
 11
-2.738000
 21
59.907999
 31
0.0
  0
LINE
  5
2a2
100
AcDbEntity
  8
0
 62
7
100
AcDbLine
 10
-2.738000
 20
59.907999
 30
0.0
 11
-2.735295
 21
59.911064
 31
0.0
  0
LINE
  5
2a3
100
AcDbEntity
  8
0
 62
7
100
AcDbLine
 10
-2.735295
 20
59.911064
 30
0.0
 11
-2.347000
 21
60.350999
 31
0.0
  0
LINE
  5
2a4
100
AcDbEntity
  8
0
 62
7
100
AcDbLine
 10
-2.347000
 20
60.350999
 30
0.0
 11
-2.025000
 21
60.845999
 31
0.0
  0
LINE
  5
2a5
100
AcDbEntity
  8
0
 62
7
100
AcDbLine
 10
-2.025000
 20
60.845999
 30
0.0
 11
-1.834000
 21
61.245999
 31
0.0
  0
LINE
  5
2a6
100
AcDbEntity
  8
0
 62
7
100
AcDbLine
 10
-1.834000
 20
61.245999
 30
0.0
 11
-1.689040
 21
61.645359
 31
0.0
  0
LINE
  5
2a7
100
AcDbEntity
  8
0
 62
7
100
AcDbLine
 10
-1.689040
 20
61.645359
 30
0.0
 11
-1.681520
 21
61.667719
 31
0.0
  0
LINE
  5
2a8
100
AcDbEntity
  8
0
 62
7
100
AcDbLine
 10
-1.681520
 20
61.667719
 30
0.0
 11
-1.559600
 21
62.220679
 31
0.0
  0
LINE
  5
2a9
100
AcDbEntity
  8
0
 62
7
100
AcDbLine
 10
-1.559600
 20
62.220679
 30
0.0
 11
-1.556000
 21
62.237999
 31
0.0
  0
LINE
  5
2aa
100
AcDbEntity
  8
0
 62
7
100
AcDbLine
 10
-1.556000
 20
62.237999
 30
0.0
 11
-1.525280
 21
62.520239
 31
0.0
  0
LINE
  5
2ab
100
AcDbEntity
  8
0
 62
7
100
AcDbLine
 10
-1.525280
 20
62.520239
 30
0.0
 11
-1.525202
 21
62.525999
 31
0.0
  0
LINE
  5
2ac
100
AcDbEntity
  8
0
 62
7
100
AcDbLine
 10
-1.525202
 20
62.525999
 30
0.0
 11
-1.519520
 21
62.945518
 31
0.0
  0
LINE
  5
2ad
100
AcDbEntity
  8
0
 62
7
100
AcDbLine
 10
-1.519520
 20
62.945518
 30
0.0
 11
-1.518000
 21
62.974999
 31
0.0
  0
LINE
  5
2ae
100
AcDbEntity
  8
0
 62
7
100
AcDbLine
 10
-1.518000
 20
62.974999
 30
0.0
 11
-1.518968
 21
62.986238
 31
0.0
  0
LINE
  5
2af
100
AcDbEntity
  8
0
 62
7
100
AcDbLine
 10
-1.518968
 20
62.986238
 30
0.0
 11
-1.554480
 21
63.398359
 31
0.0
  0
LINE
  5
2b0
100
AcDbEntity
  8
0
 62
7
100
AcDbLine
 10
-1.554480
 20
63.398359
 30
0.0
 11
-1.557040
 21
63.421839
 31
0.0
  0
LINE
  5
2b1
100
AcDbEntity
  8
0
 62
7
100
AcDbLine
 10
-1.557040
 20
63.421839
 30
0.0
 11
-1.678960
 21
63.975759
 31
0.0
  0
LINE
  5
2b2
100
AcDbEntity
  8
0
 62
7
100
AcDbLine
 10
-1.678960
 20
63.975759
 30
0.0
 11
-1.684880
 21
63.998599
 31
0.0
  0
LINE
  5
2b3
100
AcDbEntity
  8
0
 62
7
100
AcDbLine
 10
-1.684880
 20
63.998599
 30
0.0
 11
-1.775120
 21
64.267399
 31
0.0
  0
LINE
  5
2b4
100
AcDbEntity
  8
0
 62
7
100
AcDbLine
 10
-1.775120
 20
64.267399
 30
0.0
 11
-1.948880
 21
64.655239
 31
0.0
  0
LINE
  5
2b5
100
AcDbEntity
  8
0
 62
7
100
AcDbLine
 10
-1.948880
 20
64.655239
 30
0.0
 11
-1.955320
 21
64.671719
 31
0.0
  0
LINE
  5
2b6
100
AcDbEntity
  8
0
 62
7
100
AcDbLine
 10
-1.955320
 20
64.671719
 30
0.0
 11
-1.960937
 21
64.682150
 31
0.0
  0
LINE
  5
2b7
100
AcDbEntity
  8
0
 62
7
100
AcDbLine
 10
-1.960937
 20
64.682150
 30
0.0
 11
-1.963720
 21
64.687319
 31
0.0
  0
LINE
  5
2b8
100
AcDbEntity
  8
0
 62
7
100
AcDbLine
 10
-1.963720
 20
64.687319
 30
0.0
 11
-2.173960
 21
65.056919
 31
0.0
  0
LINE
  5
2b9
100
AcDbEntity
  8
0
 62
7
100
AcDbLine
 10
-2.173960
 20
65.056919
 30
0.0
 11
-2.337160
 21
65.288279
 31
0.0
  0
LINE
  5
2ba
100
AcDbEntity
  8
0
 62
7
100
AcDbLine
 10
-2.337160
 20
65.288279
 30
0.0
 11
-2.347000
 21
65.302999
 31
0.0
  0
LINE
  5
2bb
100
AcDbEntity
  8
0
 62
7
100
AcDbLine
 10
-2.347000
 20
65.302999
 30
0.0
 11
-2.349706
 21
65.306066
 31
0.0
  0
LINE
  5
2bc
100
AcDbEntity
  8
0
 62
7
100
AcDbLine
 10
-2.349706
 20
65.306066
 30
0.0
 11
-2.738000
 21
65.745999
 31
0.0
  0
LINE
  5
2bd
100
AcDbEntity
  8
0
 62
7
100
AcDbLine
 10
-2.738000
 20
65.745999
 30
0.0
 11
-3.072000
 21
66.036999
 31
0.0
  0
LINE
  5
2be
100
AcDbEntity
  8
0
 62
7
100
AcDbLine
 10
-3.072000
 20
66.036999
 30
0.0
 11
-3.432000
 21
66.293999
 31
0.0
  0
LINE
  5
2bf
100
AcDbEntity
  8
0
 62
7
100
AcDbLine
 10
-3.432000
 20
66.293999
 30
0.0
 11
-3.821000
 21
66.506998
 31
0.0
  0
LINE
  5
2c0
100
AcDbEntity
  8
0
 62
7
100
AcDbLine
 10
-3.821000
 20
66.506998
 30
0.0
 11
-4.091549
 21
66.622000
 31
0.0
  0
LINE
  5
2c1
100
AcDbEntity
  8
0
 62
7
100
AcDbLine
 10
-4.091549
 20
66.622000
 30
0.0
 11
-4.228000
 21
66.679998
 31
0.0
  0
LINE
  5
2c2
100
AcDbEntity
  8
0
 62
7
100
AcDbLine
 10
-4.228000
 20
66.679998
 30
0.0
 11
-4.797000
 21
66.837999
 31
0.0
  0
LINE
  5
2c3
100
AcDbEntity
  8
0
 62
7
100
AcDbLine
 10
-4.797000
 20
66.837999
 30
0.0
 11
-4.814560
 21
66.840439
 31
0.0
  0
LINE
  5
2c4
100
AcDbEntity
  8
0
 62
7
100
AcDbLine
 10
-4.814560
 20
66.840439
 30
0.0
 11
-5.377120
 21
66.912439
 31
0.0
  0
LINE
  5
2c5
100
AcDbEntity
  8
0
 62
7
100
AcDbLine
 10
-5.377120
 20
66.912439
 30
0.0
 11
-5.661280
 21
66.917238
 31
0.0
  0
LINE
  5
2c6
100
AcDbEntity
  8
0
 62
7
100
AcDbLine
 10
6.483000
 20
64.525679
 30
0.0
 11
6.466760
 21
64.535079
 31
0.0
  0
LINE
  5
2c7
100
AcDbEntity
  8
0
 62
7
100
AcDbLine
 10
6.466760
 20
64.535079
 30
0.0
 11
6.466463
 21
64.535211
 31
0.0
  0
LINE
  5
2c8
100
AcDbEntity
  8
0
 62
7
100
AcDbLine
 10
6.466463
 20
64.535211
 30
0.0
 11
6.053960
 21
64.717479
 31
0.0
  0
LINE
  5
2c9
100
AcDbEntity
  8
0
 62
7
100
AcDbLine
 10
6.053960
 20
64.717479
 30
0.0
 11
6.041000
 21
64.722999
 31
0.0
  0
LINE
  5
2ca
100
AcDbEntity
  8
0
 62
7
100
AcDbLine
 10
6.041000
 20
64.722999
 30
0.0
 11
5.825960
 21
64.791159
 31
0.0
  0
LINE
  5
2cb
100
AcDbEntity
  8
0
 62
7
100
AcDbLine
 10
5.825960
 20
64.791159
 30
0.0
 11
5.384360
 21
64.879479
 31
0.0
  0
LINE
  5
2cc
100
AcDbEntity
  8
0
 62
7
100
AcDbLine
 10
5.384360
 20
64.879479
 30
0.0
 11
5.366240
 21
64.884479
 31
0.0
  0
LINE
  5
2cd
100
AcDbEntity
  8
0
 62
7
100
AcDbLine
 10
5.366240
 20
64.884479
 30
0.0
 11
5.357000
 21
64.885999
 31
0.0
  0
LINE
  5
2ce
100
AcDbEntity
  8
0
 62
7
100
AcDbLine
 10
5.357000
 20
64.885999
 30
0.0
 11
5.349050
 21
64.886541
 31
0.0
  0
LINE
  5
2cf
100
AcDbEntity
  8
0
 62
7
100
AcDbLine
 10
5.349050
 20
64.886541
 30
0.0
 11
5.005000
 21
64.909999
 31
0.0
  0
LINE
  5
2d0
100
AcDbEntity
  8
0
 62
7
100
AcDbLine
 10
5.005000
 20
64.909999
 30
0.0
 11
4.653000
 21
64.898999
 31
0.0
  0
LINE
  5
2d1
100
AcDbEntity
  8
0
 62
7
100
AcDbLine
 10
4.653000
 20
64.898999
 30
0.0
 11
4.305000
 21
64.845999
 31
0.0
  0
LINE
  5
2d2
100
AcDbEntity
  8
0
 62
7
100
AcDbLine
 10
4.305000
 20
64.845999
 30
0.0
 11
4.096000
 21
64.793444
 31
0.0
  0
LINE
  5
2d3
100
AcDbEntity
  8
0
 62
7
100
AcDbLine
 10
4.096000
 20
64.793444
 30
0.0
 11
3.963000
 21
64.759999
 31
0.0
  0
LINE
  5
2d4
100
AcDbEntity
  8
0
 62
7
100
AcDbLine
 10
3.963000
 20
64.759999
 30
0.0
 11
3.562766
 21
64.601191
 31
0.0
  0
LINE
  5
2d5
100
AcDbEntity
  8
0
 62
7
100
AcDbLine
 10
3.562766
 20
64.601191
 30
0.0
 11
3.527000
 21
64.586999
 31
0.0
  0
LINE
  5
2d6
100
AcDbEntity
  8
0
 62
7
100
AcDbLine
 10
3.527000
 20
64.586999
 30
0.0
 11
3.137240
 21
64.361399
 31
0.0
  0
LINE
  5
2d7
100
AcDbEntity
  8
0
 62
7
100
AcDbLine
 10
3.137240
 20
64.361399
 30
0.0
 11
3.124960
 21
64.354479
 31
0.0
  0
LINE
  5
2d8
100
AcDbEntity
  8
0
 62
7
100
AcDbLine
 10
3.124960
 20
64.354479
 30
0.0
 11
2.857120
 21
64.148079
 31
0.0
  0
LINE
  5
2d9
100
AcDbEntity
  8
0
 62
7
100
AcDbLine
 10
2.857120
 20
64.148079
 30
0.0
 11
2.845560
 21
64.140038
 31
0.0
  0
LINE
  5
2da
100
AcDbEntity
  8
0
 62
7
100
AcDbLine
 10
2.845560
 20
64.140038
 30
0.0
 11
2.838271
 21
64.133554
 31
0.0
  0
LINE
  5
2db
100
AcDbEntity
  8
0
 62
7
100
AcDbLine
 10
2.838271
 20
64.133554
 30
0.0
 11
2.835040
 21
64.130679
 31
0.0
  0
LINE
  5
2dc
100
AcDbEntity
  8
0
 62
7
100
AcDbLine
 10
2.835040
 20
64.130679
 30
0.0
 11
2.587360
 21
63.899319
 31
0.0
  0
LINE
  5
2dd
100
AcDbEntity
  8
0
 62
7
100
AcDbLine
 10
2.587360
 20
63.899319
 30
0.0
 11
2.370400
 21
63.641079
 31
0.0
  0
LINE
  5
2de
100
AcDbEntity
  8
0
 62
7
100
AcDbLine
 10
2.370400
 20
63.641079
 30
0.0
 11
2.360840
 21
63.630719
 31
0.0
  0
LINE
  5
2df
100
AcDbEntity
  8
0
 62
7
100
AcDbLine
 10
2.360840
 20
63.630719
 30
0.0
 11
2.355567
 21
63.623424
 31
0.0
  0
LINE
  5
2e0
100
AcDbEntity
  8
0
 62
7
100
AcDbLine
 10
2.355567
 20
63.623424
 30
0.0
 11
2.352600
 21
63.619319
 31
0.0
  0
LINE
  5
2e1
100
AcDbEntity
  8
0
 62
7
100
AcDbLine
 10
2.352600
 20
63.619319
 30
0.0
 11
2.161560
 21
63.339959
 31
0.0
  0
LINE
  5
2e2
100
AcDbEntity
  8
0
 62
7
100
AcDbLine
 10
2.161560
 20
63.339959
 30
0.0
 11
2.052120
 21
63.143159
 31
0.0
  0
LINE
  5
2e3
100
AcDbEntity
  8
0
 62
7
100
AcDbLine
 10
2.052120
 20
63.143159
 30
0.0
 11
2.045000
 21
63.130999
 31
0.0
  0
LINE
  5
2e4
100
AcDbEntity
  8
0
 62
7
100
AcDbLine
 10
2.045000
 20
63.130999
 30
0.0
 11
2.043736
 21
63.128081
 31
0.0
  0
LINE
  5
2e5
100
AcDbEntity
  8
0
 62
7
100
AcDbLine
 10
2.043736
 20
63.128081
 30
0.0
 11
1.910600
 21
62.820919
 31
0.0
  0
LINE
  5
2e6
100
AcDbEntity
  8
0
 62
7
100
AcDbLine
 10
1.910600
 20
62.820919
 30
0.0
 11
1.906640
 21
62.812399
 31
0.0
  0
LINE
  5
2e7
100
AcDbEntity
  8
0
 62
7
100
AcDbLine
 10
1.906640
 20
62.812399
 30
0.0
 11
1.905546
 21
62.809259
 31
0.0
  0
LINE
  5
2e8
100
AcDbEntity
  8
0
 62
7
100
AcDbLine
 10
1.905546
 20
62.809259
 30
0.0
 11
1.902000
 21
62.799079
 31
0.0
  0
LINE
  5
2e9
100
AcDbEntity
  8
0
 62
7
100
AcDbLine
 10
1.902000
 20
62.799079
 30
0.0
 11
1.813147
 21
62.525999
 31
0.0
  0
LINE
  5
2ea
100
AcDbEntity
  8
0
 62
7
100
AcDbLine
 10
1.813147
 20
62.525999
 30
0.0
 11
1.799507
 21
62.484077
 31
0.0
  0
LINE
  5
2eb
100
AcDbEntity
  8
0
 62
7
100
AcDbLine
 10
1.799507
 20
62.484077
 30
0.0
 11
1.797360
 21
62.477479
 31
0.0
  0
LINE
  5
2ec
100
AcDbEntity
  8
0
 62
7
100
AcDbLine
 10
1.797360
 20
62.477479
 30
0.0
 11
1.749360
 21
62.256679
 31
0.0
  0
LINE
  5
2ed
100
AcDbEntity
  8
0
 62
7
100
AcDbLine
 10
1.749360
 20
62.256679
 30
0.0
 11
1.745320
 21
62.238358
 31
0.0
  0
LINE
  5
2ee
100
AcDbEntity
  8
0
 62
7
100
AcDbLine
 10
1.745320
 20
62.238358
 30
0.0
 11
1.696360
 21
61.790039
 31
0.0
  0
LINE
  5
2ef
100
AcDbEntity
  8
0
 62
7
100
AcDbLine
 10
1.696360
 20
61.790039
 30
0.0
 11
1.695000
 21
61.771319
 31
0.0
  0
LINE
  5
2f0
100
AcDbEntity
  8
0
 62
7
100
AcDbLine
 10
1.695000
 20
61.771319
 30
0.0
 11
1.695000
 21
61.546679
 31
0.0
  0
LINE
  5
2f1
100
AcDbEntity
  8
0
 62
7
100
AcDbLine
 10
1.695000
 20
61.546679
 30
0.0
 11
1.727640
 21
61.209719
 31
0.0
  0
LINE
  5
2f2
100
AcDbEntity
  8
0
 62
7
100
AcDbLine
 10
1.727640
 20
61.209719
 30
0.0
 11
1.728320
 21
61.195639
 31
0.0
  0
LINE
  5
2f3
100
AcDbEntity
  8
0
 62
7
100
AcDbLine
 10
1.728320
 20
61.195639
 30
0.0
 11
1.729909
 21
61.186292
 31
0.0
  0
LINE
  5
2f4
100
AcDbEntity
  8
0
 62
7
100
AcDbLine
 10
1.729909
 20
61.186292
 30
0.0
 11
1.730680
 21
61.181759
 31
0.0
  0
LINE
  5
2f5
100
AcDbEntity
  8
0
 62
7
100
AcDbLine
 10
1.730680
 20
61.181759
 30
0.0
 11
1.795000
 21
60.849599
 31
0.0
  0
LINE
  5
2f6
100
AcDbEntity
  8
0
 62
7
100
AcDbLine
 10
1.795000
 20
60.849599
 30
0.0
 11
1.864680
 21
60.615599
 31
0.0
  0
LINE
  5
2f7
100
AcDbEntity
  8
0
 62
7
100
AcDbLine
 10
1.864680
 20
60.615599
 30
0.0
 11
1.944360
 21
60.404399
 31
0.0
  0
LINE
  5
2f8
100
AcDbEntity
  8
0
 62
7
100
AcDbLine
 10
1.944360
 20
60.404399
 30
0.0
 11
2.094120
 21
60.101039
 31
0.0
  0
LINE
  5
2f9
100
AcDbEntity
  8
0
 62
7
100
AcDbLine
 10
2.094120
 20
60.101039
 30
0.0
 11
2.099720
 21
60.088119
 31
0.0
  0
LINE
  5
2fa
100
AcDbEntity
  8
0
 62
7
100
AcDbLine
 10
2.099720
 20
60.088119
 30
0.0
 11
2.103570
 21
60.081896
 31
0.0
  0
LINE
  5
2fb
100
AcDbEntity
  8
0
 62
7
100
AcDbLine
 10
2.103570
 20
60.081896
 30
0.0
 11
2.277320
 21
59.801079
 31
0.0
  0
LINE
  5
2fc
100
AcDbEntity
  8
0
 62
7
100
AcDbLine
 10
2.277320
 20
59.801079
 30
0.0
 11
2.289840
 21
59.781239
 31
0.0
  0
LINE
  5
2fd
100
AcDbEntity
  8
0
 62
7
100
AcDbLine
 10
2.289840
 20
59.781239
 30
0.0
 11
2.574960
 21
59.432759
 31
0.0
  0
LINE
  5
2fe
100
AcDbEntity
  8
0
 62
7
100
AcDbLine
 10
2.574960
 20
59.432759
 30
0.0
 11
2.584000
 21
59.421999
 31
0.0
  0
LINE
  5
2ff
100
AcDbEntity
  8
0
 62
7
100
AcDbLine
 10
2.584000
 20
59.421999
 30
0.0
 11
2.917120
 21
59.117679
 31
0.0
  0
LINE
  5
300
100
AcDbEntity
  8
0
 62
7
100
AcDbLine
 10
2.917120
 20
59.117679
 30
0.0
 11
3.099520
 21
58.984239
 31
0.0
  0
LINE
  5
301
100
AcDbEntity
  8
0
 62
7
100
AcDbLine
 10
3.099520
 20
58.984239
 30
0.0
 11
3.121000
 21
58.965999
 31
0.0
  0
LINE
  5
302
100
AcDbEntity
  8
0
 62
7
100
AcDbLine
 10
3.121000
 20
58.965999
 30
0.0
 11
3.137533
 21
58.956429
 31
0.0
  0
LINE
  5
303
100
AcDbEntity
  8
0
 62
7
100
AcDbLine
 10
3.137533
 20
58.956429
 30
0.0
 11
3.527000
 21
58.730999
 31
0.0
  0
LINE
  5
304
100
AcDbEntity
  8
0
 62
7
100
AcDbLine
 10
3.527000
 20
58.730999
 30
0.0
 11
3.853000
 21
58.596999
 31
0.0
  0
LINE
  5
305
100
AcDbEntity
  8
0
 62
7
100
AcDbLine
 10
3.853000
 20
58.596999
 30
0.0
 11
4.096000
 21
58.523450
 31
0.0
  0
LINE
  5
306
100
AcDbEntity
  8
0
 62
7
100
AcDbLine
 10
4.096000
 20
58.523450
 30
0.0
 11
4.190000
 21
58.494999
 31
0.0
  0
LINE
  5
307
100
AcDbEntity
  8
0
 62
7
100
AcDbLine
 10
4.190000
 20
58.494999
 30
0.0
 11
4.199200
 21
58.493119
 31
0.0
  0
LINE
  5
308
100
AcDbEntity
  8
0
 62
7
100
AcDbLine
 10
4.199200
 20
58.493119
 30
0.0
 11
4.583734
 21
58.429999
 31
0.0
  0
LINE
  5
309
100
AcDbEntity
  8
0
 62
7
100
AcDbLine
 10
4.583734
 20
58.429999
 30
0.0
 11
4.643680
 21
58.420159
 31
0.0
  0
LINE
  5
30a
100
AcDbEntity
  8
0
 62
7
100
AcDbLine
 10
4.643680
 20
58.420159
 30
0.0
 11
4.653000
 21
58.418999
 31
0.0
  0
LINE
  5
30b
100
AcDbEntity
  8
0
 62
7
100
AcDbLine
 10
4.653000
 20
58.418999
 30
0.0
 11
5.005000
 21
58.407999
 31
0.0
  0
LINE
  5
30c
100
AcDbEntity
  8
0
 62
7
100
AcDbLine
 10
5.005000
 20
58.407999
 30
0.0
 11
5.327667
 21
58.429999
 31
0.0
  0
LINE
  5
30d
100
AcDbEntity
  8
0
 62
7
100
AcDbLine
 10
5.327667
 20
58.429999
 30
0.0
 11
5.357000
 21
58.431999
 31
0.0
  0
LINE
  5
30e
100
AcDbEntity
  8
0
 62
7
100
AcDbLine
 10
5.357000
 20
58.431999
 30
0.0
 11
5.798600
 21
58.520319
 31
0.0
  0
LINE
  5
30f
100
AcDbEntity
  8
0
 62
7
100
AcDbLine
 10
5.798600
 20
58.520319
 30
0.0
 11
5.807840
 21
58.521839
 31
0.0
  0
LINE
  5
310
100
AcDbEntity
  8
0
 62
7
100
AcDbLine
 10
5.807840
 20
58.521839
 30
0.0
 11
5.812160
 21
58.523031
 31
0.0
  0
LINE
  5
311
100
AcDbEntity
  8
0
 62
7
100
AcDbLine
 10
5.812160
 20
58.523031
 30
0.0
 11
5.825960
 21
58.526839
 31
0.0
  0
LINE
  5
312
100
AcDbEntity
  8
0
 62
7
100
AcDbLine
 10
5.825960
 20
58.526839
 30
0.0
 11
6.041000
 21
58.594999
 31
0.0
  0
LINE
  5
313
100
AcDbEntity
  8
0
 62
7
100
AcDbLine
 10
6.041000
 20
58.594999
 30
0.0
 11
6.471000
 21
58.784999
 31
0.0
  0
LINE
  5
314
100
AcDbEntity
  8
0
 62
7
100
AcDbLine
 10
6.471000
 20
58.784999
 30
0.0
 11
6.565725
 21
58.842781
 31
0.0
  0
LINE
  5
315
100
AcDbEntity
  8
0
 62
7
100
AcDbLine
 10
6.565725
 20
58.842781
 30
0.0
 11
6.771000
 21
58.967999
 31
0.0
  0
LINE
  5
316
100
AcDbEntity
  8
0
 62
7
100
AcDbLine
 10
6.771000
 20
58.967999
 30
0.0
 11
7.207800
 21
59.323199
 31
0.0
  0
LINE
  5
317
100
AcDbEntity
  8
0
 62
7
100
AcDbLine
 10
7.207800
 20
59.323199
 30
0.0
 11
7.219080
 21
59.331639
 31
0.0
  0
LINE
  5
318
100
AcDbEntity
  8
0
 62
7
100
AcDbLine
 10
7.219080
 20
59.331639
 30
0.0
 11
7.232480
 21
59.344799
 31
0.0
  0
LINE
  5
319
100
AcDbEntity
  8
0
 62
7
100
AcDbLine
 10
7.232480
 20
59.344799
 30
0.0
 11
7.388000
 21
59.507999
 31
0.0
  0
LINE
  5
31a
100
AcDbEntity
  8
0
 62
7
100
AcDbLine
 10
7.388000
 20
59.507999
 30
0.0
 11
7.457401
 21
59.597321
 31
0.0
  0
LINE
  5
31b
100
AcDbEntity
  8
0
 62
7
100
AcDbLine
 10
7.457401
 20
59.597321
 30
0.0
 11
7.604000
 21
59.785999
 31
0.0
  0
LINE
  5
31c
100
AcDbEntity
  8
0
 62
7
100
AcDbLine
 10
7.604000
 20
59.785999
 30
0.0
 11
7.887200
 21
60.272719
 31
0.0
  0
LINE
  5
31d
100
AcDbEntity
  8
0
 62
7
100
AcDbLine
 10
7.887200
 20
60.272719
 30
0.0
 11
7.894760
 21
60.284599
 31
0.0
  0
LINE
  5
31e
100
AcDbEntity
  8
0
 62
7
100
AcDbLine
 10
7.894760
 20
60.284599
 30
0.0
 11
7.899000
 21
60.292999
 31
0.0
  0
LINE
  5
31f
100
AcDbEntity
  8
0
 62
7
100
AcDbLine
 10
7.899000
 20
60.292999
 30
0.0
 11
7.971759
 21
60.477999
 31
0.0
  0
LINE
  5
320
100
AcDbEntity
  8
0
 62
7
100
AcDbLine
 10
7.971759
 20
60.477999
 30
0.0
 11
8.028000
 21
60.620999
 31
0.0
  0
LINE
  5
321
100
AcDbEntity
  8
0
 62
7
100
AcDbLine
 10
8.028000
 20
60.620999
 30
0.0
 11
8.080114
 21
60.805028
 31
0.0
  0
LINE
  5
322
100
AcDbEntity
  8
0
 62
7
100
AcDbLine
 10
8.080114
 20
60.805028
 30
0.0
 11
8.124000
 21
60.959999
 31
0.0
  0
LINE
  5
323
100
AcDbEntity
  8
0
 62
7
100
AcDbLine
 10
8.124000
 20
60.959999
 30
0.0
 11
8.189280
 21
61.405439
 31
0.0
  0
LINE
  5
324
100
AcDbEntity
  8
0
 62
7
100
AcDbLine
 10
8.189280
 20
61.405439
 30
0.0
 11
8.190960
 21
61.414679
 31
0.0
  0
LINE
  5
325
100
AcDbEntity
  8
0
 62
7
100
AcDbLine
 10
8.190960
 20
61.414679
 30
0.0
 11
8.192000
 21
61.428994
 31
0.0
  0
LINE
  5
326
100
AcDbEntity
  8
0
 62
7
100
AcDbLine
 10
8.192000
 20
61.428994
 30
0.0
 11
8.192320
 21
61.433399
 31
0.0
  0
LINE
  5
327
100
AcDbEntity
  8
0
 62
7
100
AcDbLine
 10
8.192320
 20
61.433399
 30
0.0
 11
8.200000
 21
61.658998
 31
0.0
  0
LINE
  5
328
100
AcDbEntity
  8
0
 62
7
100
AcDbLine
 10
8.200000
 20
61.658998
 30
0.0
 11
8.192000
 21
61.793095
 31
0.0
  0
LINE
  5
329
100
AcDbEntity
  8
0
 62
7
100
AcDbLine
 10
8.192000
 20
61.793095
 30
0.0
 11
8.179840
 21
61.996919
 31
0.0
  0
LINE
  5
32a
100
AcDbEntity
  8
0
 62
7
100
AcDbLine
 10
8.179840
 20
61.996919
 30
0.0
 11
8.178480
 21
62.015639
 31
0.0
  0
LINE
  5
32b
100
AcDbEntity
  8
0
 62
7
100
AcDbLine
 10
8.178480
 20
62.015639
 30
0.0
 11
8.077295
 21
62.525999
 31
0.0
  0
LINE
  5
32c
100
AcDbEntity
  8
0
 62
7
100
AcDbLine
 10
8.077295
 20
62.525999
 30
0.0
 11
8.069040
 21
62.567639
 31
0.0
  0
LINE
  5
32d
100
AcDbEntity
  8
0
 62
7
100
AcDbLine
 10
8.069040
 20
62.567639
 30
0.0
 11
8.065000
 21
62.585999
 31
0.0
  0
LINE
  5
32e
100
AcDbEntity
  8
0
 62
7
100
AcDbLine
 10
8.065000
 20
62.585999
 30
0.0
 11
7.945000
 21
62.916999
 31
0.0
  0
LINE
  5
32f
100
AcDbEntity
  8
0
 62
7
100
AcDbLine
 10
7.945000
 20
62.916999
 30
0.0
 11
7.793000
 21
63.234999
 31
0.0
  0
LINE
  5
330
100
AcDbEntity
  8
0
 62
7
100
AcDbLine
 10
7.793000
 20
63.234999
 30
0.0
 11
7.672000
 21
63.435999
 31
0.0
  0
LINE
  5
331
100
AcDbEntity
  8
0
 62
7
100
AcDbLine
 10
7.672000
 20
63.435999
 30
0.0
 11
7.470400
 21
63.707679
 31
0.0
  0
LINE
  5
332
100
AcDbEntity
  8
0
 62
7
100
AcDbLine
 10
7.470400
 20
63.707679
 30
0.0
 11
7.465000
 21
63.715359
 31
0.0
  0
LINE
  5
333
100
AcDbEntity
  8
0
 62
7
100
AcDbLine
 10
7.465000
 20
63.715359
 30
0.0
 11
7.462843
 21
63.717863
 31
0.0
  0
LINE
  5
334
100
AcDbEntity
  8
0
 62
7
100
AcDbLine
 10
7.462843
 20
63.717863
 30
0.0
 11
7.455800
 21
63.726039
 31
0.0
  0
LINE
  5
335
100
AcDbEntity
  8
0
 62
7
100
AcDbLine
 10
7.455800
 20
63.726039
 30
0.0
 11
7.229240
 21
63.976599
 31
0.0
  0
LINE
  5
336
100
AcDbEntity
  8
0
 62
7
100
AcDbLine
 10
7.229240
 20
63.976599
 30
0.0
 11
6.974840
 21
64.198359
 31
0.0
  0
LINE
  5
337
100
AcDbEntity
  8
0
 62
7
100
AcDbLine
 10
6.974840
 20
64.198359
 30
0.0
 11
6.964680
 21
64.208119
 31
0.0
  0
LINE
  5
338
100
AcDbEntity
  8
0
 62
7
100
AcDbLine
 10
6.964680
 20
64.208119
 30
0.0
 11
6.957362
 21
64.213594
 31
0.0
  0
LINE
  5
339
100
AcDbEntity
  8
0
 62
7
100
AcDbLine
 10
6.957362
 20
64.213594
 30
0.0
 11
6.953400
 21
64.216559
 31
0.0
  0
LINE
  5
33a
100
AcDbEntity
  8
0
 62
7
100
AcDbLine
 10
6.953400
 20
64.216559
 30
0.0
 11
6.677880
 21
64.413359
 31
0.0
  0
LINE
  5
33b
100
AcDbEntity
  8
0
 62
7
100
AcDbLine
 10
6.677880
 20
64.413359
 30
0.0
 11
6.483000
 21
64.525679
 31
0.0
  0
LINE
  5
33c
100
AcDbEntity
  8
0
 62
7
100
AcDbLine
 10
6.605000
 20
48.975999
 30
0.0
 11
0.000000
 21
48.975999
 31
0.0
  0
LINE
  5
33d
100
AcDbEntity
  8
0
 62
7
100
AcDbLine
 10
0.000000
 20
48.975999
 30
0.0
 11
-7.680000
 21
48.975999
 31
0.0
  0
LINE
  5
33e
100
AcDbEntity
  8
0
 62
7
100
AcDbLine
 10
-7.680000
 20
48.975999
 30
0.0
 11
-6.199000
 21
46.384999
 31
0.0
  0
LINE
  5
33f
100
AcDbEntity
  8
0
 62
7
100
AcDbLine
 10
-6.199000
 20
46.384999
 30
0.0
 11
-6.191640
 21
46.373079
 31
0.0
  0
LINE
  5
340
100
AcDbEntity
  8
0
 62
7
100
AcDbLine
 10
-6.191640
 20
46.373079
 30
0.0
 11
-5.818200
 21
45.813399
 31
0.0
  0
LINE
  5
341
100
AcDbEntity
  8
0
 62
7
100
AcDbLine
 10
-5.818200
 20
45.813399
 30
0.0
 11
-5.801040
 21
45.791239
 31
0.0
  0
LINE
  5
342
100
AcDbEntity
  8
0
 62
7
100
AcDbLine
 10
-5.801040
 20
45.791239
 30
0.0
 11
-5.464897
 21
45.415507
 31
0.0
  0
LINE
  5
343
100
AcDbEntity
  8
0
 62
7
100
AcDbLine
 10
-5.464897
 20
45.415507
 30
0.0
 11
-5.352720
 21
45.290119
 31
0.0
  0
LINE
  5
344
100
AcDbEntity
  8
0
 62
7
100
AcDbLine
 10
-5.352720
 20
45.290119
 30
0.0
 11
-5.103120
 21
45.064519
 31
0.0
  0
LINE
  5
345
100
AcDbEntity
  8
0
 62
7
100
AcDbLine
 10
-5.103120
 20
45.064519
 30
0.0
 11
-5.083000
 21
45.044999
 31
0.0
  0
LINE
  5
346
100
AcDbEntity
  8
0
 62
7
100
AcDbLine
 10
-5.083000
 20
45.044999
 30
0.0
 11
-4.518000
 21
44.630999
 31
0.0
  0
LINE
  5
347
100
AcDbEntity
  8
0
 62
7
100
AcDbLine
 10
-4.518000
 20
44.630999
 30
0.0
 11
-4.505880
 21
44.623999
 31
0.0
  0
LINE
  5
348
100
AcDbEntity
  8
0
 62
7
100
AcDbLine
 10
-4.505880
 20
44.623999
 30
0.0
 11
-3.912600
 21
44.307199
 31
0.0
  0
LINE
  5
349
100
AcDbEntity
  8
0
 62
7
100
AcDbLine
 10
-3.912600
 20
44.307199
 30
0.0
 11
-3.887000
 21
44.295719
 31
0.0
  0
LINE
  5
34a
100
AcDbEntity
  8
0
 62
7
100
AcDbLine
 10
-3.887000
 20
44.295719
 30
0.0
 11
-3.581614
 21
44.171685
 31
0.0
  0
LINE
  5
34b
100
AcDbEntity
  8
0
 62
7
100
AcDbLine
 10
-3.581614
 20
44.171685
 30
0.0
 11
-3.575000
 21
44.168999
 31
0.0
  0
LINE
  5
34c
100
AcDbEntity
  8
0
 62
7
100
AcDbLine
 10
-3.575000
 20
44.168999
 30
0.0
 11
-2.902000
 21
43.975999
 31
0.0
  0
LINE
  5
34d
100
AcDbEntity
  8
0
 62
7
100
AcDbLine
 10
-2.902000
 20
43.975999
 30
0.0
 11
-1.899760
 21
43.869439
 31
0.0
  0
LINE
  5
34e
100
AcDbEntity
  8
0
 62
7
100
AcDbLine
 10
-1.899760
 20
43.869439
 30
0.0
 11
-1.885960
 21
43.866959
 31
0.0
  0
LINE
  5
34f
100
AcDbEntity
  8
0
 62
7
100
AcDbLine
 10
-1.885960
 20
43.866959
 30
0.0
 11
-1.858000
 21
43.864999
 31
0.0
  0
LINE
  5
350
100
AcDbEntity
  8
0
 62
7
100
AcDbLine
 10
-1.858000
 20
43.864999
 30
0.0
 11
0.000000
 21
43.864999
 31
0.0
  0
LINE
  5
351
100
AcDbEntity
  8
0
 62
7
100
AcDbLine
 10
0.000000
 20
43.864999
 30
0.0
 11
0.534000
 21
43.864999
 31
0.0
  0
LINE
  5
352
100
AcDbEntity
  8
0
 62
7
100
AcDbLine
 10
0.534000
 20
43.864999
 30
0.0
 11
1.038960
 21
43.894759
 31
0.0
  0
LINE
  5
353
100
AcDbEntity
  8
0
 62
7
100
AcDbLine
 10
1.038960
 20
43.894759
 30
0.0
 11
1.067000
 21
43.896759
 31
0.0
  0
LINE
  5
354
100
AcDbEntity
  8
0
 62
7
100
AcDbLine
 10
1.067000
 20
43.896759
 30
0.0
 11
1.731320
 21
44.014839
 31
0.0
  0
LINE
  5
355
100
AcDbEntity
  8
0
 62
7
100
AcDbLine
 10
1.731320
 20
44.014839
 30
0.0
 11
1.758840
 21
44.020719
 31
0.0
  0
LINE
  5
356
100
AcDbEntity
  8
0
 62
7
100
AcDbLine
 10
1.758840
 20
44.020719
 30
0.0
 11
2.556600
 21
44.295279
 31
0.0
  0
LINE
  5
357
100
AcDbEntity
  8
0
 62
7
100
AcDbLine
 10
2.556600
 20
44.295279
 30
0.0
 11
2.583000
 21
44.304999
 31
0.0
  0
LINE
  5
358
100
AcDbEntity
  8
0
 62
7
100
AcDbLine
 10
2.583000
 20
44.304999
 30
0.0
 11
3.101832
 21
44.583662
 31
0.0
  0
LINE
  5
359
100
AcDbEntity
  8
0
 62
7
100
AcDbLine
 10
3.101832
 20
44.583662
 30
0.0
 11
3.203000
 21
44.637999
 31
0.0
  0
LINE
  5
35a
100
AcDbEntity
  8
0
 62
7
100
AcDbLine
 10
3.203000
 20
44.637999
 30
0.0
 11
3.614840
 21
44.932719
 31
0.0
  0
LINE
  5
35b
100
AcDbEntity
  8
0
 62
7
100
AcDbLine
 10
3.614840
 20
44.932719
 30
0.0
 11
3.626480
 21
44.940639
 31
0.0
  0
LINE
  5
35c
100
AcDbEntity
  8
0
 62
7
100
AcDbLine
 10
3.626480
 20
44.940639
 30
0.0
 11
3.642720
 21
44.954119
 31
0.0
  0
LINE
  5
35d
100
AcDbEntity
  8
0
 62
7
100
AcDbLine
 10
3.642720
 20
44.954119
 30
0.0
 11
3.760283
 21
45.056322
 31
0.0
  0
LINE
  5
35e
100
AcDbEntity
  8
0
 62
7
100
AcDbLine
 10
3.760283
 20
45.056322
 30
0.0
 11
4.024800
 21
45.286279
 31
0.0
  0
LINE
  5
35f
100
AcDbEntity
  8
0
 62
7
100
AcDbLine
 10
4.024800
 20
45.286279
 30
0.0
 11
4.365600
 21
45.661639
 31
0.0
  0
LINE
  5
360
100
AcDbEntity
  8
0
 62
7
100
AcDbLine
 10
4.365600
 20
45.661639
 30
0.0
 11
4.380520
 21
45.676559
 31
0.0
  0
LINE
  5
361
100
AcDbEntity
  8
0
 62
7
100
AcDbLine
 10
4.380520
 20
45.676559
 30
0.0
 11
4.397680
 21
45.698879
 31
0.0
  0
LINE
  5
362
100
AcDbEntity
  8
0
 62
7
100
AcDbLine
 10
4.397680
 20
45.698879
 30
0.0
 11
4.702000
 21
46.103999
 31
0.0
  0
LINE
  5
363
100
AcDbEntity
  8
0
 62
7
100
AcDbLine
 10
4.702000
 20
46.103999
 30
0.0
 11
6.605000
 21
48.975999
 31
0.0
  0
LINE
  5
364
100
AcDbEntity
  8
0
 62
7
100
AcDbLine
 10
6.605000
 20
48.975999
 30
0.0
 11
6.605000
 21
48.975999
 31
0.0
  0
ENDSEC
  0
SECTION
  2
OBJECTS
  0
DICTIONARY
  5
C
330
0
100
AcDbDictionary
  3
ACAD_GROUP
350
D
  3
ACAD_MLINESTYLE
350
17
  0
DICTIONARY
  5
D
330
C
100
AcDbDictionary
  0
DICTIONARY
  5
1A
330
C
100
AcDbDictionary
  0
DICTIONARY
  5
17
330
C
100
AcDbDictionary
  3
STANDARD
350
18
  0
DICTIONARY
  5
19
330
C
100
AcDbDictionary
  0
ENDSEC
  0
EOF
